<svg width="700" height="700" viewBox="0 0 700 700" fill="none" xmlns="http://www.w3.org/2000/svg">
<g filter="url(#filter0_bd_132_373)">
<mask id="path-1-inside-1_132_373" fill="white">
<path fill-rule="evenodd" clip-rule="evenodd" d="M505.441 456.465C505.784 456.469 506.127 456.471 506.471 456.471C555.364 456.471 595 416.835 595 367.941C595 319.048 555.364 279.412 506.471 279.412C506.127 279.412 505.784 279.414 505.441 279.418V279.412H482.571C483.397 273.353 483.824 267.168 483.824 260.882C483.824 185.837 422.987 125 347.941 125C272.895 125 212.059 185.837 212.059 260.882C212.059 267.963 212.6 274.918 213.645 281.707C207.182 280.206 200.449 279.412 193.529 279.412C144.636 279.412 105 319.048 105 367.941C105 416.835 144.636 456.471 193.529 456.471C193.875 456.471 194.219 456.469 194.563 456.465L194.559 456.471H505.441V456.465Z"/>
</mask>
<path fill-rule="evenodd" clip-rule="evenodd" d="M505.441 456.465C505.784 456.469 506.127 456.471 506.471 456.471C555.364 456.471 595 416.835 595 367.941C595 319.048 555.364 279.412 506.471 279.412C506.127 279.412 505.784 279.414 505.441 279.418V279.412H482.571C483.397 273.353 483.824 267.168 483.824 260.882C483.824 185.837 422.987 125 347.941 125C272.895 125 212.059 185.837 212.059 260.882C212.059 267.963 212.6 274.918 213.645 281.707C207.182 280.206 200.449 279.412 193.529 279.412C144.636 279.412 105 319.048 105 367.941C105 416.835 144.636 456.471 193.529 456.471C193.875 456.471 194.219 456.469 194.563 456.465L194.559 456.471H505.441V456.465Z" fill="url(#paint0_linear_132_373)" shape-rendering="crispEdges"/>
<path d="M505.441 456.465L505.464 454.465C504.93 454.459 504.415 454.667 504.035 455.042C503.655 455.418 503.441 455.93 503.441 456.465H505.441ZM505.441 279.418H503.441C503.441 279.952 503.655 280.464 504.035 280.84C504.415 281.216 504.93 281.424 505.464 281.418L505.441 279.418ZM505.441 279.412H507.441C507.441 278.307 506.546 277.412 505.441 277.412V279.412ZM482.571 279.412L480.589 279.142C480.511 279.714 480.684 280.292 481.064 280.727C481.444 281.162 481.993 281.412 482.571 281.412V279.412ZM213.645 281.707L213.192 283.655C213.839 283.805 214.517 283.625 215.004 283.174C215.491 282.722 215.722 282.059 215.621 281.403L213.645 281.707ZM194.563 456.465L196.134 457.703C196.611 457.098 196.698 456.273 196.358 455.582C196.018 454.89 195.311 454.456 194.541 454.465L194.563 456.465ZM194.559 456.471L192.988 455.232C192.514 455.834 192.425 456.654 192.759 457.343C193.094 458.033 193.793 458.471 194.559 458.471V456.471ZM505.441 456.471V458.471C506.546 458.471 507.441 457.575 507.441 456.471H505.441ZM505.418 458.465C505.769 458.469 506.119 458.471 506.471 458.471V454.471C506.135 454.471 505.799 454.469 505.464 454.465L505.418 458.465ZM506.471 458.471C556.469 458.471 597 417.939 597 367.941H593C593 415.73 554.259 454.471 506.471 454.471V458.471ZM597 367.941C597 317.943 556.469 277.412 506.471 277.412V281.412C554.259 281.412 593 320.152 593 367.941H597ZM506.471 277.412C506.119 277.412 505.769 277.414 505.418 277.418L505.464 281.418C505.799 281.414 506.135 281.412 506.471 281.412V277.412ZM503.441 279.412V279.418H507.441V279.412H503.441ZM482.571 281.412H505.441V277.412H482.571V281.412ZM484.552 279.682C485.391 273.534 485.824 267.258 485.824 260.882H481.824C481.824 267.077 481.403 273.172 480.589 279.142L484.552 279.682ZM485.824 260.882C485.824 184.732 424.092 123 347.941 123V127C421.882 127 481.824 186.941 481.824 260.882H485.824ZM347.941 123C271.791 123 210.059 184.732 210.059 260.882H214.059C214.059 186.941 274 127 347.941 127V123ZM210.059 260.882C210.059 268.066 210.608 275.122 211.668 282.011L215.621 281.403C214.593 274.714 214.059 267.861 214.059 260.882H210.059ZM214.097 279.759C207.488 278.223 200.602 277.412 193.529 277.412V281.412C200.295 281.412 206.877 282.188 213.192 283.655L214.097 279.759ZM193.529 277.412C143.531 277.412 103 317.943 103 367.941H107C107 320.152 145.741 281.412 193.529 281.412V277.412ZM103 367.941C103 417.939 143.531 458.471 193.529 458.471V454.471C145.741 454.471 107 415.73 107 367.941H103ZM193.529 458.471C193.882 458.471 194.235 458.469 194.586 458.465L194.541 454.465C194.204 454.469 193.867 454.471 193.529 454.471V458.471ZM196.129 457.709L196.134 457.703L192.993 455.226L192.988 455.232L196.129 457.709ZM505.441 454.471H194.559V458.471H505.441V454.471ZM503.441 456.465V456.471H507.441V456.465H503.441Z" fill="url(#paint1_linear_132_373)" mask="url(#path-1-inside-1_132_373)"/>
</g>
<g filter="url(#filter1_bdd_132_373)">
<path d="M321.282 389.461L325.244 444.94C326.443 461.734 310.429 474.51 294.321 469.611L288.329 467.788C272.221 462.888 266.034 443.358 276.381 430.077L310.565 386.201C313.944 381.864 320.891 383.977 321.282 389.461Z" fill="url(#paint2_linear_132_373)" stroke="url(#paint3_linear_132_373)" stroke-width="2"/>
<path d="M439.679 389.461L443.641 444.94C444.84 461.734 428.825 474.51 412.717 469.611L406.726 467.788C390.618 462.888 384.43 443.358 394.778 430.077L428.961 386.201C432.34 381.864 439.287 383.977 439.679 389.461Z" fill="url(#paint4_linear_132_373)" stroke="url(#paint5_linear_132_373)" stroke-width="2"/>
</g>
<g filter="url(#filter2_bdd_132_373)">
<path d="M352.523 483.18L356.484 538.659C357.684 555.453 341.669 568.229 325.561 563.329L319.569 561.507C303.462 556.607 297.274 537.077 307.621 523.796L341.805 479.92C345.184 475.583 352.131 477.696 352.523 483.18Z" fill="url(#paint6_linear_132_373)" stroke="url(#paint7_linear_132_373)" stroke-width="2"/>
</g>
<defs>
<filter id="filter0_bd_132_373" x="34" y="90" width="590" height="431.471" filterUnits="userSpaceOnUse" color-interpolation-filters="sRGB">
<feFlood flood-opacity="0" result="BackgroundImageFix"/>
<feGaussianBlur in="BackgroundImageFix" stdDeviation="7"/>
<feComposite in2="SourceAlpha" operator="in" result="effect1_backgroundBlur_132_373"/>
<feColorMatrix in="SourceAlpha" type="matrix" values="0 0 0 0 0 0 0 0 0 0 0 0 0 0 0 0 0 0 127 0" result="hardAlpha"/>
<feOffset dx="-21" dy="15"/>
<feGaussianBlur stdDeviation="25"/>
<feComposite in2="hardAlpha" operator="out"/>
<feColorMatrix type="matrix" values="0 0 0 0 0.113725 0 0 0 0 0.14902 0 0 0 0 0.27451 0 0 0 0.25 0"/>
<feBlend mode="normal" in2="effect1_backgroundBlur_132_373" result="effect2_dropShadow_132_373"/>
<feBlend mode="normal" in="SourceGraphic" in2="effect2_dropShadow_132_373" result="shape"/>
</filter>
<filter id="filter1_bdd_132_373" x="199.3" y="334.878" width="286.404" height="201.792" filterUnits="userSpaceOnUse" color-interpolation-filters="sRGB">
<feFlood flood-opacity="0" result="BackgroundImageFix"/>
<feGaussianBlur in="BackgroundImageFix" stdDeviation="7"/>
<feComposite in2="SourceAlpha" operator="in" result="effect1_backgroundBlur_132_373"/>
<feColorMatrix in="SourceAlpha" type="matrix" values="0 0 0 0 0 0 0 0 0 0 0 0 0 0 0 0 0 0 127 0" result="hardAlpha"/>
<feOffset dx="-21" dy="15"/>
<feGaussianBlur stdDeviation="25"/>
<feComposite in2="hardAlpha" operator="out"/>
<feColorMatrix type="matrix" values="0 0 0 0 0.113438 0 0 0 0 0.148981 0 0 0 0 0.275 0 0 0 0.25 0"/>
<feBlend mode="normal" in2="effect1_backgroundBlur_132_373" result="effect2_dropShadow_132_373"/>
<feColorMatrix in="SourceAlpha" type="matrix" values="0 0 0 0 0 0 0 0 0 0 0 0 0 0 0 0 0 0 127 0" result="hardAlpha"/>
<feOffset dy="-7"/>
<feGaussianBlur stdDeviation="20.5"/>
<feComposite in2="hardAlpha" operator="out"/>
<feColorMatrix type="matrix" values="0 0 0 0 0.1375 0 0 0 0 0.74125 0 0 0 0 1 0 0 0 0.3 0"/>
<feBlend mode="normal" in2="effect2_dropShadow_132_373" result="effect3_dropShadow_132_373"/>
<feBlend mode="normal" in="SourceGraphic" in2="effect3_dropShadow_132_373" result="shape"/>
</filter>
<filter id="filter2_bdd_132_373" x="230.54" y="428.597" width="168.008" height="201.792" filterUnits="userSpaceOnUse" color-interpolation-filters="sRGB">
<feFlood flood-opacity="0" result="BackgroundImageFix"/>
<feGaussianBlur in="BackgroundImageFix" stdDeviation="7"/>
<feComposite in2="SourceAlpha" operator="in" result="effect1_backgroundBlur_132_373"/>
<feColorMatrix in="SourceAlpha" type="matrix" values="0 0 0 0 0 0 0 0 0 0 0 0 0 0 0 0 0 0 127 0" result="hardAlpha"/>
<feOffset dx="-21" dy="15"/>
<feGaussianBlur stdDeviation="25"/>
<feComposite in2="hardAlpha" operator="out"/>
<feColorMatrix type="matrix" values="0 0 0 0 0.113438 0 0 0 0 0.148981 0 0 0 0 0.275 0 0 0 0.25 0"/>
<feBlend mode="normal" in2="effect1_backgroundBlur_132_373" result="effect2_dropShadow_132_373"/>
<feColorMatrix in="SourceAlpha" type="matrix" values="0 0 0 0 0 0 0 0 0 0 0 0 0 0 0 0 0 0 127 0" result="hardAlpha"/>
<feOffset dy="-7"/>
<feGaussianBlur stdDeviation="20.5"/>
<feComposite in2="hardAlpha" operator="out"/>
<feColorMatrix type="matrix" values="0 0 0 0 0.1375 0 0 0 0 0.74125 0 0 0 0 1 0 0 0 0.3 0"/>
<feBlend mode="normal" in2="effect2_dropShadow_132_373" result="effect3_dropShadow_132_373"/>
<feBlend mode="normal" in="SourceGraphic" in2="effect3_dropShadow_132_373" result="shape"/>
</filter>
<linearGradient id="paint0_linear_132_373" x1="350" y1="18.9706" x2="350" y2="502.794" gradientUnits="userSpaceOnUse">
<stop stop-color="white"/>
<stop offset="1" stop-color="white" stop-opacity="0"/>
</linearGradient>
<linearGradient id="paint1_linear_132_373" x1="350" y1="125" x2="350" y2="456.471" gradientUnits="userSpaceOnUse">
<stop stop-color="white"/>
<stop offset="1" stop-color="white" stop-opacity="0"/>
</linearGradient>
<linearGradient id="paint2_linear_132_373" x1="320.981" y1="371.204" x2="291.034" y2="469.656" gradientUnits="userSpaceOnUse">
<stop stop-color="#138EFF"/>
<stop offset="1" stop-color="#00E0FF"/>
</linearGradient>
<linearGradient id="paint3_linear_132_373" x1="320.981" y1="371.204" x2="291.034" y2="469.656" gradientUnits="userSpaceOnUse">
<stop stop-color="white"/>
<stop offset="1" stop-color="white" stop-opacity="0"/>
</linearGradient>
<linearGradient id="paint4_linear_132_373" x1="439.378" y1="371.204" x2="409.43" y2="469.656" gradientUnits="userSpaceOnUse">
<stop stop-color="#138EFF"/>
<stop offset="1" stop-color="#00E0FF"/>
</linearGradient>
<linearGradient id="paint5_linear_132_373" x1="439.378" y1="371.204" x2="409.43" y2="469.656" gradientUnits="userSpaceOnUse">
<stop stop-color="white"/>
<stop offset="1" stop-color="white" stop-opacity="0"/>
</linearGradient>
<linearGradient id="paint6_linear_132_373" x1="352.222" y1="464.922" x2="322.274" y2="563.375" gradientUnits="userSpaceOnUse">
<stop stop-color="#138EFF"/>
<stop offset="1" stop-color="#00E0FF"/>
</linearGradient>
<linearGradient id="paint7_linear_132_373" x1="352.222" y1="464.922" x2="322.274" y2="563.375" gradientUnits="userSpaceOnUse">
<stop stop-color="white"/>
<stop offset="1" stop-color="white" stop-opacity="0"/>
</linearGradient>
</defs>
</svg>
