<svg width="700" height="700" viewBox="0 0 700 700" fill="none" xmlns="http://www.w3.org/2000/svg">
<g filter="url(#filter0_bd_127_367)">
<mask id="path-1-inside-1_127_367" fill="white">
<path fill-rule="evenodd" clip-rule="evenodd" d="M305.22 274.732C305.391 274.734 305.563 274.735 305.735 274.735C330.182 274.735 350 254.917 350 230.471C350 206.024 330.182 186.206 305.735 186.206C305.563 186.206 305.391 186.207 305.22 186.209V186.206H293.786C294.199 183.177 294.412 180.084 294.412 176.941C294.412 139.418 263.994 109 226.471 109C188.948 109 158.53 139.418 158.53 176.941C158.53 180.482 158.801 183.959 159.323 187.354C156.091 186.603 152.724 186.206 149.265 186.206C124.818 186.206 105 206.024 105 230.471C105 254.917 124.818 274.735 149.265 274.735C149.437 274.735 149.609 274.734 149.781 274.732L149.779 274.735H305.22V274.732Z"/>
</mask>
<path fill-rule="evenodd" clip-rule="evenodd" d="M305.22 274.732C305.391 274.734 305.563 274.735 305.735 274.735C330.182 274.735 350 254.917 350 230.471C350 206.024 330.182 186.206 305.735 186.206C305.563 186.206 305.391 186.207 305.22 186.209V186.206H293.786C294.199 183.177 294.412 180.084 294.412 176.941C294.412 139.418 263.994 109 226.471 109C188.948 109 158.53 139.418 158.53 176.941C158.53 180.482 158.801 183.959 159.323 187.354C156.091 186.603 152.724 186.206 149.265 186.206C124.818 186.206 105 206.024 105 230.471C105 254.917 124.818 274.735 149.265 274.735C149.437 274.735 149.609 274.734 149.781 274.732L149.779 274.735H305.22V274.732Z" fill="url(#paint0_linear_127_367)" shape-rendering="crispEdges"/>
<path d="M305.22 274.732L305.243 272.732C304.708 272.726 304.194 272.934 303.814 273.31C303.434 273.686 303.22 274.198 303.22 274.732H305.22ZM305.22 186.209H303.22C303.22 186.743 303.434 187.255 303.814 187.631C304.194 188.007 304.708 188.215 305.243 188.209L305.22 186.209ZM305.22 186.206H307.22C307.22 185.101 306.325 184.206 305.22 184.206V186.206ZM293.786 186.206L291.804 185.936C291.726 186.508 291.899 187.086 292.279 187.521C292.659 187.956 293.208 188.206 293.786 188.206V186.206ZM159.323 187.354L158.87 189.302C159.517 189.452 160.196 189.272 160.682 188.82C161.169 188.369 161.4 187.706 161.299 187.05L159.323 187.354ZM149.781 274.732L151.35 275.972C151.828 275.368 151.916 274.542 151.576 273.85C151.236 273.158 150.529 272.724 149.758 272.732L149.781 274.732ZM149.779 274.735L148.21 273.495C147.734 274.097 147.645 274.917 147.979 275.607C148.313 276.297 149.012 276.735 149.779 276.735V274.735ZM305.22 274.735V276.735C306.325 276.735 307.22 275.84 307.22 274.735H305.22ZM305.197 276.732C305.376 276.734 305.556 276.735 305.735 276.735V272.735C305.571 272.735 305.407 272.734 305.243 272.732L305.197 276.732ZM305.735 276.735C331.286 276.735 352 256.022 352 230.471H348C348 253.813 329.077 272.735 305.735 272.735V276.735ZM352 230.471C352 204.919 331.286 184.206 305.735 184.206V188.206C329.077 188.206 348 207.128 348 230.471H352ZM305.735 184.206C305.556 184.206 305.376 184.207 305.197 184.209L305.243 188.209C305.407 188.207 305.571 188.206 305.735 188.206V184.206ZM303.22 186.206V186.209H307.22V186.206H303.22ZM293.786 188.206H305.22V184.206H293.786V188.206ZM295.767 186.476C296.193 183.357 296.412 180.174 296.412 176.941H292.412C292.412 179.993 292.205 182.996 291.804 185.936L295.767 186.476ZM296.412 176.941C296.412 138.314 265.098 107 226.471 107V111C262.889 111 292.412 140.523 292.412 176.941H296.412ZM226.471 107C187.843 107 156.53 138.314 156.53 176.941H160.53C160.53 140.523 190.053 111 226.471 111V107ZM156.53 176.941C156.53 180.584 156.808 184.163 157.346 187.658L161.299 187.05C160.793 183.755 160.53 180.38 160.53 176.941H156.53ZM159.775 185.405C156.397 184.62 152.878 184.206 149.265 184.206V188.206C152.571 188.206 155.786 188.585 158.87 189.302L159.775 185.405ZM149.265 184.206C123.713 184.206 103 204.919 103 230.471H107C107 207.128 125.923 188.206 149.265 188.206V184.206ZM103 230.471C103 256.022 123.713 276.735 149.265 276.735V272.735C125.923 272.735 107 253.813 107 230.471H103ZM149.265 276.735C149.445 276.735 149.624 276.734 149.804 276.732L149.758 272.732C149.594 272.734 149.43 272.735 149.265 272.735V276.735ZM151.348 275.975L151.35 275.972L148.212 273.492L148.21 273.495L151.348 275.975ZM305.22 272.735H149.779V276.735H305.22V272.735ZM303.22 274.732V274.735H307.22V274.732H303.22Z" fill="url(#paint1_linear_127_367)" mask="url(#path-1-inside-1_127_367)"/>
</g>
<g filter="url(#filter1_bd_127_367)">
<mask id="path-3-inside-2_127_367" fill="white">
<path fill-rule="evenodd" clip-rule="evenodd" d="M439.026 388.182C439.263 388.185 439.5 388.186 439.738 388.186C473.566 388.186 500.988 360.764 500.988 326.936C500.988 293.109 473.566 265.686 439.738 265.686C439.5 265.686 439.263 265.687 439.026 265.69V265.686H423.203C423.774 261.494 424.07 257.215 424.07 252.866C424.07 200.945 381.979 158.855 330.058 158.855C278.137 158.855 236.046 200.945 236.046 252.866C236.046 257.766 236.421 262.577 237.143 267.274C232.672 266.235 228.014 265.686 223.227 265.686C189.399 265.686 161.977 293.109 161.977 326.936C161.977 360.764 189.399 388.186 223.227 388.186C223.465 388.186 223.704 388.185 223.942 388.182L223.939 388.186H439.026V388.182Z"/>
</mask>
<path fill-rule="evenodd" clip-rule="evenodd" d="M439.026 388.182C439.263 388.185 439.5 388.186 439.738 388.186C473.566 388.186 500.988 360.764 500.988 326.936C500.988 293.109 473.566 265.686 439.738 265.686C439.5 265.686 439.263 265.687 439.026 265.69V265.686H423.203C423.774 261.494 424.07 257.215 424.07 252.866C424.07 200.945 381.979 158.855 330.058 158.855C278.137 158.855 236.046 200.945 236.046 252.866C236.046 257.766 236.421 262.577 237.143 267.274C232.672 266.235 228.014 265.686 223.227 265.686C189.399 265.686 161.977 293.109 161.977 326.936C161.977 360.764 189.399 388.186 223.227 388.186C223.465 388.186 223.704 388.185 223.942 388.182L223.939 388.186H439.026V388.182Z" fill="url(#paint2_linear_127_367)" shape-rendering="crispEdges"/>
<path d="M439.026 388.182L439.049 386.182C438.514 386.176 438 386.384 437.62 386.76C437.24 387.136 437.026 387.648 437.026 388.182H439.026ZM439.026 265.69H437.026C437.026 266.225 437.24 266.737 437.62 267.112C438 267.488 438.514 267.696 439.049 267.69L439.026 265.69ZM439.026 265.686H441.026C441.026 264.582 440.131 263.686 439.026 263.686V265.686ZM423.203 265.686L421.221 265.416C421.143 265.988 421.316 266.566 421.696 267.001C422.076 267.436 422.625 267.686 423.203 267.686V265.686ZM237.143 267.274L236.691 269.222C237.337 269.372 238.016 269.192 238.503 268.741C238.99 268.29 239.221 267.626 239.12 266.97L237.143 267.274ZM223.942 388.182L225.512 389.421C225.989 388.816 226.077 387.991 225.737 387.299C225.397 386.608 224.69 386.173 223.919 386.182L223.942 388.182ZM223.939 388.186L222.369 386.947C221.894 387.549 221.805 388.369 222.139 389.058C222.473 389.748 223.172 390.186 223.939 390.186V388.186ZM439.026 388.186V390.186C440.131 390.186 441.026 389.291 441.026 388.186H439.026ZM439.003 390.182C439.248 390.185 439.493 390.186 439.738 390.186V386.186C439.508 386.186 439.278 386.185 439.049 386.182L439.003 390.182ZM439.738 390.186C474.67 390.186 502.988 361.868 502.988 326.936H498.988C498.988 359.659 472.461 386.186 439.738 386.186V390.186ZM502.988 326.936C502.988 292.004 474.67 263.686 439.738 263.686V267.686C472.461 267.686 498.988 294.213 498.988 326.936H502.988ZM439.738 263.686C439.493 263.686 439.248 263.688 439.003 263.69L439.049 267.69C439.278 267.687 439.508 267.686 439.738 267.686V263.686ZM437.026 265.686V265.69H441.026V265.686H437.026ZM423.203 267.686H439.026V263.686H423.203V267.686ZM425.184 265.956C425.768 261.675 426.07 257.306 426.07 252.866H422.07C422.07 257.124 421.78 261.314 421.221 265.416L425.184 265.956ZM426.07 252.866C426.07 199.841 383.084 156.855 330.058 156.855V160.855C380.875 160.855 422.07 202.05 422.07 252.866H426.07ZM330.058 156.855C277.032 156.855 234.046 199.841 234.046 252.866H238.046C238.046 202.05 279.241 160.855 330.058 160.855V156.855ZM234.046 252.866C234.046 257.868 234.429 262.781 235.167 267.578L239.12 266.97C238.413 262.373 238.046 257.663 238.046 252.866H234.046ZM237.596 265.326C232.978 264.253 228.167 263.686 223.227 263.686V267.686C227.86 267.686 232.367 268.218 236.691 269.222L237.596 265.326ZM223.227 263.686C188.295 263.686 159.977 292.004 159.977 326.936H163.977C163.977 294.213 190.504 267.686 223.227 267.686V263.686ZM159.977 326.936C159.977 361.868 188.295 390.186 223.227 390.186V386.186C190.504 386.186 163.977 359.659 163.977 326.936H159.977ZM223.227 390.186C223.473 390.186 223.719 390.185 223.965 390.182L223.919 386.182C223.689 386.185 223.458 386.186 223.227 386.186V390.186ZM225.509 389.425L225.512 389.421L222.372 386.943L222.369 386.947L225.509 389.425ZM439.026 386.186H223.939V390.186H439.026V386.186ZM437.026 388.182V388.186H441.026V388.182H437.026Z" fill="url(#paint3_linear_127_367)" mask="url(#path-3-inside-2_127_367)"/>
</g>
<g filter="url(#filter2_bd_127_367)">
<mask id="path-5-inside-3_127_367" fill="white">
<path fill-rule="evenodd" clip-rule="evenodd" d="M550.22 324.587C550.391 324.589 550.563 324.59 550.735 324.59C575.182 324.59 595 304.772 595 280.325C595 255.879 575.182 236.061 550.735 236.061C550.563 236.061 550.391 236.062 550.22 236.064V236.061H538.786C539.199 233.031 539.412 229.939 539.412 226.796C539.412 189.273 508.994 158.855 471.471 158.855C433.948 158.855 403.53 189.273 403.53 226.796C403.53 230.336 403.801 233.814 404.323 237.208C401.091 236.457 397.724 236.061 394.265 236.061C369.818 236.061 350 255.879 350 280.325C350 304.772 369.818 324.59 394.265 324.59C394.437 324.59 394.609 324.589 394.781 324.587L394.779 324.59H550.22V324.587Z"/>
</mask>
<path fill-rule="evenodd" clip-rule="evenodd" d="M550.22 324.587C550.391 324.589 550.563 324.59 550.735 324.59C575.182 324.59 595 304.772 595 280.325C595 255.879 575.182 236.061 550.735 236.061C550.563 236.061 550.391 236.062 550.22 236.064V236.061H538.786C539.199 233.031 539.412 229.939 539.412 226.796C539.412 189.273 508.994 158.855 471.471 158.855C433.948 158.855 403.53 189.273 403.53 226.796C403.53 230.336 403.801 233.814 404.323 237.208C401.091 236.457 397.724 236.061 394.265 236.061C369.818 236.061 350 255.879 350 280.325C350 304.772 369.818 324.59 394.265 324.59C394.437 324.59 394.609 324.589 394.781 324.587L394.779 324.59H550.22V324.587Z" fill="url(#paint4_linear_127_367)" shape-rendering="crispEdges"/>
<path d="M550.22 324.587L550.243 322.587C549.708 322.581 549.194 322.789 548.814 323.165C548.434 323.541 548.22 324.053 548.22 324.587H550.22ZM550.22 236.064H548.22C548.22 236.598 548.434 237.11 548.814 237.486C549.194 237.861 549.708 238.069 550.243 238.063L550.22 236.064ZM550.22 236.061H552.22C552.22 234.956 551.325 234.061 550.22 234.061V236.061ZM538.786 236.061L536.804 235.79C536.726 236.363 536.899 236.941 537.279 237.376C537.659 237.811 538.208 238.061 538.786 238.061V236.061ZM404.323 237.208L403.87 239.156C404.517 239.307 405.196 239.126 405.682 238.675C406.169 238.224 406.4 237.56 406.299 236.904L404.323 237.208ZM394.781 324.587L396.35 325.827C396.828 325.222 396.916 324.397 396.576 323.705C396.236 323.013 395.529 322.578 394.758 322.587L394.781 324.587ZM394.779 324.59L393.21 323.35C392.734 323.952 392.645 324.772 392.979 325.462C393.313 326.152 394.012 326.59 394.779 326.59V324.59ZM550.22 324.59V326.59C551.325 326.59 552.22 325.695 552.22 324.59H550.22ZM550.197 326.587C550.376 326.589 550.556 326.59 550.735 326.59V322.59C550.571 322.59 550.407 322.589 550.243 322.587L550.197 326.587ZM550.735 326.59C576.286 326.59 597 305.877 597 280.325H593C593 303.667 574.077 322.59 550.735 322.59V326.59ZM597 280.325C597 254.774 576.286 234.061 550.735 234.061V238.061C574.077 238.061 593 256.983 593 280.325H597ZM550.735 234.061C550.556 234.061 550.376 234.062 550.197 234.064L550.243 238.063C550.407 238.062 550.571 238.061 550.735 238.061V234.061ZM548.22 236.061V236.064H552.22V236.061H548.22ZM538.786 238.061H550.22V234.061H538.786V238.061ZM540.767 236.331C541.193 233.212 541.412 230.029 541.412 226.796H537.412C537.412 229.848 537.205 232.85 536.804 235.79L540.767 236.331ZM541.412 226.796C541.412 188.168 510.098 156.855 471.471 156.855V160.855C507.889 160.855 537.412 190.378 537.412 226.796H541.412ZM471.471 156.855C432.843 156.855 401.53 188.168 401.53 226.796H405.53C405.53 190.378 435.053 160.855 471.471 160.855V156.855ZM401.53 226.796C401.53 230.439 401.808 234.018 402.346 237.512L406.299 236.904C405.793 233.61 405.53 230.234 405.53 226.796H401.53ZM404.775 235.26C401.397 234.475 397.878 234.061 394.265 234.061V238.061C397.571 238.061 400.786 238.44 403.87 239.156L404.775 235.26ZM394.265 234.061C368.713 234.061 348 254.774 348 280.325H352C352 256.983 370.923 238.061 394.265 238.061V234.061ZM348 280.325C348 305.877 368.713 326.59 394.265 326.59V322.59C370.923 322.59 352 303.667 352 280.325H348ZM394.265 326.59C394.445 326.59 394.624 326.589 394.804 326.587L394.758 322.587C394.594 322.589 394.43 322.59 394.265 322.59V326.59ZM396.348 325.83L396.35 325.827L393.212 323.347L393.21 323.35L396.348 325.83ZM550.22 322.59H394.779V326.59H550.22V322.59ZM548.22 324.587V324.59H552.22V324.587H548.22Z" fill="url(#paint5_linear_127_367)" mask="url(#path-5-inside-3_127_367)"/>
</g>
<g filter="url(#filter3_bdd_127_367)">
<path d="M272.79 411.442L283.793 440.1C288.139 451.42 279.782 463.58 267.656 463.58C255.53 463.58 247.173 451.42 251.519 440.1L262.521 411.442C264.328 406.737 270.984 406.737 272.79 411.442Z" fill="url(#paint6_linear_127_367)" stroke="url(#paint7_linear_127_367)" stroke-width="3"/>
<path d="M354.704 411.442L365.707 440.1C370.053 451.42 361.696 463.58 349.57 463.58C337.444 463.58 329.087 451.42 333.433 440.1L344.435 411.442C346.242 406.737 352.898 406.737 354.704 411.442Z" fill="url(#paint8_linear_127_367)" stroke="url(#paint9_linear_127_367)" stroke-width="3"/>
<path d="M436.619 411.442L447.622 440.1C451.968 451.42 443.611 463.58 431.485 463.58C419.359 463.58 411.002 451.42 415.348 440.1L426.35 411.442C428.157 406.737 434.813 406.737 436.619 411.442Z" fill="url(#paint10_linear_127_367)" stroke="url(#paint11_linear_127_367)" stroke-width="3"/>
</g>
<g filter="url(#filter4_bdd_127_367)">
<path d="M311.248 476.282L322.251 504.94C326.597 516.26 318.24 528.42 306.114 528.42C293.988 528.42 285.631 516.26 289.977 504.94L300.979 476.282C302.786 471.578 309.442 471.578 311.248 476.282Z" fill="url(#paint12_linear_127_367)" stroke="url(#paint13_linear_127_367)" stroke-width="3"/>
<path d="M393.865 476.282L404.867 504.94C409.213 516.26 400.856 528.42 388.73 528.42C376.604 528.42 368.247 516.26 372.593 504.94L383.595 476.282C385.402 471.578 392.058 471.578 393.865 476.282Z" fill="url(#paint14_linear_127_367)" stroke="url(#paint15_linear_127_367)" stroke-width="3"/>
<path d="M353.981 538.216L364.983 566.873C369.329 578.193 360.972 590.354 348.846 590.354C336.72 590.354 328.363 578.193 332.709 566.873L343.712 538.216C345.518 533.511 352.174 533.511 353.981 538.216Z" fill="url(#paint16_linear_127_367)" stroke="url(#paint17_linear_127_367)" stroke-width="3"/>
</g>
<defs>
<filter id="filter0_bd_127_367" x="34" y="74" width="345" height="265.735" filterUnits="userSpaceOnUse" color-interpolation-filters="sRGB">
<feFlood flood-opacity="0" result="BackgroundImageFix"/>
<feGaussianBlur in="BackgroundImageFix" stdDeviation="7"/>
<feComposite in2="SourceAlpha" operator="in" result="effect1_backgroundBlur_127_367"/>
<feColorMatrix in="SourceAlpha" type="matrix" values="0 0 0 0 0 0 0 0 0 0 0 0 0 0 0 0 0 0 127 0" result="hardAlpha"/>
<feOffset dx="-21" dy="15"/>
<feGaussianBlur stdDeviation="25"/>
<feComposite in2="hardAlpha" operator="out"/>
<feColorMatrix type="matrix" values="0 0 0 0 0.113438 0 0 0 0 0.148981 0 0 0 0 0.275 0 0 0 0.25 0"/>
<feBlend mode="normal" in2="effect1_backgroundBlur_127_367" result="effect2_dropShadow_127_367"/>
<feBlend mode="normal" in="SourceGraphic" in2="effect2_dropShadow_127_367" result="shape"/>
</filter>
<filter id="filter1_bd_127_367" x="90.9766" y="123.855" width="439.012" height="329.331" filterUnits="userSpaceOnUse" color-interpolation-filters="sRGB">
<feFlood flood-opacity="0" result="BackgroundImageFix"/>
<feGaussianBlur in="BackgroundImageFix" stdDeviation="7"/>
<feComposite in2="SourceAlpha" operator="in" result="effect1_backgroundBlur_127_367"/>
<feColorMatrix in="SourceAlpha" type="matrix" values="0 0 0 0 0 0 0 0 0 0 0 0 0 0 0 0 0 0 127 0" result="hardAlpha"/>
<feOffset dx="-21" dy="15"/>
<feGaussianBlur stdDeviation="25"/>
<feComposite in2="hardAlpha" operator="out"/>
<feColorMatrix type="matrix" values="0 0 0 0 0.113725 0 0 0 0 0.14902 0 0 0 0 0.27451 0 0 0 0.25 0"/>
<feBlend mode="normal" in2="effect1_backgroundBlur_127_367" result="effect2_dropShadow_127_367"/>
<feBlend mode="normal" in="SourceGraphic" in2="effect2_dropShadow_127_367" result="shape"/>
</filter>
<filter id="filter2_bd_127_367" x="279" y="123.855" width="345" height="265.735" filterUnits="userSpaceOnUse" color-interpolation-filters="sRGB">
<feFlood flood-opacity="0" result="BackgroundImageFix"/>
<feGaussianBlur in="BackgroundImageFix" stdDeviation="7"/>
<feComposite in2="SourceAlpha" operator="in" result="effect1_backgroundBlur_127_367"/>
<feColorMatrix in="SourceAlpha" type="matrix" values="0 0 0 0 0 0 0 0 0 0 0 0 0 0 0 0 0 0 127 0" result="hardAlpha"/>
<feOffset dx="-21" dy="15"/>
<feGaussianBlur stdDeviation="25"/>
<feComposite in2="hardAlpha" operator="out"/>
<feColorMatrix type="matrix" values="0 0 0 0 0.113438 0 0 0 0 0.148981 0 0 0 0 0.275 0 0 0 0.25 0"/>
<feBlend mode="normal" in2="effect1_backgroundBlur_127_367" result="effect2_dropShadow_127_367"/>
<feBlend mode="normal" in="SourceGraphic" in2="effect2_dropShadow_127_367" result="shape"/>
</filter>
<filter id="filter3_bdd_127_367" x="177.853" y="358.414" width="313.436" height="171.667" filterUnits="userSpaceOnUse" color-interpolation-filters="sRGB">
<feFlood flood-opacity="0" result="BackgroundImageFix"/>
<feGaussianBlur in="BackgroundImageFix" stdDeviation="7"/>
<feComposite in2="SourceAlpha" operator="in" result="effect1_backgroundBlur_127_367"/>
<feColorMatrix in="SourceAlpha" type="matrix" values="0 0 0 0 0 0 0 0 0 0 0 0 0 0 0 0 0 0 127 0" result="hardAlpha"/>
<feOffset dx="-21" dy="15"/>
<feGaussianBlur stdDeviation="25"/>
<feComposite in2="hardAlpha" operator="out"/>
<feColorMatrix type="matrix" values="0 0 0 0 0.113438 0 0 0 0 0.148981 0 0 0 0 0.275 0 0 0 0.25 0"/>
<feBlend mode="normal" in2="effect1_backgroundBlur_127_367" result="effect2_dropShadow_127_367"/>
<feColorMatrix in="SourceAlpha" type="matrix" values="0 0 0 0 0 0 0 0 0 0 0 0 0 0 0 0 0 0 127 0" result="hardAlpha"/>
<feOffset dy="-7"/>
<feGaussianBlur stdDeviation="20.5"/>
<feComposite in2="hardAlpha" operator="out"/>
<feColorMatrix type="matrix" values="0 0 0 0 0.1375 0 0 0 0 0.74125 0 0 0 0 1 0 0 0 0.3 0"/>
<feBlend mode="normal" in2="effect2_dropShadow_127_367" result="effect3_dropShadow_127_367"/>
<feBlend mode="normal" in="SourceGraphic" in2="effect3_dropShadow_127_367" result="shape"/>
</filter>
<filter id="filter4_bdd_127_367" x="216.311" y="423.254" width="232.223" height="233.6" filterUnits="userSpaceOnUse" color-interpolation-filters="sRGB">
<feFlood flood-opacity="0" result="BackgroundImageFix"/>
<feGaussianBlur in="BackgroundImageFix" stdDeviation="7"/>
<feComposite in2="SourceAlpha" operator="in" result="effect1_backgroundBlur_127_367"/>
<feColorMatrix in="SourceAlpha" type="matrix" values="0 0 0 0 0 0 0 0 0 0 0 0 0 0 0 0 0 0 127 0" result="hardAlpha"/>
<feOffset dx="-21" dy="15"/>
<feGaussianBlur stdDeviation="25"/>
<feComposite in2="hardAlpha" operator="out"/>
<feColorMatrix type="matrix" values="0 0 0 0 0.113438 0 0 0 0 0.148981 0 0 0 0 0.275 0 0 0 0.25 0"/>
<feBlend mode="normal" in2="effect1_backgroundBlur_127_367" result="effect2_dropShadow_127_367"/>
<feColorMatrix in="SourceAlpha" type="matrix" values="0 0 0 0 0 0 0 0 0 0 0 0 0 0 0 0 0 0 127 0" result="hardAlpha"/>
<feOffset dy="-7"/>
<feGaussianBlur stdDeviation="20.5"/>
<feComposite in2="hardAlpha" operator="out"/>
<feColorMatrix type="matrix" values="0 0 0 0 0.1375 0 0 0 0 0.74125 0 0 0 0 1 0 0 0 0.3 0"/>
<feBlend mode="normal" in2="effect2_dropShadow_127_367" result="effect3_dropShadow_127_367"/>
<feBlend mode="normal" in="SourceGraphic" in2="effect3_dropShadow_127_367" result="shape"/>
</filter>
<linearGradient id="paint0_linear_127_367" x1="238.895" y1="113.985" x2="238.895" y2="293.462" gradientUnits="userSpaceOnUse">
<stop stop-color="white"/>
<stop offset="1" stop-color="white" stop-opacity="0"/>
</linearGradient>
<linearGradient id="paint1_linear_127_367" x1="227.5" y1="109" x2="227.5" y2="274.735" gradientUnits="userSpaceOnUse">
<stop stop-color="white"/>
<stop offset="1" stop-color="white" stop-opacity="0"/>
</linearGradient>
<linearGradient id="paint2_linear_127_367" x1="331.482" y1="85.4972" x2="331.482" y2="420.236" gradientUnits="userSpaceOnUse">
<stop stop-color="white"/>
<stop offset="1" stop-color="white" stop-opacity="0"/>
</linearGradient>
<linearGradient id="paint3_linear_127_367" x1="331.482" y1="158.855" x2="331.482" y2="388.186" gradientUnits="userSpaceOnUse">
<stop stop-color="white"/>
<stop offset="1" stop-color="white" stop-opacity="0"/>
</linearGradient>
<linearGradient id="paint4_linear_127_367" x1="483.895" y1="163.84" x2="483.895" y2="343.317" gradientUnits="userSpaceOnUse">
<stop stop-color="white"/>
<stop offset="1" stop-color="white" stop-opacity="0"/>
</linearGradient>
<linearGradient id="paint5_linear_127_367" x1="472.5" y1="158.855" x2="472.5" y2="324.59" gradientUnits="userSpaceOnUse">
<stop stop-color="white"/>
<stop offset="1" stop-color="white" stop-opacity="0"/>
</linearGradient>
<linearGradient id="paint6_linear_127_367" x1="267.656" y1="393.884" x2="267.656" y2="465.08" gradientUnits="userSpaceOnUse">
<stop stop-color="#138EFF"/>
<stop offset="1" stop-color="#00E0FF"/>
</linearGradient>
<linearGradient id="paint7_linear_127_367" x1="267.656" y1="393.884" x2="267.656" y2="465.08" gradientUnits="userSpaceOnUse">
<stop stop-color="white"/>
<stop offset="1" stop-color="white" stop-opacity="0"/>
</linearGradient>
<linearGradient id="paint8_linear_127_367" x1="349.57" y1="393.884" x2="349.57" y2="465.08" gradientUnits="userSpaceOnUse">
<stop stop-color="#138EFF"/>
<stop offset="1" stop-color="#00E0FF"/>
</linearGradient>
<linearGradient id="paint9_linear_127_367" x1="349.57" y1="393.884" x2="349.57" y2="465.08" gradientUnits="userSpaceOnUse">
<stop stop-color="white"/>
<stop offset="1" stop-color="white" stop-opacity="0"/>
</linearGradient>
<linearGradient id="paint10_linear_127_367" x1="431.485" y1="393.884" x2="431.485" y2="465.08" gradientUnits="userSpaceOnUse">
<stop stop-color="#138EFF"/>
<stop offset="1" stop-color="#00E0FF"/>
</linearGradient>
<linearGradient id="paint11_linear_127_367" x1="431.485" y1="393.884" x2="431.485" y2="465.08" gradientUnits="userSpaceOnUse">
<stop stop-color="white"/>
<stop offset="1" stop-color="white" stop-opacity="0"/>
</linearGradient>
<linearGradient id="paint12_linear_127_367" x1="306.114" y1="458.724" x2="306.114" y2="529.92" gradientUnits="userSpaceOnUse">
<stop stop-color="#138EFF"/>
<stop offset="1" stop-color="#00E0FF"/>
</linearGradient>
<linearGradient id="paint13_linear_127_367" x1="306.114" y1="458.724" x2="306.114" y2="529.92" gradientUnits="userSpaceOnUse">
<stop stop-color="white"/>
<stop offset="1" stop-color="white" stop-opacity="0"/>
</linearGradient>
<linearGradient id="paint14_linear_127_367" x1="388.73" y1="458.724" x2="388.73" y2="529.92" gradientUnits="userSpaceOnUse">
<stop stop-color="#138EFF"/>
<stop offset="1" stop-color="#00E0FF"/>
</linearGradient>
<linearGradient id="paint15_linear_127_367" x1="388.73" y1="458.724" x2="388.73" y2="529.92" gradientUnits="userSpaceOnUse">
<stop stop-color="white"/>
<stop offset="1" stop-color="white" stop-opacity="0"/>
</linearGradient>
<linearGradient id="paint16_linear_127_367" x1="348.846" y1="520.657" x2="348.846" y2="591.854" gradientUnits="userSpaceOnUse">
<stop stop-color="#138EFF"/>
<stop offset="1" stop-color="#00E0FF"/>
</linearGradient>
<linearGradient id="paint17_linear_127_367" x1="348.846" y1="520.657" x2="348.846" y2="591.854" gradientUnits="userSpaceOnUse">
<stop stop-color="white"/>
<stop offset="1" stop-color="white" stop-opacity="0"/>
</linearGradient>
</defs>
</svg>
