<svg width="700" height="700" viewBox="0 0 700 700" fill="none" xmlns="http://www.w3.org/2000/svg">
<g filter="url(#filter0_bdd_134_2026)">
<path d="M227.505 432.827L305.911 289.344C306.262 288.702 306.935 288.303 307.666 288.303H386.184C387.688 288.303 388.653 289.899 387.956 291.231L337.833 386.921C337.135 388.252 338.101 389.849 339.604 389.849H403.553C405.281 389.849 406.196 391.894 405.043 393.182L236.999 580.997C235.524 582.645 232.861 581.035 233.635 578.963L286.129 438.486C286.617 437.179 285.651 435.786 284.255 435.786H229.26C227.741 435.786 226.776 434.16 227.505 432.827Z" fill="url(#paint0_linear_134_2026)"/>
<path d="M228.382 433.307L306.788 289.823L305.915 289.346L306.789 289.823C306.964 289.502 307.3 289.303 307.666 289.303H386.184C386.936 289.303 387.419 290.101 387.07 290.767L336.947 386.457C335.9 388.454 337.349 390.849 339.604 390.849H403.553C404.417 390.849 404.874 391.871 404.298 392.516L236.254 580.33C235.516 581.154 234.184 580.349 234.572 579.313L287.065 438.836C287.798 436.876 286.348 434.786 284.255 434.786H229.26C228.5 434.786 228.018 433.973 228.382 433.307Z" stroke="url(#paint1_linear_134_2026)" stroke-width="2"/>
</g>
<g filter="url(#filter1_bd_134_2026)">
<mask id="path-3-inside-1_134_2026" fill="white">
<path fill-rule="evenodd" clip-rule="evenodd" d="M418.503 370.502C418.772 370.505 419.04 370.507 419.309 370.507C457.588 370.507 488.618 339.476 488.618 301.197C488.618 262.919 457.588 231.888 419.309 231.888C419.04 231.888 418.772 231.89 418.503 231.893V231.888H400.598C401.245 227.145 401.579 222.302 401.579 217.382C401.579 158.629 353.95 111 295.197 111C236.444 111 188.816 158.629 188.816 217.382C188.816 222.925 189.24 228.37 190.057 233.685C184.998 232.51 179.726 231.888 174.309 231.888C136.031 231.888 105 262.919 105 301.197C105 339.476 136.031 370.507 174.309 370.507C174.579 370.507 174.849 370.505 175.119 370.502L175.115 370.507H418.503V370.502Z"/>
</mask>
<path fill-rule="evenodd" clip-rule="evenodd" d="M418.503 370.502C418.772 370.505 419.04 370.507 419.309 370.507C457.588 370.507 488.618 339.476 488.618 301.197C488.618 262.919 457.588 231.888 419.309 231.888C419.04 231.888 418.772 231.89 418.503 231.893V231.888H400.598C401.245 227.145 401.579 222.302 401.579 217.382C401.579 158.629 353.95 111 295.197 111C236.444 111 188.816 158.629 188.816 217.382C188.816 222.925 189.24 228.37 190.057 233.685C184.998 232.51 179.726 231.888 174.309 231.888C136.031 231.888 105 262.919 105 301.197C105 339.476 136.031 370.507 174.309 370.507C174.579 370.507 174.849 370.505 175.119 370.502L175.115 370.507H418.503V370.502Z" fill="url(#paint2_linear_134_2026)" shape-rendering="crispEdges"/>
<path d="M418.503 370.502L418.526 368.502C417.992 368.496 417.477 368.704 417.097 369.08C416.717 369.455 416.503 369.968 416.503 370.502H418.503ZM418.503 231.893H416.503C416.503 232.427 416.717 232.939 417.097 233.315C417.477 233.691 417.992 233.899 418.526 233.893L418.503 231.893ZM418.503 231.888H420.503C420.503 230.784 419.608 229.888 418.503 229.888V231.888ZM400.598 231.888L398.616 231.618C398.538 232.19 398.712 232.768 399.091 233.203C399.471 233.638 400.021 233.888 400.598 233.888V231.888ZM190.057 233.685L189.605 235.633C190.251 235.783 190.93 235.603 191.417 235.152C191.904 234.701 192.135 234.037 192.034 233.381L190.057 233.685ZM175.119 370.502L176.69 371.74C177.166 371.135 177.253 370.31 176.913 369.619C176.573 368.928 175.866 368.493 175.096 368.502L175.119 370.502ZM175.115 370.507L173.544 369.269C173.07 369.871 172.981 370.69 173.316 371.38C173.65 372.069 174.349 372.507 175.115 372.507V370.507ZM418.503 370.507V372.507C419.608 372.507 420.503 371.611 420.503 370.507H418.503ZM418.481 372.502C418.756 372.505 419.033 372.507 419.309 372.507V368.507C419.048 368.507 418.787 368.505 418.526 368.502L418.481 372.502ZM419.309 372.507C458.692 372.507 490.618 340.58 490.618 301.197H486.618C486.618 338.371 456.483 368.507 419.309 368.507V372.507ZM490.618 301.197C490.618 261.814 458.692 229.888 419.309 229.888V233.888C456.483 233.888 486.618 264.024 486.618 301.197H490.618ZM419.309 229.888C419.033 229.888 418.756 229.89 418.48 229.893L418.526 233.893C418.787 233.89 419.048 233.888 419.309 233.888V229.888ZM416.503 231.888V231.893H420.503V231.888H416.503ZM400.598 233.888H418.503V229.888H400.598V233.888ZM402.58 232.158C403.239 227.326 403.579 222.393 403.579 217.382H399.579C399.579 222.212 399.251 226.964 398.616 231.618L402.58 232.158ZM403.579 217.382C403.579 157.524 355.055 109 295.197 109V113C352.846 113 399.579 159.733 399.579 217.382H403.579ZM295.197 109C235.34 109 186.816 157.524 186.816 217.382H190.816C190.816 159.733 237.549 113 295.197 113V109ZM186.816 217.382C186.816 223.027 187.248 228.574 188.081 233.989L192.034 233.381C191.232 228.166 190.816 222.823 190.816 217.382H186.816ZM190.51 231.737C185.303 230.527 179.88 229.888 174.309 229.888V233.888C179.573 233.888 184.693 234.492 189.605 235.633L190.51 231.737ZM174.309 229.888C134.926 229.888 103 261.814 103 301.197H107C107 264.024 137.135 233.888 174.309 233.888V229.888ZM103 301.197C103 340.58 134.926 372.507 174.309 372.507V368.507C137.135 368.507 107 338.371 107 301.197H103ZM174.309 372.507C174.587 372.507 174.865 372.505 175.142 372.502L175.096 368.502C174.834 368.505 174.572 368.507 174.309 368.507V372.507ZM176.686 371.744L176.69 371.74L173.548 369.264L173.544 369.269L176.686 371.744ZM418.503 368.507H175.115V372.507H418.503V368.507ZM416.503 370.502V370.507H420.503V370.502H416.503Z" fill="url(#paint3_linear_134_2026)" mask="url(#path-3-inside-1_134_2026)"/>
</g>
<g filter="url(#filter2_bd_134_2026)">
<mask id="path-5-inside-2_134_2026" fill="white">
<path fill-rule="evenodd" clip-rule="evenodd" d="M544.328 298.539C544.522 298.541 544.717 298.543 544.911 298.543C572.575 298.543 595 276.117 595 248.454C595 220.79 572.575 198.365 544.911 198.365C544.717 198.365 544.522 198.366 544.328 198.368V198.365H531.39C531.857 194.937 532.098 191.437 532.098 187.881C532.098 145.421 497.678 111 455.218 111C412.758 111 378.337 145.421 378.337 187.881C378.337 191.887 378.643 195.822 379.234 199.663C375.578 198.814 371.768 198.365 367.853 198.365C340.189 198.365 317.764 220.79 317.764 248.454C317.764 276.117 340.189 298.543 367.853 298.543C368.048 298.543 368.242 298.541 368.437 298.539L368.434 298.543H544.328V298.539Z"/>
</mask>
<path fill-rule="evenodd" clip-rule="evenodd" d="M544.328 298.539C544.522 298.541 544.717 298.543 544.911 298.543C572.575 298.543 595 276.117 595 248.454C595 220.79 572.575 198.365 544.911 198.365C544.717 198.365 544.522 198.366 544.328 198.368V198.365H531.39C531.857 194.937 532.098 191.437 532.098 187.881C532.098 145.421 497.678 111 455.218 111C412.758 111 378.337 145.421 378.337 187.881C378.337 191.887 378.643 195.822 379.234 199.663C375.578 198.814 371.768 198.365 367.853 198.365C340.189 198.365 317.764 220.79 317.764 248.454C317.764 276.117 340.189 298.543 367.853 298.543C368.048 298.543 368.242 298.541 368.437 298.539L368.434 298.543H544.328V298.539Z" fill="url(#paint4_linear_134_2026)" shape-rendering="crispEdges"/>
<path d="M544.328 298.539L544.351 296.539C543.817 296.533 543.302 296.741 542.922 297.117C542.542 297.493 542.328 298.005 542.328 298.539H544.328ZM544.328 198.368H542.328C542.328 198.902 542.542 199.414 542.922 199.79C543.302 200.166 543.817 200.374 544.351 200.368L544.328 198.368ZM544.328 198.365H546.328C546.328 197.26 545.433 196.365 544.328 196.365V198.365ZM531.39 198.365L529.408 198.094C529.33 198.667 529.503 199.245 529.883 199.68C530.263 200.115 530.812 200.365 531.39 200.365V198.365ZM379.234 199.663L378.781 201.611C379.428 201.762 380.107 201.581 380.594 201.13C381.081 200.679 381.312 200.015 381.211 199.359L379.234 199.663ZM368.437 298.539L370.008 299.777C370.485 299.172 370.572 298.347 370.231 297.656C369.891 296.965 369.184 296.531 368.414 296.539L368.437 298.539ZM368.434 298.543L366.863 297.305C366.389 297.907 366.301 298.726 366.635 299.416C366.969 300.105 367.668 300.543 368.434 300.543V298.543ZM544.328 298.543V300.543C545.433 300.543 546.328 299.647 546.328 298.543H544.328ZM544.306 300.539C544.507 300.541 544.709 300.543 544.911 300.543V296.543C544.724 296.543 544.538 296.541 544.351 296.539L544.306 300.539ZM544.911 300.543C573.679 300.543 597 277.221 597 248.454H593C593 275.012 571.47 296.543 544.911 296.543V300.543ZM597 248.454C597 219.686 573.679 196.365 544.911 196.365V200.365C571.47 200.365 593 221.895 593 248.454H597ZM544.911 196.365C544.709 196.365 544.507 196.366 544.306 196.368L544.351 200.368C544.538 200.366 544.724 200.365 544.911 200.365V196.365ZM542.328 198.365V198.368H546.328V198.365H542.328ZM531.39 200.365H544.328V196.365H531.39V200.365ZM533.371 198.635C533.851 195.118 534.098 191.528 534.098 187.881H530.098C530.098 191.346 529.863 194.756 529.408 198.094L533.371 198.635ZM534.098 187.881C534.098 144.316 498.782 109 455.218 109V113C496.573 113 530.098 146.525 530.098 187.881H534.098ZM455.218 109C411.653 109 376.337 144.316 376.337 187.881H380.337C380.337 146.525 413.862 113 455.218 113V109ZM376.337 187.881C376.337 191.989 376.651 196.026 377.257 199.967L381.211 199.359C380.635 195.618 380.337 191.785 380.337 187.881H376.337ZM379.687 197.715C375.883 196.831 371.921 196.365 367.853 196.365V200.365C371.614 200.365 375.272 200.796 378.781 201.611L379.687 197.715ZM367.853 196.365C339.085 196.365 315.764 219.686 315.764 248.454H319.764C319.764 221.895 341.294 200.365 367.853 200.365V196.365ZM315.764 248.454C315.764 277.221 339.085 300.543 367.853 300.543V296.543C341.294 296.543 319.764 275.012 319.764 248.454H315.764ZM367.853 300.543C368.055 300.543 368.258 300.541 368.46 300.539L368.414 296.539C368.227 296.541 368.04 296.543 367.853 296.543V300.543ZM370.005 299.78L370.008 299.777L366.866 297.301L366.863 297.305L370.005 299.78ZM544.328 296.543H368.434V300.543H544.328V296.543ZM542.328 298.539V298.543H546.328V298.539H542.328Z" fill="url(#paint5_linear_134_2026)" mask="url(#path-5-inside-2_134_2026)"/>
</g>
<defs>
<filter id="filter0_bdd_134_2026" x="156.257" y="227.303" width="310.3" height="419.374" filterUnits="userSpaceOnUse" color-interpolation-filters="sRGB">
<feFlood flood-opacity="0" result="BackgroundImageFix"/>
<feGaussianBlur in="BackgroundImageFix" stdDeviation="7"/>
<feComposite in2="SourceAlpha" operator="in" result="effect1_backgroundBlur_134_2026"/>
<feColorMatrix in="SourceAlpha" type="matrix" values="0 0 0 0 0 0 0 0 0 0 0 0 0 0 0 0 0 0 127 0" result="hardAlpha"/>
<feOffset dx="-21" dy="15"/>
<feGaussianBlur stdDeviation="25"/>
<feComposite in2="hardAlpha" operator="out"/>
<feColorMatrix type="matrix" values="0 0 0 0 0.113438 0 0 0 0 0.148981 0 0 0 0 0.275 0 0 0 0.25 0"/>
<feBlend mode="normal" in2="effect1_backgroundBlur_134_2026" result="effect2_dropShadow_134_2026"/>
<feColorMatrix in="SourceAlpha" type="matrix" values="0 0 0 0 0 0 0 0 0 0 0 0 0 0 0 0 0 0 127 0" result="hardAlpha"/>
<feOffset/>
<feGaussianBlur stdDeviation="30.5"/>
<feComposite in2="hardAlpha" operator="out"/>
<feColorMatrix type="matrix" values="0 0 0 0 1 0 0 0 0 0.721569 0 0 0 0 0.00392157 0 0 0 0.49 0"/>
<feBlend mode="normal" in2="effect2_dropShadow_134_2026" result="effect3_dropShadow_134_2026"/>
<feBlend mode="normal" in="SourceGraphic" in2="effect3_dropShadow_134_2026" result="shape"/>
</filter>
<filter id="filter1_bd_134_2026" x="34" y="76" width="483.618" height="359.507" filterUnits="userSpaceOnUse" color-interpolation-filters="sRGB">
<feFlood flood-opacity="0" result="BackgroundImageFix"/>
<feGaussianBlur in="BackgroundImageFix" stdDeviation="7"/>
<feComposite in2="SourceAlpha" operator="in" result="effect1_backgroundBlur_134_2026"/>
<feColorMatrix in="SourceAlpha" type="matrix" values="0 0 0 0 0 0 0 0 0 0 0 0 0 0 0 0 0 0 127 0" result="hardAlpha"/>
<feOffset dx="-21" dy="15"/>
<feGaussianBlur stdDeviation="25"/>
<feComposite in2="hardAlpha" operator="out"/>
<feColorMatrix type="matrix" values="0 0 0 0 0.113725 0 0 0 0 0.14902 0 0 0 0 0.27451 0 0 0 0.25 0"/>
<feBlend mode="normal" in2="effect1_backgroundBlur_134_2026" result="effect2_dropShadow_134_2026"/>
<feBlend mode="normal" in="SourceGraphic" in2="effect2_dropShadow_134_2026" result="shape"/>
</filter>
<filter id="filter2_bd_134_2026" x="246.764" y="76" width="377.236" height="287.542" filterUnits="userSpaceOnUse" color-interpolation-filters="sRGB">
<feFlood flood-opacity="0" result="BackgroundImageFix"/>
<feGaussianBlur in="BackgroundImageFix" stdDeviation="7"/>
<feComposite in2="SourceAlpha" operator="in" result="effect1_backgroundBlur_134_2026"/>
<feColorMatrix in="SourceAlpha" type="matrix" values="0 0 0 0 0 0 0 0 0 0 0 0 0 0 0 0 0 0 127 0" result="hardAlpha"/>
<feOffset dx="-21" dy="15"/>
<feGaussianBlur stdDeviation="25"/>
<feComposite in2="hardAlpha" operator="out"/>
<feColorMatrix type="matrix" values="0 0 0 0 0.113438 0 0 0 0 0.148981 0 0 0 0 0.275 0 0 0 0.25 0"/>
<feBlend mode="normal" in2="effect1_backgroundBlur_134_2026" result="effect2_dropShadow_134_2026"/>
<feBlend mode="normal" in="SourceGraphic" in2="effect2_dropShadow_134_2026" result="shape"/>
</filter>
<linearGradient id="paint0_linear_134_2026" x1="334.687" y1="306.033" x2="294.391" y2="480.918" gradientUnits="userSpaceOnUse">
<stop stop-color="#FF4D00"/>
<stop offset="1" stop-color="#FFB800"/>
</linearGradient>
<linearGradient id="paint1_linear_134_2026" x1="280.69" y1="478.5" x2="354.029" y2="321.345" gradientUnits="userSpaceOnUse">
<stop stop-color="white"/>
<stop offset="1" stop-color="white" stop-opacity="0"/>
</linearGradient>
<linearGradient id="paint2_linear_134_2026" x1="296.809" y1="27.9901" x2="296.809" y2="406.773" gradientUnits="userSpaceOnUse">
<stop stop-color="white"/>
<stop offset="1" stop-color="white" stop-opacity="0"/>
</linearGradient>
<linearGradient id="paint3_linear_134_2026" x1="296.809" y1="111" x2="296.809" y2="370.507" gradientUnits="userSpaceOnUse">
<stop stop-color="white"/>
<stop offset="1" stop-color="white" stop-opacity="0"/>
</linearGradient>
<linearGradient id="paint4_linear_134_2026" x1="469.277" y1="116.641" x2="469.277" y2="319.734" gradientUnits="userSpaceOnUse">
<stop stop-color="white"/>
<stop offset="1" stop-color="white" stop-opacity="0"/>
</linearGradient>
<linearGradient id="paint5_linear_134_2026" x1="456.382" y1="111" x2="456.382" y2="298.543" gradientUnits="userSpaceOnUse">
<stop stop-color="white"/>
<stop offset="1" stop-color="white" stop-opacity="0"/>
</linearGradient>
</defs>
</svg>
