<svg width="700" height="700" viewBox="0 0 700 700" fill="none" xmlns="http://www.w3.org/2000/svg">
<g filter="url(#filter0_bd_134_2039)">
<mask id="path-1-inside-1_134_2039" fill="white">
<path fill-rule="evenodd" clip-rule="evenodd" d="M305.22 295.732C305.391 295.734 305.563 295.735 305.735 295.735C330.182 295.735 350 275.917 350 251.471C350 227.024 330.182 207.206 305.735 207.206C305.563 207.206 305.391 207.207 305.22 207.209V207.206H293.786C294.199 204.177 294.412 201.084 294.412 197.941C294.412 160.418 263.994 130 226.471 130C188.948 130 158.53 160.418 158.53 197.941C158.53 201.482 158.801 204.959 159.323 208.354C156.091 207.603 152.724 207.206 149.265 207.206C124.818 207.206 105 227.024 105 251.471C105 275.917 124.818 295.735 149.265 295.735C149.437 295.735 149.609 295.734 149.781 295.732L149.779 295.735H305.22V295.732Z"/>
</mask>
<path fill-rule="evenodd" clip-rule="evenodd" d="M305.22 295.732C305.391 295.734 305.563 295.735 305.735 295.735C330.182 295.735 350 275.917 350 251.471C350 227.024 330.182 207.206 305.735 207.206C305.563 207.206 305.391 207.207 305.22 207.209V207.206H293.786C294.199 204.177 294.412 201.084 294.412 197.941C294.412 160.418 263.994 130 226.471 130C188.948 130 158.53 160.418 158.53 197.941C158.53 201.482 158.801 204.959 159.323 208.354C156.091 207.603 152.724 207.206 149.265 207.206C124.818 207.206 105 227.024 105 251.471C105 275.917 124.818 295.735 149.265 295.735C149.437 295.735 149.609 295.734 149.781 295.732L149.779 295.735H305.22V295.732Z" fill="url(#paint0_linear_134_2039)" shape-rendering="crispEdges"/>
<path d="M305.22 295.732L305.243 293.732C304.708 293.726 304.194 293.934 303.814 294.31C303.434 294.686 303.22 295.198 303.22 295.732H305.22ZM305.22 207.209H303.22C303.22 207.743 303.434 208.255 303.814 208.631C304.194 209.007 304.708 209.215 305.243 209.209L305.22 207.209ZM305.22 207.206H307.22C307.22 206.101 306.325 205.206 305.22 205.206V207.206ZM293.786 207.206L291.804 206.936C291.726 207.508 291.899 208.086 292.279 208.521C292.659 208.956 293.208 209.206 293.786 209.206V207.206ZM159.323 208.354L158.87 210.302C159.517 210.452 160.196 210.272 160.682 209.82C161.169 209.369 161.4 208.706 161.299 208.05L159.323 208.354ZM149.781 295.732L151.35 296.972C151.828 296.368 151.916 295.542 151.576 294.85C151.236 294.158 150.529 293.724 149.758 293.732L149.781 295.732ZM149.779 295.735L148.21 294.495C147.734 295.097 147.645 295.917 147.979 296.607C148.313 297.297 149.012 297.735 149.779 297.735V295.735ZM305.22 295.735V297.735C306.325 297.735 307.22 296.84 307.22 295.735H305.22ZM305.197 297.732C305.376 297.734 305.556 297.735 305.735 297.735V293.735C305.571 293.735 305.407 293.734 305.243 293.732L305.197 297.732ZM305.735 297.735C331.286 297.735 352 277.022 352 251.471H348C348 274.813 329.077 293.735 305.735 293.735V297.735ZM352 251.471C352 225.919 331.286 205.206 305.735 205.206V209.206C329.077 209.206 348 228.128 348 251.471H352ZM305.735 205.206C305.556 205.206 305.376 205.207 305.197 205.209L305.243 209.209C305.407 209.207 305.571 209.206 305.735 209.206V205.206ZM303.22 207.206V207.209H307.22V207.206H303.22ZM293.786 209.206H305.22V205.206H293.786V209.206ZM295.767 207.476C296.193 204.357 296.412 201.174 296.412 197.941H292.412C292.412 200.993 292.205 203.996 291.804 206.936L295.767 207.476ZM296.412 197.941C296.412 159.314 265.098 128 226.471 128V132C262.889 132 292.412 161.523 292.412 197.941H296.412ZM226.471 128C187.843 128 156.53 159.314 156.53 197.941H160.53C160.53 161.523 190.053 132 226.471 132V128ZM156.53 197.941C156.53 201.584 156.808 205.163 157.346 208.658L161.299 208.05C160.793 204.755 160.53 201.38 160.53 197.941H156.53ZM159.775 206.405C156.397 205.62 152.878 205.206 149.265 205.206V209.206C152.571 209.206 155.786 209.585 158.87 210.302L159.775 206.405ZM149.265 205.206C123.713 205.206 103 225.919 103 251.471H107C107 228.128 125.923 209.206 149.265 209.206V205.206ZM103 251.471C103 277.022 123.713 297.735 149.265 297.735V293.735C125.923 293.735 107 274.813 107 251.471H103ZM149.265 297.735C149.445 297.735 149.624 297.734 149.804 297.732L149.758 293.732C149.594 293.734 149.43 293.735 149.265 293.735V297.735ZM151.348 296.975L151.35 296.972L148.212 294.492L148.21 294.495L151.348 296.975ZM305.22 293.735H149.779V297.735H305.22V293.735ZM303.22 295.732V295.735H307.22V295.732H303.22Z" fill="url(#paint1_linear_134_2039)" mask="url(#path-1-inside-1_134_2039)"/>
</g>
<g filter="url(#filter1_bd_134_2039)">
<mask id="path-3-inside-2_134_2039" fill="white">
<path fill-rule="evenodd" clip-rule="evenodd" d="M439.026 409.182C439.263 409.185 439.5 409.186 439.738 409.186C473.566 409.186 500.988 381.763 500.988 347.936C500.988 314.109 473.566 286.686 439.738 286.686C439.5 286.686 439.263 286.687 439.026 286.69V286.686H423.203C423.774 282.494 424.07 278.215 424.07 273.866C424.07 221.945 381.979 179.855 330.058 179.855C278.137 179.855 236.046 221.945 236.046 273.866C236.046 278.765 236.421 283.577 237.143 288.274C232.672 287.235 228.014 286.686 223.227 286.686C189.399 286.686 161.977 314.109 161.977 347.936C161.977 381.763 189.399 409.186 223.227 409.186C223.465 409.186 223.704 409.185 223.942 409.182L223.939 409.186H439.026V409.182Z"/>
</mask>
<path fill-rule="evenodd" clip-rule="evenodd" d="M439.026 409.182C439.263 409.185 439.5 409.186 439.738 409.186C473.566 409.186 500.988 381.763 500.988 347.936C500.988 314.109 473.566 286.686 439.738 286.686C439.5 286.686 439.263 286.687 439.026 286.69V286.686H423.203C423.774 282.494 424.07 278.215 424.07 273.866C424.07 221.945 381.979 179.855 330.058 179.855C278.137 179.855 236.046 221.945 236.046 273.866C236.046 278.765 236.421 283.577 237.143 288.274C232.672 287.235 228.014 286.686 223.227 286.686C189.399 286.686 161.977 314.109 161.977 347.936C161.977 381.763 189.399 409.186 223.227 409.186C223.465 409.186 223.704 409.185 223.942 409.182L223.939 409.186H439.026V409.182Z" fill="url(#paint2_linear_134_2039)" shape-rendering="crispEdges"/>
<path d="M439.026 409.182L439.049 407.182C438.514 407.176 438 407.384 437.62 407.76C437.24 408.135 437.026 408.648 437.026 409.182H439.026ZM439.026 286.69H437.026C437.026 287.224 437.24 287.737 437.62 288.112C438 288.488 438.514 288.696 439.049 288.69L439.026 286.69ZM439.026 286.686H441.026C441.026 285.581 440.131 284.686 439.026 284.686V286.686ZM423.203 286.686L421.221 286.416C421.143 286.988 421.316 287.566 421.696 288.001C422.076 288.436 422.625 288.686 423.203 288.686V286.686ZM237.143 288.274L236.691 290.222C237.337 290.372 238.016 290.192 238.503 289.741C238.99 289.289 239.221 288.626 239.12 287.97L237.143 288.274ZM223.942 409.182L225.512 410.421C225.989 409.816 226.077 408.991 225.737 408.299C225.397 407.608 224.69 407.173 223.919 407.182L223.942 409.182ZM223.939 409.186L222.369 407.947C221.894 408.549 221.805 409.369 222.139 410.058C222.473 410.748 223.172 411.186 223.939 411.186V409.186ZM439.026 409.186V411.186C440.131 411.186 441.026 410.291 441.026 409.186H439.026ZM439.003 411.182C439.248 411.185 439.493 411.186 439.738 411.186V407.186C439.508 407.186 439.278 407.185 439.049 407.182L439.003 411.182ZM439.738 411.186C474.67 411.186 502.988 382.868 502.988 347.936H498.988C498.988 380.659 472.461 407.186 439.738 407.186V411.186ZM502.988 347.936C502.988 313.004 474.67 284.686 439.738 284.686V288.686C472.461 288.686 498.988 315.213 498.988 347.936H502.988ZM439.738 284.686C439.493 284.686 439.248 284.687 439.003 284.69L439.049 288.69C439.278 288.687 439.508 288.686 439.738 288.686V284.686ZM437.026 286.686V286.69H441.026V286.686H437.026ZM423.203 288.686H439.026V284.686H423.203V288.686ZM425.184 286.956C425.768 282.675 426.07 278.305 426.07 273.866H422.07C422.07 278.124 421.78 282.313 421.221 286.416L425.184 286.956ZM426.07 273.866C426.07 220.84 383.084 177.855 330.058 177.855V181.855C380.875 181.855 422.07 223.05 422.07 273.866H426.07ZM330.058 177.855C277.032 177.855 234.046 220.84 234.046 273.866H238.046C238.046 223.05 279.241 181.855 330.058 181.855V177.855ZM234.046 273.866C234.046 278.868 234.429 283.781 235.167 288.578L239.12 287.97C238.413 283.373 238.046 278.663 238.046 273.866H234.046ZM237.596 286.326C232.978 285.253 228.167 284.686 223.227 284.686V288.686C227.86 288.686 232.367 289.218 236.691 290.222L237.596 286.326ZM223.227 284.686C188.295 284.686 159.977 313.004 159.977 347.936H163.977C163.977 315.213 190.504 288.686 223.227 288.686V284.686ZM159.977 347.936C159.977 382.868 188.295 411.186 223.227 411.186V407.186C190.504 407.186 163.977 380.659 163.977 347.936H159.977ZM223.227 411.186C223.473 411.186 223.719 411.185 223.965 411.182L223.919 407.182C223.689 407.185 223.458 407.186 223.227 407.186V411.186ZM225.509 410.425L225.512 410.421L222.372 407.943L222.369 407.947L225.509 410.425ZM439.026 407.186H223.939V411.186H439.026V407.186ZM437.026 409.182V409.186H441.026V409.182H437.026Z" fill="url(#paint3_linear_134_2039)" mask="url(#path-3-inside-2_134_2039)"/>
</g>
<g filter="url(#filter2_bdd_134_2039)">
<path d="M392.926 432.579L461.961 306.244C462.311 305.603 462.984 305.203 463.716 305.203H532.582C534.085 305.203 535.051 306.8 534.353 308.131L490.415 392.014C489.717 393.345 490.683 394.942 492.187 394.942H547.795C549.523 394.942 550.438 396.987 549.285 398.275L401.951 562.943C400.477 564.591 397.813 562.981 398.587 560.909L444.428 438.238C444.916 436.931 443.949 435.538 442.554 435.538H394.681C393.162 435.538 392.197 433.911 392.926 432.579Z" fill="url(#paint4_linear_134_2039)"/>
<path d="M393.803 433.058L462.838 306.724C463.014 306.403 463.35 306.203 463.716 306.203H532.582C533.333 306.203 533.816 307.002 533.468 307.667L489.529 391.55C488.483 393.547 489.932 395.942 492.187 395.942H547.795C548.659 395.942 549.116 396.964 548.54 397.609L401.206 562.276C400.469 563.1 399.137 562.295 399.524 561.259L445.364 438.588C446.097 436.627 444.647 434.538 442.554 434.538H394.681C393.921 434.538 393.439 433.725 393.803 433.058Z" stroke="url(#paint5_linear_134_2039)" stroke-width="2"/>
</g>
<g filter="url(#filter3_bd_134_2039)">
<mask id="path-7-inside-3_134_2039" fill="white">
<path fill-rule="evenodd" clip-rule="evenodd" d="M550.22 345.587C550.391 345.589 550.563 345.59 550.735 345.59C575.182 345.59 595 325.772 595 301.325C595 276.878 575.182 257.06 550.735 257.06C550.563 257.06 550.391 257.061 550.22 257.063V257.06H538.786C539.199 254.031 539.412 250.938 539.412 247.796C539.412 210.273 508.994 179.855 471.471 179.855C433.948 179.855 403.53 210.273 403.53 247.796C403.53 251.336 403.801 254.814 404.323 258.208C401.091 257.457 397.724 257.06 394.265 257.06C369.818 257.06 350 276.878 350 301.325C350 325.772 369.818 345.59 394.265 345.59C394.437 345.59 394.609 345.589 394.781 345.587L394.779 345.59H550.22V345.587Z"/>
</mask>
<path fill-rule="evenodd" clip-rule="evenodd" d="M550.22 345.587C550.391 345.589 550.563 345.59 550.735 345.59C575.182 345.59 595 325.772 595 301.325C595 276.878 575.182 257.06 550.735 257.06C550.563 257.06 550.391 257.061 550.22 257.063V257.06H538.786C539.199 254.031 539.412 250.938 539.412 247.796C539.412 210.273 508.994 179.855 471.471 179.855C433.948 179.855 403.53 210.273 403.53 247.796C403.53 251.336 403.801 254.814 404.323 258.208C401.091 257.457 397.724 257.06 394.265 257.06C369.818 257.06 350 276.878 350 301.325C350 325.772 369.818 345.59 394.265 345.59C394.437 345.59 394.609 345.589 394.781 345.587L394.779 345.59H550.22V345.587Z" fill="url(#paint6_linear_134_2039)" shape-rendering="crispEdges"/>
<path d="M550.22 345.587L550.243 343.587C549.708 343.581 549.194 343.789 548.814 344.165C548.434 344.54 548.22 345.053 548.22 345.587H550.22ZM550.22 257.063H548.22C548.22 257.598 548.434 258.11 548.814 258.486C549.194 258.861 549.708 259.069 550.243 259.063L550.22 257.063ZM550.22 257.06H552.22C552.22 255.956 551.325 255.06 550.22 255.06V257.06ZM538.786 257.06L536.804 256.79C536.726 257.363 536.899 257.941 537.279 258.376C537.659 258.811 538.208 259.06 538.786 259.06V257.06ZM404.323 258.208L403.87 260.156C404.517 260.306 405.196 260.126 405.682 259.675C406.169 259.224 406.4 258.56 406.299 257.904L404.323 258.208ZM394.781 345.587L396.35 346.827C396.828 346.222 396.916 345.397 396.576 344.705C396.236 344.013 395.529 343.578 394.758 343.587L394.781 345.587ZM394.779 345.59L393.21 344.35C392.734 344.951 392.645 345.772 392.979 346.462C393.313 347.152 394.012 347.59 394.779 347.59V345.59ZM550.22 345.59V347.59C551.325 347.59 552.22 346.694 552.22 345.59H550.22ZM550.197 347.587C550.376 347.589 550.556 347.59 550.735 347.59V343.59C550.571 343.59 550.407 343.589 550.243 343.587L550.197 347.587ZM550.735 347.59C576.286 347.59 597 326.876 597 301.325H593C593 324.667 574.077 343.59 550.735 343.59V347.59ZM597 301.325C597 275.774 576.286 255.06 550.735 255.06V259.06C574.077 259.06 593 277.983 593 301.325H597ZM550.735 255.06C550.556 255.06 550.376 255.061 550.197 255.064L550.243 259.063C550.407 259.061 550.571 259.06 550.735 259.06V255.06ZM548.22 257.06V257.063H552.22V257.06H548.22ZM538.786 259.06H550.22V255.06H538.786V259.06ZM540.767 257.331C541.193 254.212 541.412 251.029 541.412 247.796H537.412C537.412 250.848 537.205 253.85 536.804 256.79L540.767 257.331ZM541.412 247.796C541.412 209.168 510.098 177.855 471.471 177.855V181.855C507.889 181.855 537.412 211.377 537.412 247.796H541.412ZM471.471 177.855C432.843 177.855 401.53 209.168 401.53 247.796H405.53C405.53 211.377 435.053 181.855 471.471 181.855V177.855ZM401.53 247.796C401.53 251.439 401.808 255.017 402.346 258.512L406.299 257.904C405.793 254.61 405.53 251.234 405.53 247.796H401.53ZM404.775 256.26C401.397 255.475 397.878 255.06 394.265 255.06V259.06C397.571 259.06 400.786 259.44 403.87 260.156L404.775 256.26ZM394.265 255.06C368.713 255.06 348 275.774 348 301.325H352C352 277.983 370.923 259.06 394.265 259.06V255.06ZM348 301.325C348 326.876 368.713 347.59 394.265 347.59V343.59C370.923 343.59 352 324.667 352 301.325H348ZM394.265 347.59C394.445 347.59 394.624 347.589 394.804 347.587L394.758 343.587C394.594 343.589 394.43 343.59 394.265 343.59V347.59ZM396.348 346.83L396.35 346.827L393.212 344.347L393.21 344.35L396.348 346.83ZM550.22 343.59H394.779V347.59H550.22V343.59ZM548.22 345.587V345.59H552.22V345.587H548.22Z" fill="url(#paint7_linear_134_2039)" mask="url(#path-7-inside-3_134_2039)"/>
</g>
<g filter="url(#filter4_bdd_134_2039)">
<path d="M184.435 425.463L186.622 456.082C187.485 468.177 175.951 477.379 164.35 473.85C152.749 470.321 148.292 456.255 155.745 446.69L174.611 422.474C177.708 418.499 184.076 420.436 184.435 425.463Z" fill="url(#paint8_linear_134_2039)" stroke="url(#paint9_linear_134_2039)" stroke-width="3"/>
<path d="M266.348 425.463L268.535 456.082C269.399 468.177 257.864 477.379 246.263 473.85C234.662 470.321 230.205 456.255 237.658 446.69L256.524 422.474C259.621 418.499 265.989 420.436 266.348 425.463Z" fill="url(#paint10_linear_134_2039)" stroke="url(#paint11_linear_134_2039)" stroke-width="3"/>
<path d="M348.264 425.463L350.451 456.082C351.315 468.177 339.78 477.379 328.179 473.85C316.578 470.321 312.121 456.255 319.574 446.69L338.44 422.474C341.537 418.499 347.905 420.436 348.264 425.463Z" fill="url(#paint12_linear_134_2039)" stroke="url(#paint13_linear_134_2039)" stroke-width="3"/>
</g>
<g filter="url(#filter5_bdd_134_2039)">
<path d="M215.772 490.303L217.959 520.922C218.822 533.017 207.288 542.219 195.687 538.69C184.086 535.161 179.629 521.095 187.082 511.529L205.948 487.314C209.045 483.339 215.413 485.276 215.772 490.303Z" fill="url(#paint14_linear_134_2039)" stroke="url(#paint15_linear_134_2039)" stroke-width="3"/>
<path d="M298.388 490.303L300.575 520.922C301.439 533.017 289.904 542.219 278.303 538.69C266.702 535.161 262.245 521.095 269.698 511.529L288.564 487.314C291.661 483.339 298.029 485.276 298.388 490.303Z" fill="url(#paint16_linear_134_2039)" stroke="url(#paint17_linear_134_2039)" stroke-width="3"/>
</g>
<defs>
<filter id="filter0_bd_134_2039" x="34" y="95" width="345" height="265.735" filterUnits="userSpaceOnUse" color-interpolation-filters="sRGB">
<feFlood flood-opacity="0" result="BackgroundImageFix"/>
<feGaussianBlur in="BackgroundImageFix" stdDeviation="7"/>
<feComposite in2="SourceAlpha" operator="in" result="effect1_backgroundBlur_134_2039"/>
<feColorMatrix in="SourceAlpha" type="matrix" values="0 0 0 0 0 0 0 0 0 0 0 0 0 0 0 0 0 0 127 0" result="hardAlpha"/>
<feOffset dx="-21" dy="15"/>
<feGaussianBlur stdDeviation="25"/>
<feComposite in2="hardAlpha" operator="out"/>
<feColorMatrix type="matrix" values="0 0 0 0 0.113438 0 0 0 0 0.148981 0 0 0 0 0.275 0 0 0 0.25 0"/>
<feBlend mode="normal" in2="effect1_backgroundBlur_134_2039" result="effect2_dropShadow_134_2039"/>
<feBlend mode="normal" in="SourceGraphic" in2="effect2_dropShadow_134_2039" result="shape"/>
</filter>
<filter id="filter1_bd_134_2039" x="90.9766" y="144.855" width="439.012" height="329.331" filterUnits="userSpaceOnUse" color-interpolation-filters="sRGB">
<feFlood flood-opacity="0" result="BackgroundImageFix"/>
<feGaussianBlur in="BackgroundImageFix" stdDeviation="7"/>
<feComposite in2="SourceAlpha" operator="in" result="effect1_backgroundBlur_134_2039"/>
<feColorMatrix in="SourceAlpha" type="matrix" values="0 0 0 0 0 0 0 0 0 0 0 0 0 0 0 0 0 0 127 0" result="hardAlpha"/>
<feOffset dx="-21" dy="15"/>
<feGaussianBlur stdDeviation="25"/>
<feComposite in2="hardAlpha" operator="out"/>
<feColorMatrix type="matrix" values="0 0 0 0 0.113725 0 0 0 0 0.14902 0 0 0 0 0.27451 0 0 0 0.25 0"/>
<feBlend mode="normal" in2="effect1_backgroundBlur_134_2039" result="effect2_dropShadow_134_2039"/>
<feBlend mode="normal" in="SourceGraphic" in2="effect2_dropShadow_134_2039" result="shape"/>
</filter>
<filter id="filter2_bdd_134_2039" x="321.678" y="244.203" width="289.121" height="384.419" filterUnits="userSpaceOnUse" color-interpolation-filters="sRGB">
<feFlood flood-opacity="0" result="BackgroundImageFix"/>
<feGaussianBlur in="BackgroundImageFix" stdDeviation="7"/>
<feComposite in2="SourceAlpha" operator="in" result="effect1_backgroundBlur_134_2039"/>
<feColorMatrix in="SourceAlpha" type="matrix" values="0 0 0 0 0 0 0 0 0 0 0 0 0 0 0 0 0 0 127 0" result="hardAlpha"/>
<feOffset dx="-21" dy="15"/>
<feGaussianBlur stdDeviation="25"/>
<feComposite in2="hardAlpha" operator="out"/>
<feColorMatrix type="matrix" values="0 0 0 0 0.113438 0 0 0 0 0.148981 0 0 0 0 0.275 0 0 0 0.25 0"/>
<feBlend mode="normal" in2="effect1_backgroundBlur_134_2039" result="effect2_dropShadow_134_2039"/>
<feColorMatrix in="SourceAlpha" type="matrix" values="0 0 0 0 0 0 0 0 0 0 0 0 0 0 0 0 0 0 127 0" result="hardAlpha"/>
<feOffset/>
<feGaussianBlur stdDeviation="30.5"/>
<feComposite in2="hardAlpha" operator="out"/>
<feColorMatrix type="matrix" values="0 0 0 0 1 0 0 0 0 0.721569 0 0 0 0 0.00392157 0 0 0 0.49 0"/>
<feBlend mode="normal" in2="effect2_dropShadow_134_2039" result="effect3_dropShadow_134_2039"/>
<feBlend mode="normal" in="SourceGraphic" in2="effect3_dropShadow_134_2039" result="shape"/>
</filter>
<filter id="filter3_bd_134_2039" x="279" y="144.855" width="345" height="265.735" filterUnits="userSpaceOnUse" color-interpolation-filters="sRGB">
<feFlood flood-opacity="0" result="BackgroundImageFix"/>
<feGaussianBlur in="BackgroundImageFix" stdDeviation="7"/>
<feComposite in2="SourceAlpha" operator="in" result="effect1_backgroundBlur_134_2039"/>
<feColorMatrix in="SourceAlpha" type="matrix" values="0 0 0 0 0 0 0 0 0 0 0 0 0 0 0 0 0 0 127 0" result="hardAlpha"/>
<feOffset dx="-21" dy="15"/>
<feGaussianBlur stdDeviation="25"/>
<feComposite in2="hardAlpha" operator="out"/>
<feColorMatrix type="matrix" values="0 0 0 0 0.113438 0 0 0 0 0.148981 0 0 0 0 0.275 0 0 0 0.25 0"/>
<feBlend mode="normal" in2="effect1_backgroundBlur_134_2039" result="effect2_dropShadow_134_2039"/>
<feBlend mode="normal" in="SourceGraphic" in2="effect2_dropShadow_134_2039" result="shape"/>
</filter>
<filter id="filter4_bdd_134_2039" x="79.584" y="370.845" width="313.413" height="170.269" filterUnits="userSpaceOnUse" color-interpolation-filters="sRGB">
<feFlood flood-opacity="0" result="BackgroundImageFix"/>
<feGaussianBlur in="BackgroundImageFix" stdDeviation="7"/>
<feComposite in2="SourceAlpha" operator="in" result="effect1_backgroundBlur_134_2039"/>
<feColorMatrix in="SourceAlpha" type="matrix" values="0 0 0 0 0 0 0 0 0 0 0 0 0 0 0 0 0 0 127 0" result="hardAlpha"/>
<feOffset dx="-21" dy="15"/>
<feGaussianBlur stdDeviation="25"/>
<feComposite in2="hardAlpha" operator="out"/>
<feColorMatrix type="matrix" values="0 0 0 0 0.113438 0 0 0 0 0.148981 0 0 0 0 0.275 0 0 0 0.25 0"/>
<feBlend mode="normal" in2="effect1_backgroundBlur_134_2039" result="effect2_dropShadow_134_2039"/>
<feColorMatrix in="SourceAlpha" type="matrix" values="0 0 0 0 0 0 0 0 0 0 0 0 0 0 0 0 0 0 127 0" result="hardAlpha"/>
<feOffset dy="-7"/>
<feGaussianBlur stdDeviation="20.5"/>
<feComposite in2="hardAlpha" operator="out"/>
<feColorMatrix type="matrix" values="0 0 0 0 0.1375 0 0 0 0 0.74125 0 0 0 0 1 0 0 0 0.3 0"/>
<feBlend mode="normal" in2="effect2_dropShadow_134_2039" result="effect3_dropShadow_134_2039"/>
<feBlend mode="normal" in="SourceGraphic" in2="effect3_dropShadow_134_2039" result="shape"/>
</filter>
<filter id="filter5_bdd_134_2039" x="110.921" y="435.685" width="232.2" height="170.269" filterUnits="userSpaceOnUse" color-interpolation-filters="sRGB">
<feFlood flood-opacity="0" result="BackgroundImageFix"/>
<feGaussianBlur in="BackgroundImageFix" stdDeviation="7"/>
<feComposite in2="SourceAlpha" operator="in" result="effect1_backgroundBlur_134_2039"/>
<feColorMatrix in="SourceAlpha" type="matrix" values="0 0 0 0 0 0 0 0 0 0 0 0 0 0 0 0 0 0 127 0" result="hardAlpha"/>
<feOffset dx="-21" dy="15"/>
<feGaussianBlur stdDeviation="25"/>
<feComposite in2="hardAlpha" operator="out"/>
<feColorMatrix type="matrix" values="0 0 0 0 0.113438 0 0 0 0 0.148981 0 0 0 0 0.275 0 0 0 0.25 0"/>
<feBlend mode="normal" in2="effect1_backgroundBlur_134_2039" result="effect2_dropShadow_134_2039"/>
<feColorMatrix in="SourceAlpha" type="matrix" values="0 0 0 0 0 0 0 0 0 0 0 0 0 0 0 0 0 0 127 0" result="hardAlpha"/>
<feOffset dy="-7"/>
<feGaussianBlur stdDeviation="20.5"/>
<feComposite in2="hardAlpha" operator="out"/>
<feColorMatrix type="matrix" values="0 0 0 0 0.1375 0 0 0 0 0.74125 0 0 0 0 1 0 0 0 0.3 0"/>
<feBlend mode="normal" in2="effect2_dropShadow_134_2039" result="effect3_dropShadow_134_2039"/>
<feBlend mode="normal" in="SourceGraphic" in2="effect3_dropShadow_134_2039" result="shape"/>
</filter>
<linearGradient id="paint0_linear_134_2039" x1="238.895" y1="134.985" x2="238.895" y2="314.462" gradientUnits="userSpaceOnUse">
<stop stop-color="white"/>
<stop offset="1" stop-color="white" stop-opacity="0"/>
</linearGradient>
<linearGradient id="paint1_linear_134_2039" x1="227.5" y1="130" x2="227.5" y2="295.735" gradientUnits="userSpaceOnUse">
<stop stop-color="white"/>
<stop offset="1" stop-color="white" stop-opacity="0"/>
</linearGradient>
<linearGradient id="paint2_linear_134_2039" x1="331.482" y1="106.497" x2="331.482" y2="441.235" gradientUnits="userSpaceOnUse">
<stop stop-color="white"/>
<stop offset="1" stop-color="white" stop-opacity="0"/>
</linearGradient>
<linearGradient id="paint3_linear_134_2039" x1="331.482" y1="179.855" x2="331.482" y2="409.186" gradientUnits="userSpaceOnUse">
<stop stop-color="white"/>
<stop offset="1" stop-color="white" stop-opacity="0"/>
</linearGradient>
<linearGradient id="paint4_linear_134_2039" x1="487.457" y1="320.872" x2="451.846" y2="475.421" gradientUnits="userSpaceOnUse">
<stop stop-color="#FF4D00"/>
<stop offset="1" stop-color="#FFB800"/>
</linearGradient>
<linearGradient id="paint5_linear_134_2039" x1="439.739" y1="473.285" x2="504.55" y2="334.404" gradientUnits="userSpaceOnUse">
<stop stop-color="white"/>
<stop offset="1" stop-color="white" stop-opacity="0"/>
</linearGradient>
<linearGradient id="paint6_linear_134_2039" x1="483.895" y1="184.84" x2="483.895" y2="364.317" gradientUnits="userSpaceOnUse">
<stop stop-color="white"/>
<stop offset="1" stop-color="white" stop-opacity="0"/>
</linearGradient>
<linearGradient id="paint7_linear_134_2039" x1="472.5" y1="179.855" x2="472.5" y2="345.59" gradientUnits="userSpaceOnUse">
<stop stop-color="white"/>
<stop offset="1" stop-color="white" stop-opacity="0"/>
</linearGradient>
<linearGradient id="paint8_linear_134_2039" x1="184.633" y1="407.17" x2="163.913" y2="475.285" gradientUnits="userSpaceOnUse">
<stop stop-color="#138EFF"/>
<stop offset="1" stop-color="#00E0FF"/>
</linearGradient>
<linearGradient id="paint9_linear_134_2039" x1="184.633" y1="407.17" x2="163.913" y2="475.285" gradientUnits="userSpaceOnUse">
<stop stop-color="white"/>
<stop offset="1" stop-color="white" stop-opacity="0"/>
</linearGradient>
<linearGradient id="paint10_linear_134_2039" x1="266.546" y1="407.17" x2="245.827" y2="475.285" gradientUnits="userSpaceOnUse">
<stop stop-color="#138EFF"/>
<stop offset="1" stop-color="#00E0FF"/>
</linearGradient>
<linearGradient id="paint11_linear_134_2039" x1="266.546" y1="407.17" x2="245.827" y2="475.285" gradientUnits="userSpaceOnUse">
<stop stop-color="white"/>
<stop offset="1" stop-color="white" stop-opacity="0"/>
</linearGradient>
<linearGradient id="paint12_linear_134_2039" x1="348.462" y1="407.17" x2="327.743" y2="475.285" gradientUnits="userSpaceOnUse">
<stop stop-color="#138EFF"/>
<stop offset="1" stop-color="#00E0FF"/>
</linearGradient>
<linearGradient id="paint13_linear_134_2039" x1="348.462" y1="407.17" x2="327.743" y2="475.285" gradientUnits="userSpaceOnUse">
<stop stop-color="white"/>
<stop offset="1" stop-color="white" stop-opacity="0"/>
</linearGradient>
<linearGradient id="paint14_linear_134_2039" x1="215.97" y1="472.01" x2="195.25" y2="540.125" gradientUnits="userSpaceOnUse">
<stop stop-color="#138EFF"/>
<stop offset="1" stop-color="#00E0FF"/>
</linearGradient>
<linearGradient id="paint15_linear_134_2039" x1="215.97" y1="472.01" x2="195.25" y2="540.125" gradientUnits="userSpaceOnUse">
<stop stop-color="white"/>
<stop offset="1" stop-color="white" stop-opacity="0"/>
</linearGradient>
<linearGradient id="paint16_linear_134_2039" x1="298.586" y1="472.01" x2="277.867" y2="540.125" gradientUnits="userSpaceOnUse">
<stop stop-color="#138EFF"/>
<stop offset="1" stop-color="#00E0FF"/>
</linearGradient>
<linearGradient id="paint17_linear_134_2039" x1="298.586" y1="472.01" x2="277.867" y2="540.125" gradientUnits="userSpaceOnUse">
<stop stop-color="white"/>
<stop offset="1" stop-color="white" stop-opacity="0"/>
</linearGradient>
</defs>
</svg>
