<svg width="700" height="700" viewBox="0 0 700 700" fill="none" xmlns="http://www.w3.org/2000/svg">
<g filter="url(#filter0_bd_132_1799)">
<mask id="path-1-inside-1_132_1799" fill="white">
<path fill-rule="evenodd" clip-rule="evenodd" d="M504.446 403.462C504.787 403.466 505.129 403.468 505.471 403.468C554.364 403.468 594 363.832 594 314.939C594 266.046 554.364 226.41 505.471 226.41C505.129 226.41 504.787 226.412 504.446 226.416V226.41H481.563C482.389 220.352 482.816 214.166 482.816 207.881C482.816 132.836 421.98 72 346.935 72C271.89 72 211.054 132.836 211.054 207.881C211.054 214.962 211.595 221.916 212.639 228.704C206.178 227.204 199.446 226.41 192.529 226.41C143.636 226.41 104 266.046 104 314.939C104 363.832 143.636 403.468 192.529 403.468C192.876 403.468 193.224 403.466 193.571 403.462L193.566 403.468H504.446V403.462Z"/>
</mask>
<path fill-rule="evenodd" clip-rule="evenodd" d="M504.446 403.462C504.787 403.466 505.129 403.468 505.471 403.468C554.364 403.468 594 363.832 594 314.939C594 266.046 554.364 226.41 505.471 226.41C505.129 226.41 504.787 226.412 504.446 226.416V226.41H481.563C482.389 220.352 482.816 214.166 482.816 207.881C482.816 132.836 421.98 72 346.935 72C271.89 72 211.054 132.836 211.054 207.881C211.054 214.962 211.595 221.916 212.639 228.704C206.178 227.204 199.446 226.41 192.529 226.41C143.636 226.41 104 266.046 104 314.939C104 363.832 143.636 403.468 192.529 403.468C192.876 403.468 193.224 403.466 193.571 403.462L193.566 403.468H504.446V403.462Z" fill="url(#paint0_linear_132_1799)" shape-rendering="crispEdges"/>
<path d="M504.446 403.462L504.468 401.462C503.934 401.456 503.42 401.664 503.04 402.04C502.66 402.415 502.446 402.927 502.446 403.462H504.446ZM504.446 226.416H502.446C502.446 226.951 502.66 227.463 503.04 227.838C503.42 228.214 503.934 228.422 504.468 228.416L504.446 226.416ZM504.446 226.41H506.446C506.446 225.306 505.55 224.41 504.446 224.41V226.41ZM481.563 226.41L479.582 226.14C479.504 226.712 479.677 227.29 480.056 227.726C480.436 228.161 480.986 228.41 481.563 228.41V226.41ZM212.639 228.704L212.187 230.653C212.833 230.803 213.512 230.622 213.999 230.171C214.486 229.72 214.717 229.057 214.616 228.4L212.639 228.704ZM193.571 403.462L195.141 404.7C195.618 404.095 195.705 403.269 195.365 402.578C195.025 401.887 194.318 401.453 193.548 401.462L193.571 403.462ZM193.566 403.468L191.995 402.23C191.521 402.831 191.432 403.651 191.766 404.341C192.101 405.03 192.8 405.468 193.566 405.468V403.468ZM504.446 403.468V405.468C505.55 405.468 506.446 404.572 506.446 403.468H504.446ZM504.423 405.462C504.772 405.466 505.121 405.468 505.471 405.468V401.468C505.136 401.468 504.802 401.466 504.468 401.462L504.423 405.462ZM505.471 405.468C555.469 405.468 596 364.937 596 314.939H592C592 362.727 553.26 401.468 505.471 401.468V405.468ZM596 314.939C596 264.941 555.469 224.41 505.471 224.41V228.41C553.26 228.41 592 267.151 592 314.939H596ZM505.471 224.41C505.121 224.41 504.772 224.412 504.423 224.416L504.468 228.416C504.802 228.412 505.136 228.41 505.471 228.41V224.41ZM502.446 226.41V226.416H506.446V226.41H502.446ZM481.563 228.41H504.446V224.41H481.563V228.41ZM483.545 226.681C484.383 220.533 484.816 214.257 484.816 207.881H480.816C480.816 214.076 480.395 220.171 479.582 226.14L483.545 226.681ZM484.816 207.881C484.816 131.732 423.084 70 346.935 70V74C420.875 74 480.816 133.941 480.816 207.881H484.816ZM346.935 70C270.785 70 209.054 131.732 209.054 207.881H213.054C213.054 133.941 272.994 74 346.935 74V70ZM209.054 207.881C209.054 215.064 209.603 222.12 210.662 229.008L214.616 228.4C213.587 221.712 213.054 214.86 213.054 207.881H209.054ZM213.092 226.756C206.483 225.221 199.6 224.41 192.529 224.41V228.41C199.293 228.41 205.873 229.186 212.187 230.653L213.092 226.756ZM192.529 224.41C142.531 224.41 102 264.941 102 314.939H106C106 267.151 144.74 228.41 192.529 228.41V224.41ZM102 314.939C102 364.937 142.531 405.468 192.529 405.468V401.468C144.74 401.468 106 362.727 106 314.939H102ZM192.529 405.468C192.884 405.468 193.239 405.466 193.594 405.462L193.548 401.462C193.208 401.466 192.869 401.468 192.529 401.468V405.468ZM195.137 404.706L195.141 404.7L192 402.224L191.995 402.23L195.137 404.706ZM504.446 401.468H193.566V405.468H504.446V401.468ZM502.446 403.462V403.468H506.446V403.462H502.446Z" fill="url(#paint1_linear_132_1799)" mask="url(#path-1-inside-1_132_1799)"/>
</g>
<path d="M253.048 329.249L344.657 475.824" stroke="#42A0F0" stroke-width="6" stroke-linecap="round"/>
<path d="M275.141 365.261L284.099 323.426" stroke="#42A0F0" stroke-width="6" stroke-linecap="round"/>
<path d="M275.142 365.259L232.797 355.487" stroke="#42A0F0" stroke-width="6" stroke-linecap="round"/>
<path d="M324.014 443.431L365.544 453.712" stroke="#42A0F0" stroke-width="6" stroke-linecap="round"/>
<path d="M324.005 443.43L314.233 485.775" stroke="#42A0F0" stroke-width="6" stroke-linecap="round"/>
<path d="M339.442 327.044L258.31 479.667" stroke="#42A0F0" stroke-width="6" stroke-linecap="round"/>
<path d="M319.322 364.19L360.032 351.029" stroke="#42A0F0" stroke-width="6" stroke-linecap="round"/>
<path d="M319.322 364.19L306.612 322.632" stroke="#42A0F0" stroke-width="6" stroke-linecap="round"/>
<path d="M276.046 445.591L287.908 486.698" stroke="#42A0F0" stroke-width="6" stroke-linecap="round"/>
<path d="M276.047 445.591L234.489 458.301" stroke="#42A0F0" stroke-width="6" stroke-linecap="round"/>
<path d="M384.553 400.77L211.811 406.818" stroke="#42A0F0" stroke-width="6" stroke-linecap="round"/>
<path d="M342.31 401.908L374.062 430.583" stroke="#42A0F0" stroke-width="6" stroke-linecap="round"/>
<path d="M342.309 401.907L371.944 370.121" stroke="#42A0F0" stroke-width="6" stroke-linecap="round"/>
<path d="M250.187 405.131L220.518 435.957" stroke="#42A0F0" stroke-width="6" stroke-linecap="round"/>
<path d="M250.181 405.131L218.395 375.496" stroke="#42A0F0" stroke-width="6" stroke-linecap="round"/>
<path d="M481.562 421.86L446.705 500.138" stroke="#42A0F0" stroke-width="3" stroke-linecap="round"/>
<path d="M472.882 440.92L492.556 433.008" stroke="#42A0F0" stroke-width="3" stroke-linecap="round"/>
<path d="M472.875 440.92L465.157 420.81" stroke="#42A0F0" stroke-width="3" stroke-linecap="round"/>
<path d="M454.292 482.674L461.574 502.59" stroke="#42A0F0" stroke-width="3" stroke-linecap="round"/>
<path d="M454.286 482.672L434.176 490.39" stroke="#42A0F0" stroke-width="3" stroke-linecap="round"/>
<path d="M506.412 456.762L421.194 465.714" stroke="#42A0F0" stroke-width="3" stroke-linecap="round"/>
<path d="M485.569 458.783L502.258 471.866" stroke="#42A0F0" stroke-width="3" stroke-linecap="round"/>
<path d="M485.575 458.779L499.132 442.04" stroke="#42A0F0" stroke-width="3" stroke-linecap="round"/>
<path d="M440.106 463.559L426.5 479.824" stroke="#42A0F0" stroke-width="3" stroke-linecap="round"/>
<path d="M440.113 463.557L423.374 450" stroke="#42A0F0" stroke-width="3" stroke-linecap="round"/>
<path d="M488.602 495.739L438.24 426.414" stroke="#42A0F0" stroke-width="3" stroke-linecap="round"/>
<path d="M476.42 478.69L473.435 499.684" stroke="#42A0F0" stroke-width="3" stroke-linecap="round"/>
<path d="M476.432 478.691L497.707 482.062" stroke="#42A0F0" stroke-width="3" stroke-linecap="round"/>
<path d="M449.563 441.714L428.675 438.063" stroke="#42A0F0" stroke-width="3" stroke-linecap="round"/>
<path d="M449.57 441.714L452.941 420.44" stroke="#42A0F0" stroke-width="3" stroke-linecap="round"/>
<path d="M378.224 540.763L348.093 608.427" stroke="#42A0F0" stroke-width="2.5" stroke-linecap="round"/>
<path d="M370.717 557.238L387.723 550.399" stroke="#42A0F0" stroke-width="2.5" stroke-linecap="round"/>
<path d="M370.72 557.238L364.049 539.855" stroke="#42A0F0" stroke-width="2.5" stroke-linecap="round"/>
<path d="M354.641 593.332L360.936 610.547" stroke="#42A0F0" stroke-width="2.5" stroke-linecap="round"/>
<path d="M354.646 593.329L337.262 600.001" stroke="#42A0F0" stroke-width="2.5" stroke-linecap="round"/>
<path d="M399.698 570.932L326.034 578.67" stroke="#42A0F0" stroke-width="2.5" stroke-linecap="round"/>
<path d="M381.683 572.676L396.109 583.985" stroke="#42A0F0" stroke-width="2.5" stroke-linecap="round"/>
<path d="M381.681 572.673L393.399 558.203" stroke="#42A0F0" stroke-width="2.5" stroke-linecap="round"/>
<path d="M342.394 576.808L330.632 590.867" stroke="#42A0F0" stroke-width="2.5" stroke-linecap="round"/>
<path d="M342.391 576.805L327.922 565.086" stroke="#42A0F0" stroke-width="2.5" stroke-linecap="round"/>
<path d="M384.31 604.623L340.776 544.697" stroke="#42A0F0" stroke-width="2.5" stroke-linecap="round"/>
<path d="M373.783 589.887L371.203 608.035" stroke="#42A0F0" stroke-width="2.5" stroke-linecap="round"/>
<path d="M373.791 589.886L392.181 592.8" stroke="#42A0F0" stroke-width="2.5" stroke-linecap="round"/>
<path d="M350.559 557.925L332.502 554.769" stroke="#42A0F0" stroke-width="2.5" stroke-linecap="round"/>
<path d="M350.569 557.924L353.483 539.534" stroke="#42A0F0" stroke-width="2.5" stroke-linecap="round"/>
<defs>
<filter id="filter0_bd_132_1799" x="33" y="37" width="590" height="431.468" filterUnits="userSpaceOnUse" color-interpolation-filters="sRGB">
<feFlood flood-opacity="0" result="BackgroundImageFix"/>
<feGaussianBlur in="BackgroundImageFix" stdDeviation="7"/>
<feComposite in2="SourceAlpha" operator="in" result="effect1_backgroundBlur_132_1799"/>
<feColorMatrix in="SourceAlpha" type="matrix" values="0 0 0 0 0 0 0 0 0 0 0 0 0 0 0 0 0 0 127 0" result="hardAlpha"/>
<feOffset dx="-21" dy="15"/>
<feGaussianBlur stdDeviation="25"/>
<feComposite in2="hardAlpha" operator="out"/>
<feColorMatrix type="matrix" values="0 0 0 0 0.113725 0 0 0 0 0.14902 0 0 0 0 0.27451 0 0 0 0.25 0"/>
<feBlend mode="normal" in2="effect1_backgroundBlur_132_1799" result="effect2_dropShadow_132_1799"/>
<feBlend mode="normal" in="SourceGraphic" in2="effect2_dropShadow_132_1799" result="shape"/>
</filter>
<linearGradient id="paint0_linear_132_1799" x1="349" y1="-34.0285" x2="349" y2="449.791" gradientUnits="userSpaceOnUse">
<stop stop-color="white"/>
<stop offset="1" stop-color="white" stop-opacity="0"/>
</linearGradient>
<linearGradient id="paint1_linear_132_1799" x1="349" y1="72" x2="349" y2="403.468" gradientUnits="userSpaceOnUse">
<stop stop-color="white"/>
<stop offset="1" stop-color="white" stop-opacity="0"/>
</linearGradient>
</defs>
</svg>
