<svg width="700" height="700" viewBox="0 0 700 700" fill="none" xmlns="http://www.w3.org/2000/svg">
<path d="M489.003 512.96V590.744" stroke="#42A0F0" stroke-width="3" stroke-linecap="round"/>
<path d="M488.847 531.973L502.243 518.145" stroke="#42A0F0" stroke-width="3" stroke-linecap="round"/>
<path d="M488.847 531.973L475.02 518.145" stroke="#42A0F0" stroke-width="3" stroke-linecap="round"/>
<path d="M488.847 573.458L502.243 587.286" stroke="#42A0F0" stroke-width="3" stroke-linecap="round"/>
<path d="M488.847 573.458L475.02 587.286" stroke="#42A0F0" stroke-width="3" stroke-linecap="round"/>
<path d="M522.499 532.728L455.136 571.62" stroke="#42A0F0" stroke-width="3" stroke-linecap="round"/>
<path d="M505.955 542.099L524.628 546.787" stroke="#42A0F0" stroke-width="3" stroke-linecap="round"/>
<path d="M505.954 542.099L511.016 523.21" stroke="#42A0F0" stroke-width="3" stroke-linecap="round"/>
<path d="M470.025 562.841L464.748 581.356" stroke="#42A0F0" stroke-width="3" stroke-linecap="round"/>
<path d="M470.027 562.842L451.138 557.781" stroke="#42A0F0" stroke-width="3" stroke-linecap="round"/>
<path d="M522.124 571.619L454.761 532.728" stroke="#42A0F0" stroke-width="3" stroke-linecap="round"/>
<path d="M505.738 561.977L511.015 580.493" stroke="#42A0F0" stroke-width="3" stroke-linecap="round"/>
<path d="M505.738 561.978L524.627 556.917" stroke="#42A0F0" stroke-width="3" stroke-linecap="round"/>
<path d="M469.809 541.234L451.135 545.922" stroke="#42A0F0" stroke-width="3" stroke-linecap="round"/>
<path d="M469.809 541.235L464.747 522.346" stroke="#42A0F0" stroke-width="3" stroke-linecap="round"/>
<path d="M351.281 512.96V590.744" stroke="#42A0F0" stroke-width="3" stroke-linecap="round"/>
<path d="M351.125 531.973L364.521 518.145" stroke="#42A0F0" stroke-width="3" stroke-linecap="round"/>
<path d="M351.126 531.973L337.298 518.145" stroke="#42A0F0" stroke-width="3" stroke-linecap="round"/>
<path d="M351.125 573.458L364.521 587.285" stroke="#42A0F0" stroke-width="3" stroke-linecap="round"/>
<path d="M351.126 573.458L337.298 587.285" stroke="#42A0F0" stroke-width="3" stroke-linecap="round"/>
<path d="M384.779 532.728L317.417 571.62" stroke="#42A0F0" stroke-width="3" stroke-linecap="round"/>
<path d="M368.236 542.099L386.909 546.786" stroke="#42A0F0" stroke-width="3" stroke-linecap="round"/>
<path d="M368.236 542.099L373.297 523.21" stroke="#42A0F0" stroke-width="3" stroke-linecap="round"/>
<path d="M332.308 562.841L327.03 581.356" stroke="#42A0F0" stroke-width="3" stroke-linecap="round"/>
<path d="M332.306 562.841L313.417 557.78" stroke="#42A0F0" stroke-width="3" stroke-linecap="round"/>
<path d="M384.405 571.619L317.043 532.727" stroke="#42A0F0" stroke-width="3" stroke-linecap="round"/>
<path d="M368.016 561.977L373.293 580.492" stroke="#42A0F0" stroke-width="3" stroke-linecap="round"/>
<path d="M368.017 561.977L386.906 556.916" stroke="#42A0F0" stroke-width="3" stroke-linecap="round"/>
<path d="M332.093 541.234L313.42 545.921" stroke="#42A0F0" stroke-width="3" stroke-linecap="round"/>
<path d="M332.093 541.234L327.032 522.345" stroke="#42A0F0" stroke-width="3" stroke-linecap="round"/>
<path d="M213.8 512.96V590.744" stroke="#42A0F0" stroke-width="3" stroke-linecap="round"/>
<path d="M213.642 531.973L227.038 518.146" stroke="#42A0F0" stroke-width="3" stroke-linecap="round"/>
<path d="M213.642 531.973L199.814 518.146" stroke="#42A0F0" stroke-width="3" stroke-linecap="round"/>
<path d="M213.642 573.458L227.038 587.286" stroke="#42A0F0" stroke-width="3" stroke-linecap="round"/>
<path d="M213.642 573.458L199.814 587.286" stroke="#42A0F0" stroke-width="3" stroke-linecap="round"/>
<path d="M247.298 532.728L179.935 571.62" stroke="#42A0F0" stroke-width="3" stroke-linecap="round"/>
<path d="M230.753 542.099L249.427 546.787" stroke="#42A0F0" stroke-width="3" stroke-linecap="round"/>
<path d="M230.752 542.099L235.813 523.21" stroke="#42A0F0" stroke-width="3" stroke-linecap="round"/>
<path d="M194.826 562.841L189.549 581.357" stroke="#42A0F0" stroke-width="3" stroke-linecap="round"/>
<path d="M194.825 562.842L175.936 557.781" stroke="#42A0F0" stroke-width="3" stroke-linecap="round"/>
<path d="M246.925 571.619L179.562 532.727" stroke="#42A0F0" stroke-width="3" stroke-linecap="round"/>
<path d="M230.537 561.977L235.814 580.492" stroke="#42A0F0" stroke-width="3" stroke-linecap="round"/>
<path d="M230.537 561.977L249.426 556.916" stroke="#42A0F0" stroke-width="3" stroke-linecap="round"/>
<path d="M194.611 541.234L175.938 545.922" stroke="#42A0F0" stroke-width="3" stroke-linecap="round"/>
<path d="M194.612 541.234L189.55 522.345" stroke="#42A0F0" stroke-width="3" stroke-linecap="round"/>
<path d="M280.324 396.176V473.96" stroke="#42A0F0" stroke-width="3" stroke-linecap="round"/>
<path d="M280.168 415.19L293.564 401.362" stroke="#42A0F0" stroke-width="3" stroke-linecap="round"/>
<path d="M280.169 415.19L266.341 401.362" stroke="#42A0F0" stroke-width="3" stroke-linecap="round"/>
<path d="M280.168 456.674L293.564 470.502" stroke="#42A0F0" stroke-width="3" stroke-linecap="round"/>
<path d="M280.169 456.674L266.341 470.502" stroke="#42A0F0" stroke-width="3" stroke-linecap="round"/>
<path d="M313.821 415.945L246.459 454.837" stroke="#42A0F0" stroke-width="3" stroke-linecap="round"/>
<path d="M297.276 425.316L315.949 430.003" stroke="#42A0F0" stroke-width="3" stroke-linecap="round"/>
<path d="M297.276 425.316L302.337 406.427" stroke="#42A0F0" stroke-width="3" stroke-linecap="round"/>
<path d="M261.35 446.059L256.072 464.574" stroke="#42A0F0" stroke-width="3" stroke-linecap="round"/>
<path d="M261.348 446.059L242.459 440.997" stroke="#42A0F0" stroke-width="3" stroke-linecap="round"/>
<path d="M313.446 454.836L246.084 415.944" stroke="#42A0F0" stroke-width="3" stroke-linecap="round"/>
<path d="M297.059 445.194L302.336 463.709" stroke="#42A0F0" stroke-width="3" stroke-linecap="round"/>
<path d="M297.06 445.194L315.949 440.133" stroke="#42A0F0" stroke-width="3" stroke-linecap="round"/>
<path d="M261.134 424.452L242.461 429.139" stroke="#42A0F0" stroke-width="3" stroke-linecap="round"/>
<path d="M261.134 424.452L256.073 405.563" stroke="#42A0F0" stroke-width="3" stroke-linecap="round"/>
<path d="M432.586 396.176V473.96" stroke="#42A0F0" stroke-width="3" stroke-linecap="round"/>
<path d="M432.43 415.19L445.826 401.362" stroke="#42A0F0" stroke-width="3" stroke-linecap="round"/>
<path d="M432.43 415.19L418.603 401.362" stroke="#42A0F0" stroke-width="3" stroke-linecap="round"/>
<path d="M432.43 456.674L445.826 470.502" stroke="#42A0F0" stroke-width="3" stroke-linecap="round"/>
<path d="M432.43 456.674L418.603 470.502" stroke="#42A0F0" stroke-width="3" stroke-linecap="round"/>
<path d="M466.079 415.945L398.717 454.837" stroke="#42A0F0" stroke-width="3" stroke-linecap="round"/>
<path d="M449.535 425.316L468.208 430.003" stroke="#42A0F0" stroke-width="3" stroke-linecap="round"/>
<path d="M449.533 425.316L454.595 406.427" stroke="#42A0F0" stroke-width="3" stroke-linecap="round"/>
<path d="M413.607 446.059L408.33 464.574" stroke="#42A0F0" stroke-width="3" stroke-linecap="round"/>
<path d="M413.607 446.059L394.718 440.997" stroke="#42A0F0" stroke-width="3" stroke-linecap="round"/>
<path d="M465.708 454.836L398.345 415.944" stroke="#42A0F0" stroke-width="3" stroke-linecap="round"/>
<path d="M449.322 445.194L454.599 463.709" stroke="#42A0F0" stroke-width="3" stroke-linecap="round"/>
<path d="M449.322 445.194L468.211 440.133" stroke="#42A0F0" stroke-width="3" stroke-linecap="round"/>
<path d="M413.394 424.452L394.72 429.139" stroke="#42A0F0" stroke-width="3" stroke-linecap="round"/>
<path d="M413.394 424.452L408.332 405.563" stroke="#42A0F0" stroke-width="3" stroke-linecap="round"/>
<g filter="url(#filter0_bd_132_1882)">
<mask id="path-76-inside-1_132_1882" fill="white">
<path fill-rule="evenodd" clip-rule="evenodd" d="M505.441 441.465C505.784 441.469 506.127 441.471 506.471 441.471C555.364 441.471 595 401.835 595 352.941C595 304.048 555.364 264.412 506.471 264.412C506.127 264.412 505.784 264.414 505.441 264.418V264.412H482.571C483.397 258.353 483.824 252.168 483.824 245.882C483.824 170.837 422.987 110 347.941 110C272.895 110 212.059 170.837 212.059 245.882C212.059 252.963 212.6 259.918 213.645 266.707C207.182 265.206 200.449 264.412 193.529 264.412C144.636 264.412 105 304.048 105 352.941C105 401.835 144.636 441.471 193.529 441.471C193.875 441.471 194.219 441.469 194.563 441.465L194.559 441.471H505.441V441.465Z"/>
</mask>
<path fill-rule="evenodd" clip-rule="evenodd" d="M505.441 441.465C505.784 441.469 506.127 441.471 506.471 441.471C555.364 441.471 595 401.835 595 352.941C595 304.048 555.364 264.412 506.471 264.412C506.127 264.412 505.784 264.414 505.441 264.418V264.412H482.571C483.397 258.353 483.824 252.168 483.824 245.882C483.824 170.837 422.987 110 347.941 110C272.895 110 212.059 170.837 212.059 245.882C212.059 252.963 212.6 259.918 213.645 266.707C207.182 265.206 200.449 264.412 193.529 264.412C144.636 264.412 105 304.048 105 352.941C105 401.835 144.636 441.471 193.529 441.471C193.875 441.471 194.219 441.469 194.563 441.465L194.559 441.471H505.441V441.465Z" fill="url(#paint0_linear_132_1882)" shape-rendering="crispEdges"/>
<path d="M505.441 441.465L505.464 439.465C504.93 439.459 504.415 439.667 504.035 440.042C503.655 440.418 503.441 440.93 503.441 441.465H505.441ZM505.441 264.418H503.441C503.441 264.952 503.655 265.464 504.035 265.84C504.415 266.216 504.93 266.424 505.464 266.417L505.441 264.418ZM505.441 264.412H507.441C507.441 263.307 506.546 262.412 505.441 262.412V264.412ZM482.571 264.412L480.589 264.142C480.511 264.714 480.684 265.292 481.064 265.727C481.444 266.162 481.993 266.412 482.571 266.412V264.412ZM213.645 266.707L213.192 268.655C213.839 268.805 214.517 268.625 215.004 268.174C215.491 267.722 215.722 267.059 215.621 266.403L213.645 266.707ZM194.563 441.465L196.134 442.703C196.611 442.098 196.698 441.273 196.358 440.582C196.018 439.89 195.311 439.456 194.541 439.465L194.563 441.465ZM194.559 441.471L192.988 440.232C192.514 440.834 192.425 441.654 192.759 442.343C193.094 443.033 193.793 443.471 194.559 443.471V441.471ZM505.441 441.471V443.471C506.546 443.471 507.441 442.575 507.441 441.471H505.441ZM505.418 443.465C505.769 443.469 506.119 443.471 506.471 443.471V439.471C506.135 439.471 505.799 439.469 505.464 439.465L505.418 443.465ZM506.471 443.471C556.469 443.471 597 402.939 597 352.941H593C593 400.73 554.259 439.471 506.471 439.471V443.471ZM597 352.941C597 302.943 556.469 262.412 506.471 262.412V266.412C554.259 266.412 593 305.152 593 352.941H597ZM506.471 262.412C506.119 262.412 505.769 262.414 505.418 262.418L505.464 266.417C505.799 266.414 506.135 266.412 506.471 266.412V262.412ZM503.441 264.412V264.418H507.441V264.412H503.441ZM482.571 266.412H505.441V262.412H482.571V266.412ZM484.552 264.682C485.391 258.534 485.824 252.258 485.824 245.882H481.824C481.824 252.077 481.403 258.172 480.589 264.142L484.552 264.682ZM485.824 245.882C485.824 169.732 424.092 108 347.941 108V112C421.882 112 481.824 171.941 481.824 245.882H485.824ZM347.941 108C271.791 108 210.059 169.732 210.059 245.882H214.059C214.059 171.941 274 112 347.941 112V108ZM210.059 245.882C210.059 253.066 210.608 260.122 211.668 267.011L215.621 266.403C214.593 259.714 214.059 252.861 214.059 245.882H210.059ZM214.097 264.759C207.488 263.223 200.602 262.412 193.529 262.412V266.412C200.295 266.412 206.877 267.188 213.192 268.655L214.097 264.759ZM193.529 262.412C143.531 262.412 103 302.943 103 352.941H107C107 305.152 145.741 266.412 193.529 266.412V262.412ZM103 352.941C103 402.939 143.531 443.471 193.529 443.471V439.471C145.741 439.471 107 400.73 107 352.941H103ZM193.529 443.471C193.882 443.471 194.235 443.469 194.586 443.465L194.541 439.465C194.204 439.469 193.867 439.471 193.529 439.471V443.471ZM196.129 442.709L196.134 442.703L192.993 440.226L192.988 440.232L196.129 442.709ZM505.441 439.471H194.559V443.471H505.441V439.471ZM503.441 441.465V441.471H507.441V441.465H503.441Z" fill="url(#paint1_linear_132_1882)" mask="url(#path-76-inside-1_132_1882)"/>
</g>
<defs>
<filter id="filter0_bd_132_1882" x="34" y="75" width="590" height="431.471" filterUnits="userSpaceOnUse" color-interpolation-filters="sRGB">
<feFlood flood-opacity="0" result="BackgroundImageFix"/>
<feGaussianBlur in="BackgroundImageFix" stdDeviation="7"/>
<feComposite in2="SourceAlpha" operator="in" result="effect1_backgroundBlur_132_1882"/>
<feColorMatrix in="SourceAlpha" type="matrix" values="0 0 0 0 0 0 0 0 0 0 0 0 0 0 0 0 0 0 127 0" result="hardAlpha"/>
<feOffset dx="-21" dy="15"/>
<feGaussianBlur stdDeviation="25"/>
<feComposite in2="hardAlpha" operator="out"/>
<feColorMatrix type="matrix" values="0 0 0 0 0.113725 0 0 0 0 0.14902 0 0 0 0 0.27451 0 0 0 0.25 0"/>
<feBlend mode="normal" in2="effect1_backgroundBlur_132_1882" result="effect2_dropShadow_132_1882"/>
<feBlend mode="normal" in="SourceGraphic" in2="effect2_dropShadow_132_1882" result="shape"/>
</filter>
<linearGradient id="paint0_linear_132_1882" x1="350" y1="3.97059" x2="350" y2="487.794" gradientUnits="userSpaceOnUse">
<stop stop-color="white"/>
<stop offset="1" stop-color="white" stop-opacity="0"/>
</linearGradient>
<linearGradient id="paint1_linear_132_1882" x1="350" y1="110" x2="350" y2="441.471" gradientUnits="userSpaceOnUse">
<stop stop-color="white"/>
<stop offset="1" stop-color="white" stop-opacity="0"/>
</linearGradient>
</defs>
</svg>
