<svg width="700" height="700" viewBox="0 0 700 700" fill="none" xmlns="http://www.w3.org/2000/svg">
<path d="M462.097 436.643C462.097 436.643 442.72 454.089 427.576 453.511C408.591 452.771 405.34 437.566 387.748 436.643C369.335 436.826 367.456 452.596 347.498 453.511C329.616 453.299 322.04 436.928 304.996 436.643C287.951 436.358 269.778 453.511 269.778 453.511" stroke="white" stroke-width="15" stroke-linecap="round"/>
<path d="M395.999 492.412C395.999 492.412 376.623 509.857 361.478 509.28C342.494 508.539 339.243 493.335 321.651 492.412C303.237 492.595 301.359 508.365 281.4 509.28C263.518 509.067 255.943 492.697 238.898 492.412C221.853 492.127 203.681 509.28 203.681 509.28" stroke="white" stroke-width="15" stroke-linecap="round"/>
<path d="M497.21 539.92C497.21 539.92 477.834 557.365 462.689 556.788C443.705 556.047 440.454 540.843 422.861 539.92C404.448 540.102 402.57 555.873 382.611 556.788C364.729 556.575 357.154 540.205 340.109 539.92C323.064 539.634 304.892 556.788 304.892 556.788" stroke="white" stroke-width="15" stroke-linecap="round"/>
<g filter="url(#filter0_bd_131_317)">
<mask id="path-4-inside-1_131_317" fill="white">
<path fill-rule="evenodd" clip-rule="evenodd" d="M505.442 475.466C505.785 475.469 506.127 475.471 506.471 475.471C555.364 475.471 595 435.835 595 386.942C595 338.048 555.364 298.412 506.471 298.412C506.127 298.412 505.785 298.414 505.442 298.418V298.412H482.57C483.396 292.354 483.823 286.168 483.823 279.883C483.823 204.837 422.986 144 347.941 144C272.895 144 212.058 204.837 212.058 279.883C212.058 286.964 212.6 293.918 213.644 300.707C207.182 299.206 200.448 298.412 193.53 298.412C144.636 298.412 105 338.048 105 386.942C105 435.835 144.636 475.471 193.53 475.471C193.875 475.471 194.22 475.469 194.564 475.466L194.559 475.471H505.442V475.466Z"/>
</mask>
<path fill-rule="evenodd" clip-rule="evenodd" d="M505.442 475.466C505.785 475.469 506.127 475.471 506.471 475.471C555.364 475.471 595 435.835 595 386.942C595 338.048 555.364 298.412 506.471 298.412C506.127 298.412 505.785 298.414 505.442 298.418V298.412H482.57C483.396 292.354 483.823 286.168 483.823 279.883C483.823 204.837 422.986 144 347.941 144C272.895 144 212.058 204.837 212.058 279.883C212.058 286.964 212.6 293.918 213.644 300.707C207.182 299.206 200.448 298.412 193.53 298.412C144.636 298.412 105 338.048 105 386.942C105 435.835 144.636 475.471 193.53 475.471C193.875 475.471 194.22 475.469 194.564 475.466L194.559 475.471H505.442V475.466Z" fill="url(#paint0_linear_131_317)" shape-rendering="crispEdges"/>
<path d="M505.442 475.466L505.465 473.466C504.931 473.46 504.416 473.668 504.036 474.043C503.656 474.419 503.442 474.931 503.442 475.466H505.442ZM505.442 298.418H503.442C503.442 298.953 503.656 299.465 504.036 299.841C504.416 300.216 504.931 300.424 505.465 300.418L505.442 298.418ZM505.442 298.412H507.442C507.442 297.308 506.547 296.412 505.442 296.412V298.412ZM482.57 298.412L480.589 298.142C480.511 298.714 480.684 299.293 481.064 299.728C481.443 300.163 481.993 300.412 482.57 300.412V298.412ZM213.644 300.707L213.191 302.656C213.838 302.806 214.517 302.625 215.004 302.174C215.49 301.723 215.722 301.06 215.621 300.403L213.644 300.707ZM194.564 475.466L196.134 476.704C196.612 476.099 196.699 475.274 196.359 474.583C196.018 473.891 195.312 473.457 194.541 473.466L194.564 475.466ZM194.559 475.471L192.989 474.233C192.514 474.835 192.425 475.655 192.76 476.344C193.094 477.034 193.793 477.471 194.559 477.471V475.471ZM505.442 475.471V477.471C506.547 477.471 507.442 476.576 507.442 475.471H505.442ZM505.419 477.465C505.769 477.469 506.12 477.471 506.471 477.471V473.471C506.135 473.471 505.8 473.47 505.465 473.466L505.419 477.465ZM506.471 477.471C556.469 477.471 597 436.94 597 386.942H593C593 434.731 554.26 473.471 506.471 473.471V477.471ZM597 386.942C597 336.944 556.469 296.412 506.471 296.412V300.412C554.26 300.412 593 339.153 593 386.942H597ZM506.471 296.412C506.12 296.412 505.769 296.414 505.419 296.418L505.465 300.418C505.8 300.414 506.135 300.412 506.471 300.412V296.412ZM503.442 298.412V298.418H507.442V298.412H503.442ZM482.57 300.412H505.442V296.412H482.57V300.412ZM484.552 298.683C485.39 292.535 485.823 286.259 485.823 279.883H481.823C481.823 286.077 481.402 292.173 480.589 298.142L484.552 298.683ZM485.823 279.883C485.823 203.732 424.091 142 347.941 142V146C421.882 146 481.823 205.941 481.823 279.883H485.823ZM347.941 142C271.79 142 210.058 203.732 210.058 279.883H214.058C214.058 205.941 273.999 146 347.941 146V142ZM210.058 279.883C210.058 287.066 210.608 294.122 211.667 301.011L215.621 300.403C214.592 293.715 214.058 286.862 214.058 279.883H210.058ZM214.097 298.759C207.487 297.224 200.602 296.412 193.53 296.412V300.412C200.295 300.412 206.877 301.188 213.191 302.656L214.097 298.759ZM193.53 296.412C143.531 296.412 103 336.944 103 386.942H107C107 339.153 145.741 300.412 193.53 300.412V296.412ZM103 386.942C103 436.94 143.531 477.471 193.53 477.471V473.471C145.741 473.471 107 434.731 107 386.942H103ZM193.53 477.471C193.882 477.471 194.235 477.469 194.587 477.465L194.541 473.466C194.204 473.469 193.867 473.471 193.53 473.471V477.471ZM196.13 476.71L196.134 476.704L192.994 474.227L192.989 474.233L196.13 476.71ZM505.442 473.471H194.559V477.471H505.442V473.471ZM503.442 475.466V475.471H507.442V475.466H503.442Z" fill="url(#paint1_linear_131_317)" mask="url(#path-4-inside-1_131_317)"/>
</g>
<defs>
<filter id="filter0_bd_131_317" x="34" y="109" width="590" height="431.472" filterUnits="userSpaceOnUse" color-interpolation-filters="sRGB">
<feFlood flood-opacity="0" result="BackgroundImageFix"/>
<feGaussianBlur in="BackgroundImageFix" stdDeviation="7"/>
<feComposite in2="SourceAlpha" operator="in" result="effect1_backgroundBlur_131_317"/>
<feColorMatrix in="SourceAlpha" type="matrix" values="0 0 0 0 0 0 0 0 0 0 0 0 0 0 0 0 0 0 127 0" result="hardAlpha"/>
<feOffset dx="-21" dy="15"/>
<feGaussianBlur stdDeviation="25"/>
<feComposite in2="hardAlpha" operator="out"/>
<feColorMatrix type="matrix" values="0 0 0 0 0.113725 0 0 0 0 0.14902 0 0 0 0 0.27451 0 0 0 0.25 0"/>
<feBlend mode="normal" in2="effect1_backgroundBlur_131_317" result="effect2_dropShadow_131_317"/>
<feBlend mode="normal" in="SourceGraphic" in2="effect2_dropShadow_131_317" result="shape"/>
</filter>
<linearGradient id="paint0_linear_131_317" x1="350" y1="37.9703" x2="350" y2="521.795" gradientUnits="userSpaceOnUse">
<stop stop-color="white"/>
<stop offset="1" stop-color="white" stop-opacity="0"/>
</linearGradient>
<linearGradient id="paint1_linear_131_317" x1="350" y1="144" x2="350" y2="475.471" gradientUnits="userSpaceOnUse">
<stop stop-color="white"/>
<stop offset="1" stop-color="white" stop-opacity="0"/>
</linearGradient>
</defs>
</svg>
