<svg width="700" height="700" viewBox="0 0 700 700" fill="none" xmlns="http://www.w3.org/2000/svg">
<g filter="url(#filter0_bdd_129_4)">
<mask id="path-1-inside-1_129_4" fill="white">
<path fill-rule="evenodd" clip-rule="evenodd" d="M337.843 147.301C341.308 146.878 343.345 150.957 341.347 153.82C323.371 179.587 319.894 214.195 335.265 244.078C355.395 283.214 400.918 300.764 441.363 286.956C444.669 285.828 448.025 288.919 446.655 292.133C437.43 313.767 420.886 332.431 398.337 344.029C347.003 370.434 283.984 350.225 257.579 298.891C231.175 247.557 251.384 184.537 302.718 158.133C314.031 152.313 325.912 148.758 337.843 147.301Z"/>
</mask>
<path fill-rule="evenodd" clip-rule="evenodd" d="M337.843 147.301C341.308 146.878 343.345 150.957 341.347 153.82C323.371 179.587 319.894 214.195 335.265 244.078C355.395 283.214 400.918 300.764 441.363 286.956C444.669 285.828 448.025 288.919 446.655 292.133C437.43 313.767 420.886 332.431 398.337 344.029C347.003 370.434 283.984 350.225 257.579 298.891C231.175 247.557 251.384 184.537 302.718 158.133C314.031 152.313 325.912 148.758 337.843 147.301Z" fill="url(#paint0_linear_129_4)"/>
<path d="M257.579 298.891L255.801 299.805L257.579 298.891ZM302.718 158.133L303.633 159.911L302.718 158.133ZM441.363 286.956L442.009 288.849L441.363 286.956ZM341.347 153.82L339.707 152.676L341.347 153.82ZM337.043 243.163C322.025 213.965 325.419 180.148 342.987 154.964L339.707 152.676C321.324 179.026 317.763 214.425 333.486 244.993L337.043 243.163ZM440.716 285.064C401.197 298.555 356.713 281.404 337.043 243.163L333.486 244.993C354.077 285.024 400.639 302.972 442.009 288.849L440.716 285.064ZM444.815 291.348C435.766 312.57 419.542 330.873 397.422 342.251L399.252 345.808C422.231 333.988 439.093 314.965 448.495 292.917L444.815 291.348ZM397.422 342.251C347.071 368.15 285.257 348.327 259.358 297.976L255.801 299.805C282.711 352.122 346.936 372.718 399.252 345.808L397.422 342.251ZM259.358 297.976C233.458 247.624 253.281 185.811 303.633 159.911L301.803 156.354C249.487 183.264 228.891 247.489 255.801 299.805L259.358 297.976ZM303.633 159.911C314.733 154.202 326.385 150.715 338.085 149.287L337.601 145.316C325.438 146.801 313.329 150.425 301.803 156.354L303.633 159.911ZM442.009 288.849C442.904 288.544 443.799 288.805 444.381 289.362C444.939 289.895 445.133 290.603 444.815 291.348L448.495 292.917C449.547 290.448 448.749 288.004 447.145 286.47C445.564 284.96 443.128 284.24 440.716 285.064L442.009 288.849ZM342.987 154.964C344.444 152.876 344.428 150.338 343.416 148.402C342.388 146.436 340.263 144.991 337.601 145.316L338.085 149.287C338.888 149.189 339.514 149.571 339.871 150.255C340.244 150.968 340.248 151.9 339.707 152.676L342.987 154.964Z" fill="url(#paint1_linear_129_4)" mask="url(#path-1-inside-1_129_4)"/>
</g>
<mask id="mask0_129_4" style="mask-type:alpha" maskUnits="userSpaceOnUse" x="288" y="280" width="191" height="138">
<path d="M478.947 321.99C478.947 374.511 436.37 417.088 383.849 417.088C331.327 417.088 288.75 374.511 288.75 321.99C288.75 269.468 324.074 281.694 376.595 281.694C429.117 281.694 478.947 269.468 478.947 321.99Z" fill="url(#paint2_linear_129_4)"/>
</mask>
<g mask="url(#mask0_129_4)">
<g filter="url(#filter1_f_129_4)">
<path fill-rule="evenodd" clip-rule="evenodd" d="M215.415 565.374C215.145 565.377 214.875 565.378 214.605 565.378C176.327 565.378 145.296 534.347 145.296 496.069C145.296 457.791 176.327 426.76 214.605 426.76C247.6 426.76 275.21 449.815 282.203 480.695L305.674 450.937L379.013 426.76H458.799V426.764C459.067 426.761 459.336 426.76 459.605 426.76C497.884 426.76 528.914 457.791 528.914 496.069C528.914 534.347 497.884 565.378 459.605 565.378C459.336 565.378 459.067 565.377 458.799 565.374V565.378H215.411L215.415 565.374Z" fill="#E18700"/>
</g>
</g>
<g filter="url(#filter2_bd_129_4)">
<mask id="path-5-inside-2_129_4" fill="white">
<path fill-rule="evenodd" clip-rule="evenodd" d="M418.503 573.432C418.772 573.435 419.04 573.436 419.309 573.436C457.588 573.436 488.618 542.405 488.618 504.127C488.618 465.849 457.588 434.818 419.309 434.818C419.04 434.818 418.772 434.819 418.503 434.822V434.818H400.598C401.245 430.075 401.579 425.232 401.579 420.311C401.579 361.558 353.95 313.93 295.197 313.93C236.444 313.93 188.816 361.558 188.816 420.311C188.816 425.855 189.24 431.3 190.057 436.615C184.998 435.439 179.726 434.818 174.309 434.818C136.031 434.818 105 465.849 105 504.127C105 542.405 136.031 573.436 174.309 573.436C174.579 573.436 174.849 573.435 175.119 573.432L175.115 573.436H418.503V573.432Z"/>
</mask>
<path fill-rule="evenodd" clip-rule="evenodd" d="M418.503 573.432C418.772 573.435 419.04 573.436 419.309 573.436C457.588 573.436 488.618 542.405 488.618 504.127C488.618 465.849 457.588 434.818 419.309 434.818C419.04 434.818 418.772 434.819 418.503 434.822V434.818H400.598C401.245 430.075 401.579 425.232 401.579 420.311C401.579 361.558 353.95 313.93 295.197 313.93C236.444 313.93 188.816 361.558 188.816 420.311C188.816 425.855 189.24 431.3 190.057 436.615C184.998 435.439 179.726 434.818 174.309 434.818C136.031 434.818 105 465.849 105 504.127C105 542.405 136.031 573.436 174.309 573.436C174.579 573.436 174.849 573.435 175.119 573.432L175.115 573.436H418.503V573.432Z" fill="url(#paint3_linear_129_4)" shape-rendering="crispEdges"/>
<path d="M418.503 573.432L418.526 571.432C417.992 571.426 417.477 571.634 417.097 572.009C416.717 572.385 416.503 572.897 416.503 573.432H418.503ZM418.503 434.822H416.503C416.503 435.357 416.717 435.869 417.097 436.245C417.477 436.62 417.992 436.828 418.526 436.822L418.503 434.822ZM418.503 434.818H420.503C420.503 433.713 419.608 432.818 418.503 432.818V434.818ZM400.598 434.818L398.616 434.548C398.538 435.12 398.712 435.698 399.091 436.133C399.471 436.568 400.021 436.818 400.598 436.818V434.818ZM190.057 436.615L189.605 438.563C190.251 438.713 190.93 438.533 191.417 438.081C191.904 437.63 192.135 436.967 192.034 436.311L190.057 436.615ZM175.119 573.432L176.69 574.669C177.166 574.064 177.253 573.239 176.913 572.548C176.573 571.857 175.866 571.423 175.096 571.432L175.119 573.432ZM175.115 573.436L173.544 572.199C173.07 572.8 172.981 573.62 173.316 574.309C173.65 574.999 174.349 575.436 175.115 575.436V573.436ZM418.503 573.436V575.436C419.608 575.436 420.503 574.541 420.503 573.436H418.503ZM418.481 575.432C418.756 575.435 419.033 575.436 419.309 575.436V571.436C419.048 571.436 418.787 571.435 418.526 571.432L418.481 575.432ZM419.309 575.436C458.692 575.436 490.618 543.51 490.618 504.127H486.618C486.618 541.301 456.483 571.436 419.309 571.436V575.436ZM490.618 504.127C490.618 464.744 458.692 432.818 419.309 432.818V436.818C456.483 436.818 486.618 466.953 486.618 504.127H490.618ZM419.309 432.818C419.033 432.818 418.756 432.819 418.48 432.823L418.526 436.822C418.787 436.819 419.048 436.818 419.309 436.818V432.818ZM416.503 434.818V434.822H420.503V434.818H416.503ZM400.598 436.818H418.503V432.818H400.598V436.818ZM402.58 435.088C403.239 430.256 403.579 425.323 403.579 420.311H399.579C399.579 425.141 399.251 429.894 398.616 434.548L402.58 435.088ZM403.579 420.311C403.579 360.454 355.055 311.93 295.197 311.93V315.93C352.846 315.93 399.579 362.663 399.579 420.311H403.579ZM295.197 311.93C235.34 311.93 186.816 360.454 186.816 420.311H190.816C190.816 362.663 237.549 315.93 295.197 315.93V311.93ZM186.816 420.311C186.816 425.957 187.248 431.504 188.081 436.919L192.034 436.311C191.232 431.096 190.816 425.753 190.816 420.311H186.816ZM190.51 434.667C185.303 433.457 179.88 432.818 174.309 432.818V436.818C179.573 436.818 184.693 437.422 189.605 438.563L190.51 434.667ZM174.309 432.818C134.926 432.818 103 464.744 103 504.127H107C107 466.953 137.135 436.818 174.309 436.818V432.818ZM103 504.127C103 543.51 134.926 575.436 174.309 575.436V571.436C137.135 571.436 107 541.301 107 504.127H103ZM174.309 575.436C174.587 575.436 174.865 575.435 175.142 575.431L175.096 571.432C174.834 571.435 174.572 571.436 174.309 571.436V575.436ZM176.686 574.674L176.69 574.669L173.548 572.194L173.544 572.199L176.686 574.674ZM418.503 571.436H175.115V575.436H418.503V571.436ZM416.503 573.432V573.436H420.503V573.432H416.503Z" fill="url(#paint4_linear_129_4)" mask="url(#path-5-inside-2_129_4)"/>
</g>
<g filter="url(#filter3_bd_129_4)">
<mask id="path-7-inside-3_129_4" fill="white">
<path fill-rule="evenodd" clip-rule="evenodd" d="M544.328 501.47C544.522 501.472 544.717 501.473 544.911 501.473C572.575 501.473 595 479.047 595 451.384C595 423.721 572.575 401.295 544.911 401.295C544.717 401.295 544.522 401.296 544.328 401.298V401.295H531.39C531.857 397.867 532.098 394.367 532.098 390.81C532.098 348.35 497.678 313.93 455.218 313.93C412.758 313.93 378.337 348.35 378.337 390.81C378.337 394.817 378.643 398.752 379.234 402.594C375.578 401.744 371.768 401.295 367.853 401.295C340.189 401.295 317.764 423.721 317.764 451.384C317.764 479.047 340.189 501.473 367.853 501.473C368.048 501.473 368.242 501.472 368.437 501.47L368.434 501.473H544.328V501.47Z"/>
</mask>
<path fill-rule="evenodd" clip-rule="evenodd" d="M544.328 501.47C544.522 501.472 544.717 501.473 544.911 501.473C572.575 501.473 595 479.047 595 451.384C595 423.721 572.575 401.295 544.911 401.295C544.717 401.295 544.522 401.296 544.328 401.298V401.295H531.39C531.857 397.867 532.098 394.367 532.098 390.81C532.098 348.35 497.678 313.93 455.218 313.93C412.758 313.93 378.337 348.35 378.337 390.81C378.337 394.817 378.643 398.752 379.234 402.594C375.578 401.744 371.768 401.295 367.853 401.295C340.189 401.295 317.764 423.721 317.764 451.384C317.764 479.047 340.189 501.473 367.853 501.473C368.048 501.473 368.242 501.472 368.437 501.47L368.434 501.473H544.328V501.47Z" fill="url(#paint5_linear_129_4)" shape-rendering="crispEdges"/>
<path d="M544.328 501.47L544.351 499.47C543.817 499.464 543.302 499.672 542.922 500.047C542.542 500.423 542.328 500.935 542.328 501.47H544.328ZM544.328 401.298H542.328C542.328 401.833 542.542 402.345 542.922 402.721C543.302 403.096 543.817 403.304 544.351 403.298L544.328 401.298ZM544.328 401.295H546.328C546.328 400.19 545.433 399.295 544.328 399.295V401.295ZM531.39 401.295L529.408 401.025C529.33 401.597 529.503 402.175 529.883 402.61C530.263 403.045 530.812 403.295 531.39 403.295V401.295ZM379.234 402.594L378.782 404.542C379.428 404.692 380.107 404.512 380.594 404.06C381.081 403.609 381.312 402.946 381.211 402.29L379.234 402.594ZM368.437 501.47L370.008 502.707C370.485 502.102 370.572 501.277 370.231 500.586C369.891 499.895 369.184 499.461 368.414 499.47L368.437 501.47ZM368.434 501.473L366.863 500.235C366.389 500.837 366.301 501.657 366.635 502.346C366.97 503.035 367.668 503.473 368.434 503.473V501.473ZM544.328 501.473V503.473C545.433 503.473 546.328 502.578 546.328 501.473H544.328ZM544.306 503.47C544.507 503.472 544.709 503.473 544.911 503.473V499.473C544.724 499.473 544.538 499.472 544.351 499.47L544.306 503.47ZM544.911 503.473C573.679 503.473 597 480.152 597 451.384H593C593 477.943 571.47 499.473 544.911 499.473V503.473ZM597 451.384C597 422.616 573.679 399.295 544.911 399.295V403.295C571.47 403.295 593 424.825 593 451.384H597ZM544.911 399.295C544.709 399.295 544.507 399.296 544.306 399.298L544.351 403.298C544.538 403.296 544.724 403.295 544.911 403.295V399.295ZM542.328 401.295V401.298H546.328V401.295H542.328ZM531.39 403.295H544.328V399.295H531.39V403.295ZM533.371 401.565C533.851 398.048 534.098 394.458 534.098 390.81H530.098C530.098 394.276 529.863 397.686 529.408 401.025L533.371 401.565ZM534.098 390.81C534.098 347.246 498.782 311.93 455.218 311.93V315.93C496.573 315.93 530.098 349.455 530.098 390.81H534.098ZM455.218 311.93C411.653 311.93 376.337 347.246 376.337 390.81H380.337C380.337 349.455 413.862 315.93 455.218 315.93V311.93ZM376.337 390.81C376.337 394.919 376.651 398.956 377.257 402.898L381.211 402.29C380.636 398.549 380.337 394.715 380.337 390.81H376.337ZM379.687 400.646C375.883 399.762 371.921 399.295 367.853 399.295V403.295C371.614 403.295 375.272 403.726 378.782 404.542L379.687 400.646ZM367.853 399.295C339.085 399.295 315.764 422.616 315.764 451.384H319.764C319.764 424.825 341.294 403.295 367.853 403.295V399.295ZM315.764 451.384C315.764 480.152 339.085 503.473 367.853 503.473V499.473C341.294 499.473 319.764 477.943 319.764 451.384H315.764ZM367.853 503.473C368.055 503.473 368.258 503.472 368.46 503.47L368.414 499.47C368.227 499.472 368.04 499.473 367.853 499.473V503.473ZM370.006 502.711L370.008 502.707L366.866 500.232L366.863 500.235L370.006 502.711ZM544.328 499.473H368.434V503.473H544.328V499.473ZM542.328 501.47V501.473H546.328V501.47H542.328Z" fill="url(#paint6_linear_129_4)" mask="url(#path-7-inside-3_129_4)"/>
</g>
<defs>
<filter id="filter0_bdd_129_4" x="174.982" y="109.271" width="309.987" height="311.355" filterUnits="userSpaceOnUse" color-interpolation-filters="sRGB">
<feFlood flood-opacity="0" result="BackgroundImageFix"/>
<feGaussianBlur in="BackgroundImageFix" stdDeviation="7"/>
<feComposite in2="SourceAlpha" operator="in" result="effect1_backgroundBlur_129_4"/>
<feColorMatrix in="SourceAlpha" type="matrix" values="0 0 0 0 0 0 0 0 0 0 0 0 0 0 0 0 0 0 127 0" result="hardAlpha"/>
<feOffset dx="-21" dy="15"/>
<feGaussianBlur stdDeviation="25"/>
<feComposite in2="hardAlpha" operator="out"/>
<feColorMatrix type="matrix" values="0 0 0 0 0.113438 0 0 0 0 0.148981 0 0 0 0 0.275 0 0 0 0.25 0"/>
<feBlend mode="normal" in2="effect1_backgroundBlur_129_4" result="effect2_dropShadow_129_4"/>
<feColorMatrix in="SourceAlpha" type="matrix" values="0 0 0 0 0 0 0 0 0 0 0 0 0 0 0 0 0 0 127 0" result="hardAlpha"/>
<feOffset/>
<feGaussianBlur stdDeviation="19"/>
<feComposite in2="hardAlpha" operator="out"/>
<feColorMatrix type="matrix" values="0 0 0 0 0.619608 0 0 0 0 0.423529 0 0 0 0 1 0 0 0 0.4 0"/>
<feBlend mode="normal" in2="effect2_dropShadow_129_4" result="effect3_dropShadow_129_4"/>
<feBlend mode="normal" in="SourceGraphic" in2="effect3_dropShadow_129_4" result="shape"/>
</filter>
<filter id="filter1_f_129_4" x="131.296" y="412.76" width="411.618" height="166.618" filterUnits="userSpaceOnUse" color-interpolation-filters="sRGB">
<feFlood flood-opacity="0" result="BackgroundImageFix"/>
<feBlend mode="normal" in="SourceGraphic" in2="BackgroundImageFix" result="shape"/>
<feGaussianBlur stdDeviation="7" result="effect1_foregroundBlur_129_4"/>
</filter>
<filter id="filter2_bd_129_4" x="34" y="278.93" width="483.618" height="359.507" filterUnits="userSpaceOnUse" color-interpolation-filters="sRGB">
<feFlood flood-opacity="0" result="BackgroundImageFix"/>
<feGaussianBlur in="BackgroundImageFix" stdDeviation="7"/>
<feComposite in2="SourceAlpha" operator="in" result="effect1_backgroundBlur_129_4"/>
<feColorMatrix in="SourceAlpha" type="matrix" values="0 0 0 0 0 0 0 0 0 0 0 0 0 0 0 0 0 0 127 0" result="hardAlpha"/>
<feOffset dx="-21" dy="15"/>
<feGaussianBlur stdDeviation="25"/>
<feComposite in2="hardAlpha" operator="out"/>
<feColorMatrix type="matrix" values="0 0 0 0 0.113725 0 0 0 0 0.14902 0 0 0 0 0.27451 0 0 0 0.25 0"/>
<feBlend mode="normal" in2="effect1_backgroundBlur_129_4" result="effect2_dropShadow_129_4"/>
<feBlend mode="normal" in="SourceGraphic" in2="effect2_dropShadow_129_4" result="shape"/>
</filter>
<filter id="filter3_bd_129_4" x="246.764" y="278.93" width="377.236" height="287.543" filterUnits="userSpaceOnUse" color-interpolation-filters="sRGB">
<feFlood flood-opacity="0" result="BackgroundImageFix"/>
<feGaussianBlur in="BackgroundImageFix" stdDeviation="7"/>
<feComposite in2="SourceAlpha" operator="in" result="effect1_backgroundBlur_129_4"/>
<feColorMatrix in="SourceAlpha" type="matrix" values="0 0 0 0 0 0 0 0 0 0 0 0 0 0 0 0 0 0 127 0" result="hardAlpha"/>
<feOffset dx="-21" dy="15"/>
<feGaussianBlur stdDeviation="25"/>
<feComposite in2="hardAlpha" operator="out"/>
<feColorMatrix type="matrix" values="0 0 0 0 0.113438 0 0 0 0 0.148981 0 0 0 0 0.275 0 0 0 0.25 0"/>
<feBlend mode="normal" in2="effect1_backgroundBlur_129_4" result="effect2_dropShadow_129_4"/>
<feBlend mode="normal" in="SourceGraphic" in2="effect2_dropShadow_129_4" result="shape"/>
</filter>
<linearGradient id="paint0_linear_129_4" x1="283.865" y1="169.901" x2="379.484" y2="355.797" gradientUnits="userSpaceOnUse">
<stop offset="0.0001" stop-color="#D4C0FF"/>
<stop offset="1" stop-color="#7E2FFF"/>
</linearGradient>
<linearGradient id="paint1_linear_129_4" x1="294.744" y1="67.4416" x2="354.764" y2="311.414" gradientUnits="userSpaceOnUse">
<stop stop-color="white"/>
<stop offset="1" stop-color="white" stop-opacity="0"/>
</linearGradient>
<linearGradient id="paint2_linear_129_4" x1="383.849" y1="226.891" x2="383.849" y2="417.088" gradientUnits="userSpaceOnUse">
<stop stop-color="#FFD600"/>
<stop offset="1" stop-color="#FF7A00"/>
</linearGradient>
<linearGradient id="paint3_linear_129_4" x1="296.809" y1="230.92" x2="296.809" y2="609.703" gradientUnits="userSpaceOnUse">
<stop stop-color="white"/>
<stop offset="1" stop-color="white" stop-opacity="0"/>
</linearGradient>
<linearGradient id="paint4_linear_129_4" x1="296.809" y1="313.93" x2="296.809" y2="573.436" gradientUnits="userSpaceOnUse">
<stop stop-color="white"/>
<stop offset="1" stop-color="white" stop-opacity="0"/>
</linearGradient>
<linearGradient id="paint5_linear_129_4" x1="469.277" y1="319.571" x2="469.277" y2="522.664" gradientUnits="userSpaceOnUse">
<stop stop-color="white"/>
<stop offset="1" stop-color="white" stop-opacity="0"/>
</linearGradient>
<linearGradient id="paint6_linear_129_4" x1="456.382" y1="313.93" x2="456.382" y2="501.473" gradientUnits="userSpaceOnUse">
<stop stop-color="white"/>
<stop offset="1" stop-color="white" stop-opacity="0"/>
</linearGradient>
</defs>
</svg>
