<svg width="700" height="700" viewBox="0 0 700 700" fill="none" xmlns="http://www.w3.org/2000/svg">
<g filter="url(#filter0_f_2_565)">
<circle cx="383.849" cy="272.322" r="98.3224" fill="#FFC701" fill-opacity="0.5"/>
</g>
<path d="M477.947 275.546C477.947 327.515 435.818 369.645 383.849 369.645C331.879 369.645 289.75 327.515 289.75 275.546C289.75 223.577 331.879 181.447 383.849 181.447C435.818 181.447 477.947 223.577 477.947 275.546Z" fill="url(#paint0_linear_2_565)" stroke="url(#paint1_linear_2_565)" stroke-width="2"/>
<mask id="mask0_2_565" style="mask-type:alpha" maskUnits="userSpaceOnUse" x="288" y="234" width="191" height="137">
<path d="M478.947 275.546C478.947 328.068 436.37 370.645 383.849 370.645C331.327 370.645 288.75 328.068 288.75 275.546C288.75 223.025 324.074 235.25 376.595 235.25C429.117 235.25 478.947 223.025 478.947 275.546Z" fill="url(#paint2_linear_2_565)"/>
</mask>
<g mask="url(#mask0_2_565)">
<g filter="url(#filter1_f_2_565)">
<path fill-rule="evenodd" clip-rule="evenodd" d="M458.799 518.93C459.067 518.933 459.336 518.934 459.605 518.934C497.884 518.934 528.914 487.904 528.914 449.625C528.914 411.347 497.884 380.316 459.605 380.316C459.336 380.316 459.067 380.317 458.799 380.321V380.316H414.615C415.582 374.55 416.085 368.627 416.085 362.586C416.085 303.833 368.457 256.204 309.704 256.204C250.951 256.204 203.322 303.833 203.322 362.586C203.322 368.862 203.866 375.011 204.908 380.989C171.22 385.705 145.296 414.638 145.296 449.625C145.296 487.904 176.327 518.934 214.605 518.934C214.875 518.934 215.145 518.933 215.415 518.93L215.411 518.934H458.799V518.93Z" fill="#E18700"/>
</g>
</g>
<g filter="url(#filter2_bd_2_565)">
<mask id="path-5-inside-1_2_565" fill="white">
<path fill-rule="evenodd" clip-rule="evenodd" d="M418.503 526.989C418.772 526.992 419.04 526.993 419.309 526.993C457.588 526.993 488.618 495.963 488.618 457.684C488.618 419.406 457.588 388.375 419.309 388.375C419.04 388.375 418.772 388.376 418.503 388.38V388.375H400.598C401.245 383.632 401.579 378.789 401.579 373.868C401.579 315.115 353.95 267.487 295.197 267.487C236.444 267.487 188.816 315.115 188.816 373.868C188.816 379.412 189.24 384.857 190.057 390.172C184.998 388.996 179.726 388.375 174.309 388.375C136.031 388.375 105 419.406 105 457.684C105 495.963 136.031 526.993 174.309 526.993C174.579 526.993 174.849 526.992 175.119 526.989L175.115 526.993H418.503V526.989Z"/>
</mask>
<path fill-rule="evenodd" clip-rule="evenodd" d="M418.503 526.989C418.772 526.992 419.04 526.993 419.309 526.993C457.588 526.993 488.618 495.963 488.618 457.684C488.618 419.406 457.588 388.375 419.309 388.375C419.04 388.375 418.772 388.376 418.503 388.38V388.375H400.598C401.245 383.632 401.579 378.789 401.579 373.868C401.579 315.115 353.95 267.487 295.197 267.487C236.444 267.487 188.816 315.115 188.816 373.868C188.816 379.412 189.24 384.857 190.057 390.172C184.998 388.996 179.726 388.375 174.309 388.375C136.031 388.375 105 419.406 105 457.684C105 495.963 136.031 526.993 174.309 526.993C174.579 526.993 174.849 526.992 175.119 526.989L175.115 526.993H418.503V526.989Z" fill="url(#paint3_linear_2_565)" shape-rendering="crispEdges"/>
<path d="M418.503 526.989L418.526 524.989C417.992 524.983 417.477 525.191 417.097 525.567C416.717 525.942 416.503 526.454 416.503 526.989H418.503ZM418.503 388.38H416.503C416.503 388.914 416.717 389.426 417.097 389.802C417.477 390.178 417.992 390.386 418.526 390.379L418.503 388.38ZM418.503 388.375H420.503C420.503 387.27 419.608 386.375 418.503 386.375V388.375ZM400.598 388.375L398.616 388.105C398.538 388.677 398.712 389.255 399.091 389.69C399.471 390.125 400.021 390.375 400.598 390.375V388.375ZM190.057 390.172L189.605 392.12C190.251 392.27 190.93 392.09 191.417 391.639C191.904 391.187 192.135 390.524 192.034 389.868L190.057 390.172ZM175.119 526.989L176.69 528.226C177.166 527.621 177.253 526.796 176.913 526.105C176.573 525.414 175.866 524.98 175.096 524.989L175.119 526.989ZM175.115 526.993L173.544 525.756C173.07 526.357 172.981 527.177 173.316 527.866C173.65 528.556 174.349 528.993 175.115 528.993V526.993ZM418.503 526.993V528.993C419.608 528.993 420.503 528.098 420.503 526.993H418.503ZM418.481 528.989C418.756 528.992 419.033 528.993 419.309 528.993V524.993C419.048 524.993 418.787 524.992 418.526 524.989L418.481 528.989ZM419.309 528.993C458.692 528.993 490.618 497.067 490.618 457.684H486.618C486.618 494.858 456.483 524.993 419.309 524.993V528.993ZM490.618 457.684C490.618 418.301 458.692 386.375 419.309 386.375V390.375C456.483 390.375 486.618 420.51 486.618 457.684H490.618ZM419.309 386.375C419.033 386.375 418.756 386.377 418.48 386.38L418.526 390.379C418.787 390.376 419.048 390.375 419.309 390.375V386.375ZM416.503 388.375V388.38H420.503V388.375H416.503ZM400.598 390.375H418.503V386.375H400.598V390.375ZM402.58 388.645C403.239 383.813 403.579 378.88 403.579 373.868H399.579C399.579 378.698 399.251 383.451 398.616 388.105L402.58 388.645ZM403.579 373.868C403.579 314.011 355.055 265.487 295.197 265.487V269.487C352.846 269.487 399.579 316.22 399.579 373.868H403.579ZM295.197 265.487C235.34 265.487 186.816 314.011 186.816 373.868H190.816C190.816 316.22 237.549 269.487 295.197 269.487V265.487ZM186.816 373.868C186.816 379.514 187.248 385.061 188.081 390.476L192.034 389.868C191.232 384.653 190.816 379.31 190.816 373.868H186.816ZM190.51 388.224C185.303 387.014 179.88 386.375 174.309 386.375V390.375C179.573 390.375 184.693 390.979 189.605 392.12L190.51 388.224ZM174.309 386.375C134.926 386.375 103 418.301 103 457.684H107C107 420.51 137.135 390.375 174.309 390.375V386.375ZM103 457.684C103 497.067 134.926 528.993 174.309 528.993V524.993C137.135 524.993 107 494.858 107 457.684H103ZM174.309 528.993C174.587 528.993 174.865 528.992 175.142 528.989L175.096 524.989C174.834 524.992 174.572 524.993 174.309 524.993V528.993ZM176.686 528.231L176.69 528.226L173.548 525.751L173.544 525.756L176.686 528.231ZM418.503 524.993H175.115V528.993H418.503V524.993ZM416.503 526.989V526.993H420.503V526.989H416.503Z" fill="url(#paint4_linear_2_565)" mask="url(#path-5-inside-1_2_565)"/>
</g>
<g filter="url(#filter3_bd_2_565)">
<mask id="path-7-inside-2_2_565" fill="white">
<path fill-rule="evenodd" clip-rule="evenodd" d="M544.328 455.026C544.522 455.028 544.717 455.029 544.911 455.029C572.575 455.029 595 432.604 595 404.94C595 377.277 572.575 354.851 544.911 354.851C544.717 354.851 544.522 354.852 544.328 354.855V354.851H531.39C531.857 351.423 532.098 347.924 532.098 344.368C532.098 301.908 497.678 267.487 455.218 267.487C412.758 267.487 378.337 301.908 378.337 344.368C378.337 348.374 378.643 352.309 379.234 356.15C375.578 355.3 371.768 354.851 367.853 354.851C340.189 354.851 317.764 377.277 317.764 404.94C317.764 432.604 340.189 455.029 367.853 455.029C368.048 455.029 368.242 455.028 368.437 455.026L368.434 455.029H544.328V455.026Z"/>
</mask>
<path fill-rule="evenodd" clip-rule="evenodd" d="M544.328 455.026C544.522 455.028 544.717 455.029 544.911 455.029C572.575 455.029 595 432.604 595 404.94C595 377.277 572.575 354.851 544.911 354.851C544.717 354.851 544.522 354.852 544.328 354.855V354.851H531.39C531.857 351.423 532.098 347.924 532.098 344.368C532.098 301.908 497.678 267.487 455.218 267.487C412.758 267.487 378.337 301.908 378.337 344.368C378.337 348.374 378.643 352.309 379.234 356.15C375.578 355.3 371.768 354.851 367.853 354.851C340.189 354.851 317.764 377.277 317.764 404.94C317.764 432.604 340.189 455.029 367.853 455.029C368.048 455.029 368.242 455.028 368.437 455.026L368.434 455.029H544.328V455.026Z" fill="url(#paint5_linear_2_565)" shape-rendering="crispEdges"/>
<path d="M544.328 455.026L544.351 453.026C543.817 453.02 543.302 453.228 542.922 453.604C542.542 453.979 542.328 454.492 542.328 455.026H544.328ZM544.328 354.855H542.328C542.328 355.389 542.542 355.901 542.922 356.277C543.302 356.653 543.817 356.861 544.351 356.855L544.328 354.855ZM544.328 354.851H546.328C546.328 353.747 545.433 352.851 544.328 352.851V354.851ZM531.39 354.851L529.408 354.581C529.33 355.153 529.503 355.731 529.883 356.167C530.263 356.602 530.812 356.851 531.39 356.851V354.851ZM379.234 356.15L378.781 358.098C379.428 358.248 380.107 358.068 380.594 357.617C381.081 357.165 381.312 356.502 381.211 355.846L379.234 356.15ZM368.437 455.026L370.008 456.264C370.485 455.659 370.572 454.834 370.231 454.143C369.891 453.452 369.184 453.017 368.414 453.026L368.437 455.026ZM368.434 455.029L366.863 453.792C366.389 454.393 366.301 455.213 366.635 455.902C366.969 456.592 367.668 457.029 368.434 457.029V455.029ZM544.328 455.029V457.029C545.433 457.029 546.328 456.134 546.328 455.029H544.328ZM544.306 457.026C544.507 457.028 544.709 457.029 544.911 457.029V453.029C544.724 453.029 544.538 453.028 544.351 453.026L544.306 457.026ZM544.911 457.029C573.679 457.029 597 433.708 597 404.94H593C593 431.499 571.47 453.029 544.911 453.029V457.029ZM597 404.94C597 376.172 573.679 352.851 544.911 352.851V356.851C571.47 356.851 593 378.382 593 404.94H597ZM544.911 352.851C544.709 352.851 544.507 352.852 544.306 352.855L544.351 356.855C544.538 356.852 544.724 356.851 544.911 356.851V352.851ZM542.328 354.851V354.855H546.328V354.851H542.328ZM531.39 356.851H544.328V352.851H531.39V356.851ZM533.371 355.122C533.851 351.604 534.098 348.014 534.098 344.368H530.098C530.098 347.833 529.863 351.243 529.408 354.581L533.371 355.122ZM534.098 344.368C534.098 300.803 498.782 265.487 455.218 265.487V269.487C496.573 269.487 530.098 303.012 530.098 344.368H534.098ZM455.218 265.487C411.653 265.487 376.337 300.803 376.337 344.368H380.337C380.337 303.012 413.862 269.487 455.218 269.487V265.487ZM376.337 344.368C376.337 348.476 376.651 352.513 377.257 356.454L381.211 355.846C380.635 352.105 380.337 348.272 380.337 344.368H376.337ZM379.687 354.202C375.883 353.318 371.921 352.851 367.853 352.851V356.851C371.614 356.851 375.272 357.283 378.781 358.098L379.687 354.202ZM367.853 352.851C339.085 352.851 315.764 376.172 315.764 404.94H319.764C319.764 378.382 341.294 356.851 367.853 356.851V352.851ZM315.764 404.94C315.764 433.708 339.085 457.029 367.853 457.029V453.029C341.294 453.029 319.764 431.499 319.764 404.94H315.764ZM367.853 457.029C368.055 457.029 368.258 457.028 368.46 457.026L368.414 453.026C368.227 453.028 368.04 453.029 367.853 453.029V457.029ZM370.005 456.267L370.008 456.264L366.866 453.788L366.863 453.792L370.005 456.267ZM544.328 453.029H368.434V457.029H544.328V453.029ZM542.328 455.026V455.029H546.328V455.026H542.328Z" fill="url(#paint6_linear_2_565)" mask="url(#path-7-inside-2_2_565)"/>
</g>
<defs>
<filter id="filter0_f_2_565" x="241.526" y="130" width="284.645" height="284.645" filterUnits="userSpaceOnUse" color-interpolation-filters="sRGB">
<feFlood flood-opacity="0" result="BackgroundImageFix"/>
<feBlend mode="normal" in="SourceGraphic" in2="BackgroundImageFix" result="shape"/>
<feGaussianBlur stdDeviation="22" result="effect1_foregroundBlur_2_565"/>
</filter>
<filter id="filter1_f_2_565" x="131.296" y="242.204" width="411.618" height="290.73" filterUnits="userSpaceOnUse" color-interpolation-filters="sRGB">
<feFlood flood-opacity="0" result="BackgroundImageFix"/>
<feBlend mode="normal" in="SourceGraphic" in2="BackgroundImageFix" result="shape"/>
<feGaussianBlur stdDeviation="7" result="effect1_foregroundBlur_2_565"/>
</filter>
<filter id="filter2_bd_2_565" x="34" y="232.487" width="483.618" height="359.506" filterUnits="userSpaceOnUse" color-interpolation-filters="sRGB">
<feFlood flood-opacity="0" result="BackgroundImageFix"/>
<feGaussianBlur in="BackgroundImageFix" stdDeviation="7"/>
<feComposite in2="SourceAlpha" operator="in" result="effect1_backgroundBlur_2_565"/>
<feColorMatrix in="SourceAlpha" type="matrix" values="0 0 0 0 0 0 0 0 0 0 0 0 0 0 0 0 0 0 127 0" result="hardAlpha"/>
<feOffset dx="-21" dy="15"/>
<feGaussianBlur stdDeviation="25"/>
<feComposite in2="hardAlpha" operator="out"/>
<feColorMatrix type="matrix" values="0 0 0 0 0.113725 0 0 0 0 0.14902 0 0 0 0 0.27451 0 0 0 0.25 0"/>
<feBlend mode="normal" in2="effect1_backgroundBlur_2_565" result="effect2_dropShadow_2_565"/>
<feBlend mode="normal" in="SourceGraphic" in2="effect2_dropShadow_2_565" result="shape"/>
</filter>
<filter id="filter3_bd_2_565" x="246.764" y="232.487" width="377.236" height="287.542" filterUnits="userSpaceOnUse" color-interpolation-filters="sRGB">
<feFlood flood-opacity="0" result="BackgroundImageFix"/>
<feGaussianBlur in="BackgroundImageFix" stdDeviation="7"/>
<feComposite in2="SourceAlpha" operator="in" result="effect1_backgroundBlur_2_565"/>
<feColorMatrix in="SourceAlpha" type="matrix" values="0 0 0 0 0 0 0 0 0 0 0 0 0 0 0 0 0 0 127 0" result="hardAlpha"/>
<feOffset dx="-21" dy="15"/>
<feGaussianBlur stdDeviation="25"/>
<feComposite in2="hardAlpha" operator="out"/>
<feColorMatrix type="matrix" values="0 0 0 0 0.113438 0 0 0 0 0.148981 0 0 0 0 0.275 0 0 0 0.25 0"/>
<feBlend mode="normal" in2="effect1_backgroundBlur_2_565" result="effect2_dropShadow_2_565"/>
<feBlend mode="normal" in="SourceGraphic" in2="effect2_dropShadow_2_565" result="shape"/>
</filter>
<linearGradient id="paint0_linear_2_565" x1="383.849" y1="180.447" x2="383.849" y2="370.645" gradientUnits="userSpaceOnUse">
<stop stop-color="#FFE600"/>
<stop offset="1" stop-color="#FF7A00"/>
</linearGradient>
<linearGradient id="paint1_linear_2_565" x1="383.849" y1="180.447" x2="383.849" y2="370.645" gradientUnits="userSpaceOnUse">
<stop stop-color="white"/>
<stop offset="1" stop-color="white" stop-opacity="0"/>
</linearGradient>
<linearGradient id="paint2_linear_2_565" x1="383.849" y1="180.448" x2="383.849" y2="370.645" gradientUnits="userSpaceOnUse">
<stop stop-color="#FFD600"/>
<stop offset="1" stop-color="#FF7A00"/>
</linearGradient>
<linearGradient id="paint3_linear_2_565" x1="296.809" y1="184.477" x2="296.809" y2="563.26" gradientUnits="userSpaceOnUse">
<stop stop-color="white"/>
<stop offset="1" stop-color="white" stop-opacity="0"/>
</linearGradient>
<linearGradient id="paint4_linear_2_565" x1="296.809" y1="267.487" x2="296.809" y2="526.993" gradientUnits="userSpaceOnUse">
<stop stop-color="white"/>
<stop offset="1" stop-color="white" stop-opacity="0"/>
</linearGradient>
<linearGradient id="paint5_linear_2_565" x1="469.277" y1="273.128" x2="469.277" y2="476.22" gradientUnits="userSpaceOnUse">
<stop stop-color="white"/>
<stop offset="1" stop-color="white" stop-opacity="0"/>
</linearGradient>
<linearGradient id="paint6_linear_2_565" x1="456.382" y1="267.487" x2="456.382" y2="455.029" gradientUnits="userSpaceOnUse">
<stop stop-color="white"/>
<stop offset="1" stop-color="white" stop-opacity="0"/>
</linearGradient>
</defs>
</svg>
