<svg width="700" height="700" viewBox="0 0 700 700" fill="none" xmlns="http://www.w3.org/2000/svg">
<g filter="url(#filter0_bdd_129_26)">
<mask id="path-1-inside-1_129_26" fill="white">
<path fill-rule="evenodd" clip-rule="evenodd" d="M428.989 163.077C432.464 162.742 434.477 166.825 432.394 169.627C405.328 206.036 399.559 256.102 421.711 299.169C450.512 355.162 516.388 379.641 573.939 358.045C577.21 356.817 580.582 359.885 579.293 363.133C566.673 394.911 542.938 422.438 510.143 439.307C438.169 476.328 349.81 447.993 312.788 376.019C275.767 304.044 304.102 215.685 376.076 178.664C393.096 169.909 411.033 164.809 428.989 163.077Z"/>
</mask>
<path fill-rule="evenodd" clip-rule="evenodd" d="M428.989 163.077C432.464 162.742 434.477 166.825 432.394 169.627C405.328 206.036 399.559 256.102 421.711 299.169C450.512 355.162 516.388 379.641 573.939 358.045C577.21 356.817 580.582 359.885 579.293 363.133C566.673 394.911 542.938 422.438 510.143 439.307C438.169 476.328 349.81 447.993 312.788 376.019C275.767 304.044 304.102 215.685 376.076 178.664C393.096 169.909 411.033 164.809 428.989 163.077Z" fill="url(#paint0_linear_129_26)"/>
<path d="M312.788 376.019L314.567 375.104L312.788 376.019ZM376.076 178.664L376.991 180.442L376.076 178.664ZM573.939 358.045L573.236 356.172L573.939 358.045ZM579.293 363.133L581.152 363.871L579.293 363.133ZM423.489 298.254C401.699 255.891 407.37 206.641 433.999 170.82L430.789 168.434C403.285 205.431 397.418 256.313 419.932 300.084L423.489 298.254ZM573.236 356.172C516.624 377.416 451.821 353.335 423.489 298.254L419.932 300.084C449.203 356.99 516.151 381.866 574.641 359.917L573.236 356.172ZM577.434 362.394C564.986 393.741 541.577 420.889 509.228 437.528L511.058 441.085C544.299 423.987 568.36 396.082 581.152 363.871L577.434 362.394ZM509.228 437.528C438.236 474.045 351.083 446.096 314.567 375.104L311.01 376.934C348.537 449.89 438.101 478.612 511.058 441.085L509.228 437.528ZM314.567 375.104C278.051 304.112 305.999 216.959 376.991 180.442L375.162 176.885C302.205 214.412 273.483 303.977 311.01 376.934L314.567 375.104ZM376.991 180.442C393.782 171.806 411.473 166.776 429.181 165.068L428.797 161.086C410.592 162.843 392.411 168.013 375.162 176.885L376.991 180.442ZM574.641 359.917C575.509 359.592 576.38 359.829 576.961 360.372C577.524 360.898 577.74 361.625 577.434 362.394L581.152 363.871C582.136 361.393 581.31 358.962 579.692 357.449C578.091 355.954 575.64 355.27 573.236 356.172L574.641 359.917ZM433.999 170.82C435.53 168.761 435.552 166.219 434.558 164.268C433.553 162.295 431.448 160.831 428.797 161.086L429.181 165.068C430.006 164.988 430.645 165.398 430.994 166.083C431.354 166.79 431.341 167.691 430.789 168.434L433.999 170.82Z" fill="url(#paint1_linear_129_26)" mask="url(#path-1-inside-1_129_26)"/>
</g>
<g filter="url(#filter1_bd_129_26)">
<mask id="path-3-inside-2_129_26" fill="white">
<path fill-rule="evenodd" clip-rule="evenodd" d="M422.043 565.427C422.317 565.43 422.591 565.432 422.866 565.432C461.821 565.432 493.4 533.853 493.4 494.898C493.4 455.942 461.821 424.363 422.866 424.363C422.591 424.363 422.317 424.365 422.043 424.368V424.363H403.823C404.481 419.536 404.821 414.607 404.821 409.599C404.821 349.807 356.351 301.337 296.559 301.337C236.768 301.337 188.297 349.807 188.297 409.599C188.297 415.241 188.729 420.783 189.561 426.192C184.412 424.996 179.047 424.363 173.534 424.363C134.579 424.363 103 455.942 103 494.898C103 533.853 134.579 565.432 173.534 565.432C173.809 565.432 174.083 565.43 174.357 565.427L174.353 565.432H422.043V565.427Z"/>
</mask>
<path fill-rule="evenodd" clip-rule="evenodd" d="M422.043 565.427C422.317 565.43 422.591 565.432 422.866 565.432C461.821 565.432 493.4 533.853 493.4 494.898C493.4 455.942 461.821 424.363 422.866 424.363C422.591 424.363 422.317 424.365 422.043 424.368V424.363H403.823C404.481 419.536 404.821 414.607 404.821 409.599C404.821 349.807 356.351 301.337 296.559 301.337C236.768 301.337 188.297 349.807 188.297 409.599C188.297 415.241 188.729 420.783 189.561 426.192C184.412 424.996 179.047 424.363 173.534 424.363C134.579 424.363 103 455.942 103 494.898C103 533.853 134.579 565.432 173.534 565.432C173.809 565.432 174.083 565.43 174.357 565.427L174.353 565.432H422.043V565.427Z" fill="url(#paint2_linear_129_26)" shape-rendering="crispEdges"/>
<path d="M422.043 565.427L422.066 563.427C421.531 563.421 421.017 563.629 420.637 564.005C420.257 564.381 420.043 564.893 420.043 565.427H422.043ZM422.043 424.368H420.043C420.043 424.902 420.257 425.414 420.637 425.79C421.017 426.166 421.531 426.374 422.066 426.368L422.043 424.368ZM422.043 424.363H424.043C424.043 423.259 423.147 422.363 422.043 422.363V424.363ZM403.823 424.363L401.841 424.093C401.763 424.665 401.936 425.243 402.316 425.678C402.696 426.114 403.245 426.363 403.823 426.363V424.363ZM189.561 426.192L189.109 428.14C189.755 428.29 190.434 428.11 190.921 427.659C191.408 427.207 191.639 426.544 191.538 425.888L189.561 426.192ZM174.357 565.427L175.928 566.664C176.404 566.059 176.491 565.234 176.151 564.544C175.811 563.853 175.104 563.418 174.334 563.427L174.357 565.427ZM174.353 565.432L172.782 564.195C172.308 564.796 172.219 565.616 172.554 566.305C172.888 566.994 173.587 567.432 174.353 567.432V565.432ZM422.043 565.432V567.432C423.147 567.432 424.043 566.536 424.043 565.432H422.043ZM422.02 567.427C422.301 567.43 422.583 567.432 422.866 567.432V563.432C422.599 563.432 422.332 563.43 422.066 563.427L422.02 567.427ZM422.866 567.432C462.925 567.432 495.4 534.957 495.4 494.898H491.4C491.4 532.748 460.716 563.432 422.866 563.432V567.432ZM495.4 494.898C495.4 454.838 462.925 422.363 422.866 422.363V426.363C460.716 426.363 491.4 457.047 491.4 494.898H495.4ZM422.866 422.363C422.583 422.363 422.301 422.365 422.02 422.368L422.066 426.368C422.332 426.365 422.599 426.363 422.866 426.363V422.363ZM420.043 424.363V424.368H424.043V424.363H420.043ZM403.823 426.363H422.043V422.363H403.823V426.363ZM405.805 424.633C406.475 419.717 406.821 414.698 406.821 409.599H402.821C402.821 414.516 402.487 419.355 401.841 424.093L405.805 424.633ZM406.821 409.599C406.821 348.703 357.455 299.337 296.559 299.337V303.337C355.246 303.337 402.821 350.912 402.821 409.599H406.821ZM296.559 299.337C235.663 299.337 186.297 348.703 186.297 409.599H190.297C190.297 350.912 237.873 303.337 296.559 303.337V299.337ZM186.297 409.599C186.297 415.343 186.737 420.986 187.584 426.496L191.538 425.888C190.721 420.579 190.297 415.139 190.297 409.599H186.297ZM190.014 424.244C184.718 423.013 179.201 422.363 173.534 422.363V426.363C178.894 426.363 184.107 426.978 189.109 428.14L190.014 424.244ZM173.534 422.363C133.475 422.363 101 454.838 101 494.898H105C105 457.047 135.684 426.363 173.534 426.363V422.363ZM101 494.898C101 534.957 133.475 567.432 173.534 567.432V563.432C135.684 563.432 105 532.748 105 494.898H101ZM173.534 567.432C173.817 567.432 174.098 567.43 174.379 567.427L174.334 563.427C174.068 563.43 173.801 563.432 173.534 563.432V567.432ZM175.924 566.669L175.928 566.664L172.785 564.19L172.782 564.195L175.924 566.669ZM422.043 563.432H174.353V567.432H422.043V563.432ZM420.043 565.427V565.432H424.043V565.427H420.043Z" fill="url(#paint3_linear_129_26)" mask="url(#path-3-inside-2_129_26)"/>
</g>
<defs>
<filter id="filter0_bdd_129_26" x="225.528" y="125.058" width="392.046" height="395.51" filterUnits="userSpaceOnUse" color-interpolation-filters="sRGB">
<feFlood flood-opacity="0" result="BackgroundImageFix"/>
<feGaussianBlur in="BackgroundImageFix" stdDeviation="7"/>
<feComposite in2="SourceAlpha" operator="in" result="effect1_backgroundBlur_129_26"/>
<feColorMatrix in="SourceAlpha" type="matrix" values="0 0 0 0 0 0 0 0 0 0 0 0 0 0 0 0 0 0 127 0" result="hardAlpha"/>
<feOffset dx="-21" dy="15"/>
<feGaussianBlur stdDeviation="25"/>
<feComposite in2="hardAlpha" operator="out"/>
<feColorMatrix type="matrix" values="0 0 0 0 0.113438 0 0 0 0 0.148981 0 0 0 0 0.275 0 0 0 0.25 0"/>
<feBlend mode="normal" in2="effect1_backgroundBlur_129_26" result="effect2_dropShadow_129_26"/>
<feColorMatrix in="SourceAlpha" type="matrix" values="0 0 0 0 0 0 0 0 0 0 0 0 0 0 0 0 0 0 127 0" result="hardAlpha"/>
<feOffset/>
<feGaussianBlur stdDeviation="19"/>
<feComposite in2="hardAlpha" operator="out"/>
<feColorMatrix type="matrix" values="0 0 0 0 0.619608 0 0 0 0 0.423529 0 0 0 0 1 0 0 0 0.4 0"/>
<feBlend mode="normal" in2="effect2_dropShadow_129_26" result="effect3_dropShadow_129_26"/>
<feBlend mode="normal" in="SourceGraphic" in2="effect3_dropShadow_129_26" result="shape"/>
</filter>
<filter id="filter1_bd_129_26" x="32" y="266.337" width="490.4" height="364.095" filterUnits="userSpaceOnUse" color-interpolation-filters="sRGB">
<feFlood flood-opacity="0" result="BackgroundImageFix"/>
<feGaussianBlur in="BackgroundImageFix" stdDeviation="7"/>
<feComposite in2="SourceAlpha" operator="in" result="effect1_backgroundBlur_129_26"/>
<feColorMatrix in="SourceAlpha" type="matrix" values="0 0 0 0 0 0 0 0 0 0 0 0 0 0 0 0 0 0 127 0" result="hardAlpha"/>
<feOffset dx="-21" dy="15"/>
<feGaussianBlur stdDeviation="25"/>
<feComposite in2="hardAlpha" operator="out"/>
<feColorMatrix type="matrix" values="0 0 0 0 0.113438 0 0 0 0 0.148981 0 0 0 0 0.275 0 0 0 0.25 0"/>
<feBlend mode="normal" in2="effect1_backgroundBlur_129_26" result="effect2_dropShadow_129_26"/>
<feBlend mode="normal" in="SourceGraphic" in2="effect2_dropShadow_129_26" result="shape"/>
</filter>
<linearGradient id="paint0_linear_129_26" x1="350.582" y1="194.681" x2="484.649" y2="455.324" gradientUnits="userSpaceOnUse">
<stop offset="0.0001" stop-color="#D4C0FF"/>
<stop offset="1" stop-color="#7E2FFF"/>
</linearGradient>
<linearGradient id="paint1_linear_129_26" x1="366.481" y1="50.6922" x2="451.374" y2="392.756" gradientUnits="userSpaceOnUse">
<stop stop-color="white"/>
<stop offset="1" stop-color="white" stop-opacity="0"/>
</linearGradient>
<linearGradient id="paint2_linear_129_26" x1="316.358" y1="309.281" x2="316.358" y2="595.273" gradientUnits="userSpaceOnUse">
<stop stop-color="white"/>
<stop offset="1" stop-color="white" stop-opacity="0"/>
</linearGradient>
<linearGradient id="paint3_linear_129_26" x1="298.2" y1="301.337" x2="298.2" y2="565.432" gradientUnits="userSpaceOnUse">
<stop stop-color="white"/>
<stop offset="1" stop-color="white" stop-opacity="0"/>
</linearGradient>
</defs>
</svg>
