<svg width="700" height="700" viewBox="0 0 700 700" fill="none" xmlns="http://www.w3.org/2000/svg">
<g filter="url(#filter0_f_2_657)">
<circle cx="260.677" cy="283.677" r="155.677" fill="#FFC701" fill-opacity="0.5"/>
</g>
<path d="M410.249 288.78C410.249 371.387 343.283 438.353 260.676 438.353C178.07 438.353 111.104 371.387 111.104 288.78C111.104 206.174 178.07 139.208 260.676 139.208C343.283 139.208 410.249 206.174 410.249 288.78Z" fill="url(#paint0_linear_2_657)" stroke="url(#paint1_linear_2_657)" stroke-width="2"/>
<g filter="url(#filter1_bd_2_657)">
<mask id="path-3-inside-1_2_657" fill="white">
<path fill-rule="evenodd" clip-rule="evenodd" d="M514.768 572.958C515.076 572.962 515.384 572.964 515.693 572.964C559.493 572.964 595 537.456 595 493.656C595 449.856 559.493 414.348 515.693 414.348C515.384 414.348 515.076 414.35 514.768 414.354V414.348H494.282C495.022 408.921 495.404 403.379 495.404 397.748C495.404 330.52 440.905 276.021 373.676 276.021C306.448 276.021 251.948 330.52 251.948 397.748C251.948 404.092 252.433 410.323 253.369 416.405C247.58 415.059 241.547 414.348 235.349 414.348C191.548 414.348 156.041 449.856 156.041 493.656C156.041 537.456 191.548 572.964 235.349 572.964C235.657 572.964 235.966 572.962 236.273 572.958L236.269 572.964H514.768V572.958Z"/>
</mask>
<path fill-rule="evenodd" clip-rule="evenodd" d="M514.768 572.958C515.076 572.962 515.384 572.964 515.693 572.964C559.493 572.964 595 537.456 595 493.656C595 449.856 559.493 414.348 515.693 414.348C515.384 414.348 515.076 414.35 514.768 414.354V414.348H494.282C495.022 408.921 495.404 403.379 495.404 397.748C495.404 330.52 440.905 276.021 373.676 276.021C306.448 276.021 251.948 330.52 251.948 397.748C251.948 404.092 252.433 410.323 253.369 416.405C247.58 415.059 241.547 414.348 235.349 414.348C191.548 414.348 156.041 449.856 156.041 493.656C156.041 537.456 191.548 572.964 235.349 572.964C235.657 572.964 235.966 572.962 236.273 572.958L236.269 572.964H514.768V572.958Z" fill="url(#paint2_linear_2_657)" shape-rendering="crispEdges"/>
<path d="M514.768 572.958L514.79 570.958C514.256 570.952 513.741 571.16 513.361 571.536C512.981 571.912 512.768 572.424 512.768 572.958H514.768ZM514.768 414.354H512.768C512.768 414.888 512.981 415.4 513.361 415.776C513.741 416.152 514.256 416.36 514.79 416.353L514.768 414.354ZM514.768 414.348H516.768C516.768 413.244 515.872 412.348 514.768 412.348V414.348ZM494.282 414.348L492.3 414.078C492.222 414.65 492.395 415.228 492.775 415.664C493.155 416.099 493.704 416.348 494.282 416.348V414.348ZM253.369 416.405L252.916 418.353C253.563 418.503 254.242 418.322 254.729 417.871C255.215 417.42 255.446 416.757 255.346 416.1L253.369 416.405ZM236.273 572.958L237.843 574.197C238.321 573.592 238.408 572.767 238.068 572.076C237.728 571.384 237.021 570.95 236.251 570.958L236.273 572.958ZM236.269 572.964L234.699 571.725C234.224 572.326 234.135 573.146 234.47 573.836C234.804 574.526 235.503 574.964 236.269 574.964V572.964ZM514.768 572.964V574.964C515.872 574.964 516.768 574.068 516.768 572.964H514.768ZM514.745 574.958C515.06 574.962 515.376 574.964 515.693 574.964V570.964C515.392 570.964 515.091 570.962 514.79 570.958L514.745 574.958ZM515.693 574.964C560.598 574.964 597 538.561 597 493.656H593C593 536.352 558.389 570.964 515.693 570.964V574.964ZM597 493.656C597 448.751 560.598 412.348 515.693 412.348V416.348C558.389 416.348 593 450.96 593 493.656H597ZM515.693 412.348C515.376 412.348 515.06 412.35 514.745 412.354L514.79 416.353C515.091 416.35 515.392 416.348 515.693 416.348V412.348ZM512.768 414.348V414.354H516.768V414.348H512.768ZM494.282 416.348H514.768V412.348H494.282V416.348ZM496.263 414.619C497.015 409.102 497.404 403.47 497.404 397.748H493.404C493.404 403.289 493.028 408.74 492.3 414.078L496.263 414.619ZM497.404 397.748C497.404 329.415 442.009 274.021 373.676 274.021V278.021C439.8 278.021 493.404 331.625 493.404 397.748H497.404ZM373.676 274.021C305.343 274.021 249.948 329.415 249.948 397.748H253.948C253.948 331.625 307.552 278.021 373.676 278.021V274.021ZM249.948 397.748C249.948 404.194 250.441 410.526 251.392 416.709L255.346 416.1C254.426 410.119 253.948 403.99 253.948 397.748H249.948ZM253.821 414.456C247.885 413.077 241.701 412.348 235.349 412.348V416.348C241.394 416.348 247.274 417.042 252.916 418.353L253.821 414.456ZM235.349 412.348C190.444 412.348 154.041 448.751 154.041 493.656H158.041C158.041 450.96 192.653 416.348 235.349 416.348V412.348ZM154.041 493.656C154.041 538.561 190.444 574.964 235.349 574.964V570.964C192.653 570.964 158.041 536.352 158.041 493.656H154.041ZM235.349 574.964C235.665 574.964 235.981 574.962 236.296 574.958L236.251 570.958C235.95 570.962 235.65 570.964 235.349 570.964V574.964ZM237.839 574.202L237.843 574.197L234.703 571.719L234.699 571.725L237.839 574.202ZM514.768 570.964H236.269V574.964H514.768V570.964ZM512.768 572.958V572.964H516.768V572.958H512.768Z" fill="url(#paint3_linear_2_657)" mask="url(#path-3-inside-1_2_657)"/>
</g>
<defs>
<filter id="filter0_f_2_657" x="61" y="84" width="399.354" height="399.354" filterUnits="userSpaceOnUse" color-interpolation-filters="sRGB">
<feFlood flood-opacity="0" result="BackgroundImageFix"/>
<feBlend mode="normal" in="SourceGraphic" in2="BackgroundImageFix" result="shape"/>
<feGaussianBlur stdDeviation="22" result="effect1_foregroundBlur_2_657"/>
</filter>
<filter id="filter1_bd_2_657" x="85.041" y="241.021" width="538.959" height="396.943" filterUnits="userSpaceOnUse" color-interpolation-filters="sRGB">
<feFlood flood-opacity="0" result="BackgroundImageFix"/>
<feGaussianBlur in="BackgroundImageFix" stdDeviation="7"/>
<feComposite in2="SourceAlpha" operator="in" result="effect1_backgroundBlur_2_657"/>
<feColorMatrix in="SourceAlpha" type="matrix" values="0 0 0 0 0 0 0 0 0 0 0 0 0 0 0 0 0 0 127 0" result="hardAlpha"/>
<feOffset dx="-21" dy="15"/>
<feGaussianBlur stdDeviation="25"/>
<feComposite in2="hardAlpha" operator="out"/>
<feColorMatrix type="matrix" values="0 0 0 0 0.113438 0 0 0 0 0.148981 0 0 0 0 0.275 0 0 0 0.25 0"/>
<feBlend mode="normal" in2="effect1_backgroundBlur_2_657" result="effect2_dropShadow_2_657"/>
<feBlend mode="normal" in="SourceGraphic" in2="effect2_dropShadow_2_657" result="shape"/>
</filter>
<linearGradient id="paint0_linear_2_657" x1="260.676" y1="138.208" x2="260.676" y2="439.353" gradientUnits="userSpaceOnUse">
<stop stop-color="#FFE600"/>
<stop offset="1" stop-color="#FF7A00"/>
</linearGradient>
<linearGradient id="paint1_linear_2_657" x1="260.676" y1="138.208" x2="260.676" y2="439.353" gradientUnits="userSpaceOnUse">
<stop stop-color="white"/>
<stop offset="1" stop-color="white" stop-opacity="0"/>
</linearGradient>
<linearGradient id="paint2_linear_2_657" x1="395.937" y1="284.953" x2="395.937" y2="606.516" gradientUnits="userSpaceOnUse">
<stop stop-color="white"/>
<stop offset="1" stop-color="white" stop-opacity="0"/>
</linearGradient>
<linearGradient id="paint3_linear_2_657" x1="375.521" y1="276.021" x2="375.521" y2="572.964" gradientUnits="userSpaceOnUse">
<stop stop-color="white"/>
<stop offset="1" stop-color="white" stop-opacity="0"/>
</linearGradient>
</defs>
</svg>
