<svg width="700" height="700" viewBox="0 0 700 700" fill="none" xmlns="http://www.w3.org/2000/svg">
<g filter="url(#filter0_bd_2_748)">
<mask id="path-1-inside-1_2_748" fill="white">
<path fill-rule="evenodd" clip-rule="evenodd" d="M305.22 375.732C305.391 375.734 305.563 375.735 305.735 375.735C330.182 375.735 350 355.917 350 331.471C350 307.024 330.182 287.206 305.735 287.206C305.563 287.206 305.391 287.207 305.22 287.209V287.206H293.786C294.199 284.177 294.412 281.084 294.412 277.941C294.412 240.418 263.994 210 226.471 210C188.948 210 158.53 240.418 158.53 277.941C158.53 281.482 158.801 284.959 159.323 288.354C156.091 287.603 152.724 287.206 149.265 287.206C124.818 287.206 105 307.024 105 331.471C105 355.917 124.818 375.735 149.265 375.735C149.437 375.735 149.609 375.734 149.781 375.732L149.779 375.735H305.22V375.732Z"/>
</mask>
<path fill-rule="evenodd" clip-rule="evenodd" d="M305.22 375.732C305.391 375.734 305.563 375.735 305.735 375.735C330.182 375.735 350 355.917 350 331.471C350 307.024 330.182 287.206 305.735 287.206C305.563 287.206 305.391 287.207 305.22 287.209V287.206H293.786C294.199 284.177 294.412 281.084 294.412 277.941C294.412 240.418 263.994 210 226.471 210C188.948 210 158.53 240.418 158.53 277.941C158.53 281.482 158.801 284.959 159.323 288.354C156.091 287.603 152.724 287.206 149.265 287.206C124.818 287.206 105 307.024 105 331.471C105 355.917 124.818 375.735 149.265 375.735C149.437 375.735 149.609 375.734 149.781 375.732L149.779 375.735H305.22V375.732Z" fill="url(#paint0_linear_2_748)" shape-rendering="crispEdges"/>
<path d="M305.22 375.732L305.243 373.732C304.708 373.726 304.194 373.934 303.814 374.31C303.434 374.686 303.22 375.198 303.22 375.732H305.22ZM305.22 287.209H303.22C303.22 287.743 303.434 288.255 303.814 288.631C304.194 289.007 304.708 289.215 305.243 289.209L305.22 287.209ZM305.22 287.206H307.22C307.22 286.101 306.325 285.206 305.22 285.206V287.206ZM293.786 287.206L291.804 286.936C291.726 287.508 291.899 288.086 292.279 288.521C292.659 288.956 293.208 289.206 293.786 289.206V287.206ZM159.323 288.354L158.87 290.302C159.517 290.452 160.196 290.272 160.682 289.82C161.169 289.369 161.4 288.706 161.299 288.05L159.323 288.354ZM149.781 375.732L151.35 376.972C151.828 376.368 151.916 375.542 151.576 374.85C151.236 374.158 150.529 373.724 149.758 373.732L149.781 375.732ZM149.779 375.735L148.21 374.495C147.734 375.097 147.645 375.917 147.979 376.607C148.313 377.297 149.012 377.735 149.779 377.735V375.735ZM305.22 375.735V377.735C306.325 377.735 307.22 376.84 307.22 375.735H305.22ZM305.197 377.732C305.376 377.734 305.556 377.735 305.735 377.735V373.735C305.571 373.735 305.407 373.734 305.243 373.732L305.197 377.732ZM305.735 377.735C331.286 377.735 352 357.022 352 331.471H348C348 354.813 329.077 373.735 305.735 373.735V377.735ZM352 331.471C352 305.919 331.286 285.206 305.735 285.206V289.206C329.077 289.206 348 308.128 348 331.471H352ZM305.735 285.206C305.556 285.206 305.376 285.207 305.197 285.209L305.243 289.209C305.407 289.207 305.571 289.206 305.735 289.206V285.206ZM303.22 287.206V287.209H307.22V287.206H303.22ZM293.786 289.206H305.22V285.206H293.786V289.206ZM295.767 287.476C296.193 284.357 296.412 281.174 296.412 277.941H292.412C292.412 280.993 292.205 283.996 291.804 286.936L295.767 287.476ZM296.412 277.941C296.412 239.314 265.098 208 226.471 208V212C262.889 212 292.412 241.523 292.412 277.941H296.412ZM226.471 208C187.843 208 156.53 239.314 156.53 277.941H160.53C160.53 241.523 190.053 212 226.471 212V208ZM156.53 277.941C156.53 281.584 156.808 285.163 157.346 288.658L161.299 288.05C160.793 284.755 160.53 281.38 160.53 277.941H156.53ZM159.775 286.405C156.397 285.62 152.878 285.206 149.265 285.206V289.206C152.571 289.206 155.786 289.585 158.87 290.302L159.775 286.405ZM149.265 285.206C123.713 285.206 103 305.919 103 331.471H107C107 308.128 125.923 289.206 149.265 289.206V285.206ZM103 331.471C103 357.022 123.713 377.735 149.265 377.735V373.735C125.923 373.735 107 354.813 107 331.471H103ZM149.265 377.735C149.445 377.735 149.624 377.734 149.804 377.732L149.758 373.732C149.594 373.734 149.43 373.735 149.265 373.735V377.735ZM151.348 376.975L151.35 376.972L148.212 374.492L148.21 374.495L151.348 376.975ZM305.22 373.735H149.779V377.735H305.22V373.735ZM303.22 375.732V375.735H307.22V375.732H303.22Z" fill="url(#paint1_linear_2_748)" mask="url(#path-1-inside-1_2_748)"/>
</g>
<g filter="url(#filter1_bd_2_748)">
<mask id="path-3-inside-2_2_748" fill="white">
<path fill-rule="evenodd" clip-rule="evenodd" d="M439.026 489.182C439.263 489.185 439.5 489.186 439.738 489.186C473.566 489.186 500.988 461.763 500.988 427.936C500.988 394.108 473.566 366.686 439.738 366.686C439.5 366.686 439.263 366.687 439.026 366.69V366.686H423.203C423.774 362.494 424.07 358.215 424.07 353.866C424.07 301.945 381.979 259.854 330.058 259.854C278.137 259.854 236.046 301.945 236.046 353.866C236.046 358.765 236.421 363.577 237.143 368.274C232.672 367.235 228.014 366.686 223.227 366.686C189.399 366.686 161.977 394.108 161.977 427.936C161.977 461.763 189.399 489.186 223.227 489.186C223.465 489.186 223.704 489.185 223.942 489.182L223.939 489.186H439.026V489.182Z"/>
</mask>
<path fill-rule="evenodd" clip-rule="evenodd" d="M439.026 489.182C439.263 489.185 439.5 489.186 439.738 489.186C473.566 489.186 500.988 461.763 500.988 427.936C500.988 394.108 473.566 366.686 439.738 366.686C439.5 366.686 439.263 366.687 439.026 366.69V366.686H423.203C423.774 362.494 424.07 358.215 424.07 353.866C424.07 301.945 381.979 259.854 330.058 259.854C278.137 259.854 236.046 301.945 236.046 353.866C236.046 358.765 236.421 363.577 237.143 368.274C232.672 367.235 228.014 366.686 223.227 366.686C189.399 366.686 161.977 394.108 161.977 427.936C161.977 461.763 189.399 489.186 223.227 489.186C223.465 489.186 223.704 489.185 223.942 489.182L223.939 489.186H439.026V489.182Z" fill="url(#paint2_linear_2_748)" shape-rendering="crispEdges"/>
<path d="M439.026 489.182L439.049 487.182C438.514 487.176 438 487.384 437.62 487.76C437.24 488.135 437.026 488.647 437.026 489.182H439.026ZM439.026 366.69H437.026C437.026 367.224 437.24 367.736 437.62 368.112C438 368.488 438.514 368.696 439.049 368.69L439.026 366.69ZM439.026 366.686H441.026C441.026 365.581 440.131 364.686 439.026 364.686V366.686ZM423.203 366.686L421.221 366.416C421.143 366.988 421.316 367.566 421.696 368.001C422.076 368.436 422.625 368.686 423.203 368.686V366.686ZM237.143 368.274L236.691 370.222C237.337 370.372 238.016 370.192 238.503 369.741C238.99 369.289 239.221 368.626 239.12 367.97L237.143 368.274ZM223.942 489.182L225.512 490.421C225.989 489.816 226.077 488.991 225.737 488.299C225.397 487.608 224.69 487.173 223.919 487.182L223.942 489.182ZM223.939 489.186L222.369 487.947C221.894 488.549 221.805 489.369 222.139 490.058C222.473 490.748 223.172 491.186 223.939 491.186V489.186ZM439.026 489.186V491.186C440.131 491.186 441.026 490.29 441.026 489.186H439.026ZM439.003 491.182C439.248 491.184 439.493 491.186 439.738 491.186V487.186C439.508 487.186 439.278 487.185 439.049 487.182L439.003 491.182ZM439.738 491.186C474.67 491.186 502.988 462.868 502.988 427.936H498.988C498.988 460.659 472.461 487.186 439.738 487.186V491.186ZM502.988 427.936C502.988 393.004 474.67 364.686 439.738 364.686V368.686C472.461 368.686 498.988 395.213 498.988 427.936H502.988ZM439.738 364.686C439.493 364.686 439.248 364.687 439.003 364.69L439.049 368.69C439.278 368.687 439.508 368.686 439.738 368.686V364.686ZM437.026 366.686V366.69H441.026V366.686H437.026ZM423.203 368.686H439.026V364.686H423.203V368.686ZM425.184 366.956C425.768 362.675 426.07 358.305 426.07 353.866H422.07C422.07 358.124 421.78 362.313 421.221 366.416L425.184 366.956ZM426.07 353.866C426.07 300.84 383.084 257.854 330.058 257.854V261.854C380.875 261.854 422.07 303.049 422.07 353.866H426.07ZM330.058 257.854C277.032 257.854 234.046 300.84 234.046 353.866H238.046C238.046 303.049 279.241 261.854 330.058 261.854V257.854ZM234.046 353.866C234.046 358.867 234.429 363.781 235.167 368.578L239.12 367.97C238.413 363.373 238.046 358.663 238.046 353.866H234.046ZM237.596 366.326C232.978 365.253 228.167 364.686 223.227 364.686V368.686C227.86 368.686 232.367 369.217 236.691 370.222L237.596 366.326ZM223.227 364.686C188.295 364.686 159.977 393.004 159.977 427.936H163.977C163.977 395.213 190.504 368.686 223.227 368.686V364.686ZM159.977 427.936C159.977 462.868 188.295 491.186 223.227 491.186V487.186C190.504 487.186 163.977 460.659 163.977 427.936H159.977ZM223.227 491.186C223.473 491.186 223.719 491.184 223.965 491.182L223.919 487.182C223.689 487.185 223.458 487.186 223.227 487.186V491.186ZM225.509 490.425L225.512 490.421L222.372 487.943L222.369 487.947L225.509 490.425ZM439.026 487.186H223.939V491.186H439.026V487.186ZM437.026 489.182V489.186H441.026V489.182H437.026Z" fill="url(#paint3_linear_2_748)" mask="url(#path-3-inside-2_2_748)"/>
</g>
<g filter="url(#filter2_bd_2_748)">
<mask id="path-5-inside-3_2_748" fill="white">
<path fill-rule="evenodd" clip-rule="evenodd" d="M550.22 425.587C550.391 425.589 550.563 425.59 550.735 425.59C575.182 425.59 595 405.772 595 381.325C595 356.878 575.182 337.06 550.735 337.06C550.563 337.06 550.391 337.061 550.22 337.063V337.06H538.786C539.199 334.031 539.412 330.938 539.412 327.796C539.412 290.273 508.994 259.854 471.471 259.854C433.948 259.854 403.53 290.273 403.53 327.796C403.53 331.336 403.801 334.814 404.323 338.208C401.091 337.457 397.724 337.06 394.265 337.06C369.818 337.06 350 356.878 350 381.325C350 405.772 369.818 425.59 394.265 425.59C394.437 425.59 394.609 425.589 394.781 425.587L394.779 425.59H550.22V425.587Z"/>
</mask>
<path fill-rule="evenodd" clip-rule="evenodd" d="M550.22 425.587C550.391 425.589 550.563 425.59 550.735 425.59C575.182 425.59 595 405.772 595 381.325C595 356.878 575.182 337.06 550.735 337.06C550.563 337.06 550.391 337.061 550.22 337.063V337.06H538.786C539.199 334.031 539.412 330.938 539.412 327.796C539.412 290.273 508.994 259.854 471.471 259.854C433.948 259.854 403.53 290.273 403.53 327.796C403.53 331.336 403.801 334.814 404.323 338.208C401.091 337.457 397.724 337.06 394.265 337.06C369.818 337.06 350 356.878 350 381.325C350 405.772 369.818 425.59 394.265 425.59C394.437 425.59 394.609 425.589 394.781 425.587L394.779 425.59H550.22V425.587Z" fill="url(#paint4_linear_2_748)" shape-rendering="crispEdges"/>
<path d="M550.22 425.587L550.243 423.587C549.708 423.581 549.194 423.789 548.814 424.165C548.434 424.54 548.22 425.052 548.22 425.587H550.22ZM550.22 337.063H548.22C548.22 337.598 548.434 338.11 548.814 338.486C549.194 338.861 549.708 339.069 550.243 339.063L550.22 337.063ZM550.22 337.06H552.22C552.22 335.956 551.325 335.06 550.22 335.06V337.06ZM538.786 337.06L536.804 336.79C536.726 337.362 536.899 337.94 537.279 338.376C537.659 338.811 538.208 339.06 538.786 339.06V337.06ZM404.323 338.208L403.87 340.156C404.517 340.306 405.196 340.126 405.682 339.675C406.169 339.223 406.4 338.56 406.299 337.904L404.323 338.208ZM394.781 425.587L396.35 426.827C396.828 426.222 396.916 425.396 396.576 424.705C396.236 424.013 395.529 423.578 394.758 423.587L394.781 425.587ZM394.779 425.59L393.21 424.35C392.734 424.951 392.645 425.772 392.979 426.462C393.313 427.152 394.012 427.59 394.779 427.59V425.59ZM550.22 425.59V427.59C551.325 427.59 552.22 426.694 552.22 425.59H550.22ZM550.197 427.587C550.376 427.589 550.556 427.59 550.735 427.59V423.59C550.571 423.59 550.407 423.589 550.243 423.587L550.197 427.587ZM550.735 427.59C576.286 427.59 597 406.876 597 381.325H593C593 404.667 574.077 423.59 550.735 423.59V427.59ZM597 381.325C597 355.774 576.286 335.06 550.735 335.06V339.06C574.077 339.06 593 357.983 593 381.325H597ZM550.735 335.06C550.556 335.06 550.376 335.061 550.197 335.063L550.243 339.063C550.407 339.061 550.571 339.06 550.735 339.06V335.06ZM548.22 337.06V337.063H552.22V337.06H548.22ZM538.786 339.06H550.22V335.06H538.786V339.06ZM540.767 337.331C541.193 334.212 541.412 331.029 541.412 327.796H537.412C537.412 330.848 537.205 333.85 536.804 336.79L540.767 337.331ZM541.412 327.796C541.412 289.168 510.098 257.854 471.471 257.854V261.854C507.889 261.854 537.412 291.377 537.412 327.796H541.412ZM471.471 257.854C432.843 257.854 401.53 289.168 401.53 327.796H405.53C405.53 291.377 435.053 261.854 471.471 261.854V257.854ZM401.53 327.796C401.53 331.438 401.808 335.017 402.346 338.512L406.299 337.904C405.793 334.61 405.53 331.234 405.53 327.796H401.53ZM404.775 336.26C401.397 335.475 397.878 335.06 394.265 335.06V339.06C397.571 339.06 400.786 339.44 403.87 340.156L404.775 336.26ZM394.265 335.06C368.713 335.06 348 355.774 348 381.325H352C352 357.983 370.923 339.06 394.265 339.06V335.06ZM348 381.325C348 406.876 368.713 427.59 394.265 427.59V423.59C370.923 423.59 352 404.667 352 381.325H348ZM394.265 427.59C394.445 427.59 394.624 427.589 394.804 427.587L394.758 423.587C394.594 423.589 394.43 423.59 394.265 423.59V427.59ZM396.348 426.83L396.35 426.827L393.212 424.347L393.21 424.35L396.348 426.83ZM550.22 423.59H394.779V427.59H550.22V423.59ZM548.22 425.587V425.59H552.22V425.587H548.22Z" fill="url(#paint5_linear_2_748)" mask="url(#path-5-inside-3_2_748)"/>
</g>
<defs>
<filter id="filter0_bd_2_748" x="34" y="175" width="345" height="265.735" filterUnits="userSpaceOnUse" color-interpolation-filters="sRGB">
<feFlood flood-opacity="0" result="BackgroundImageFix"/>
<feGaussianBlur in="BackgroundImageFix" stdDeviation="7"/>
<feComposite in2="SourceAlpha" operator="in" result="effect1_backgroundBlur_2_748"/>
<feColorMatrix in="SourceAlpha" type="matrix" values="0 0 0 0 0 0 0 0 0 0 0 0 0 0 0 0 0 0 127 0" result="hardAlpha"/>
<feOffset dx="-21" dy="15"/>
<feGaussianBlur stdDeviation="25"/>
<feComposite in2="hardAlpha" operator="out"/>
<feColorMatrix type="matrix" values="0 0 0 0 0.113438 0 0 0 0 0.148981 0 0 0 0 0.275 0 0 0 0.25 0"/>
<feBlend mode="normal" in2="effect1_backgroundBlur_2_748" result="effect2_dropShadow_2_748"/>
<feBlend mode="normal" in="SourceGraphic" in2="effect2_dropShadow_2_748" result="shape"/>
</filter>
<filter id="filter1_bd_2_748" x="90.9766" y="224.854" width="439.012" height="329.331" filterUnits="userSpaceOnUse" color-interpolation-filters="sRGB">
<feFlood flood-opacity="0" result="BackgroundImageFix"/>
<feGaussianBlur in="BackgroundImageFix" stdDeviation="7"/>
<feComposite in2="SourceAlpha" operator="in" result="effect1_backgroundBlur_2_748"/>
<feColorMatrix in="SourceAlpha" type="matrix" values="0 0 0 0 0 0 0 0 0 0 0 0 0 0 0 0 0 0 127 0" result="hardAlpha"/>
<feOffset dx="-21" dy="15"/>
<feGaussianBlur stdDeviation="25"/>
<feComposite in2="hardAlpha" operator="out"/>
<feColorMatrix type="matrix" values="0 0 0 0 0.113725 0 0 0 0 0.14902 0 0 0 0 0.27451 0 0 0 0.25 0"/>
<feBlend mode="normal" in2="effect1_backgroundBlur_2_748" result="effect2_dropShadow_2_748"/>
<feBlend mode="normal" in="SourceGraphic" in2="effect2_dropShadow_2_748" result="shape"/>
</filter>
<filter id="filter2_bd_2_748" x="279" y="224.854" width="345" height="265.735" filterUnits="userSpaceOnUse" color-interpolation-filters="sRGB">
<feFlood flood-opacity="0" result="BackgroundImageFix"/>
<feGaussianBlur in="BackgroundImageFix" stdDeviation="7"/>
<feComposite in2="SourceAlpha" operator="in" result="effect1_backgroundBlur_2_748"/>
<feColorMatrix in="SourceAlpha" type="matrix" values="0 0 0 0 0 0 0 0 0 0 0 0 0 0 0 0 0 0 127 0" result="hardAlpha"/>
<feOffset dx="-21" dy="15"/>
<feGaussianBlur stdDeviation="25"/>
<feComposite in2="hardAlpha" operator="out"/>
<feColorMatrix type="matrix" values="0 0 0 0 0.113438 0 0 0 0 0.148981 0 0 0 0 0.275 0 0 0 0.25 0"/>
<feBlend mode="normal" in2="effect1_backgroundBlur_2_748" result="effect2_dropShadow_2_748"/>
<feBlend mode="normal" in="SourceGraphic" in2="effect2_dropShadow_2_748" result="shape"/>
</filter>
<linearGradient id="paint0_linear_2_748" x1="238.895" y1="214.985" x2="238.895" y2="394.462" gradientUnits="userSpaceOnUse">
<stop stop-color="white"/>
<stop offset="1" stop-color="white" stop-opacity="0"/>
</linearGradient>
<linearGradient id="paint1_linear_2_748" x1="227.5" y1="210" x2="227.5" y2="375.735" gradientUnits="userSpaceOnUse">
<stop stop-color="white"/>
<stop offset="1" stop-color="white" stop-opacity="0"/>
</linearGradient>
<linearGradient id="paint2_linear_2_748" x1="331.482" y1="186.497" x2="331.482" y2="521.235" gradientUnits="userSpaceOnUse">
<stop stop-color="white"/>
<stop offset="1" stop-color="white" stop-opacity="0"/>
</linearGradient>
<linearGradient id="paint3_linear_2_748" x1="331.482" y1="259.854" x2="331.482" y2="489.186" gradientUnits="userSpaceOnUse">
<stop stop-color="white"/>
<stop offset="1" stop-color="white" stop-opacity="0"/>
</linearGradient>
<linearGradient id="paint4_linear_2_748" x1="483.895" y1="264.84" x2="483.895" y2="444.317" gradientUnits="userSpaceOnUse">
<stop stop-color="white"/>
<stop offset="1" stop-color="white" stop-opacity="0"/>
</linearGradient>
<linearGradient id="paint5_linear_2_748" x1="472.5" y1="259.854" x2="472.5" y2="425.59" gradientUnits="userSpaceOnUse">
<stop stop-color="white"/>
<stop offset="1" stop-color="white" stop-opacity="0"/>
</linearGradient>
</defs>
</svg>
