<svg width="0" height="0" class="hidden">
  <symbol xmlns="http://www.w3.org/2000/svg" viewBox="0 0 24 24" id="arrow-down">
    <path d="M11.9997 13.1714L16.9495 8.22168L18.3637 9.63589L11.9997 15.9999L5.63574 9.63589L7.04996 8.22168L11.9997 13.1714Z"></path>
  </symbol>
  <symbol xmlns="http://www.w3.org/2000/svg" viewBox="0 0 24 24" id="arrow-up">
    <path d="M11.9997 10.8284L7.04996 15.7782L5.63574 14.364L11.9997 8L18.3637 14.364L16.9495 15.7782L11.9997 10.8284Z"></path>
  </symbol>
  <symbol xmlns="http://www.w3.org/2000/svg" viewBox="0 0 24 24" id="celsius">
    <path d="M4.5 10C2.567 10 1 8.433 1 6.5C1 4.567 2.567 3 4.5 3C6.433 3 8 4.567 8 6.5C8 8.433 6.433 10 4.5 10ZM4.5 8C5.32843 8 6 7.32843 6 6.5C6 5.67157 5.32843 5 4.5 5C3.67157 5 3 5.67157 3 6.5C3 7.32843 3.67157 8 4.5 8ZM22 10H20C20 7.79086 18.2091 6 16 6C13.7909 6 12 7.79086 12 10V15C12 17.2091 13.7909 19 16 19C18.2091 19 20 17.2091 20 15H22C22 18.3137 19.3137 21 16 21C12.6863 21 10 18.3137 10 15V10C10 6.68629 12.6863 4 16 4C19.3137 4 22 6.68629 22 10Z"></path>
  </symbol>
  <symbol xmlns="http://www.w3.org/2000/svg" fill="#3390f9" viewBox="0 0 256 256" id="cloud">
    <path d="M240,128a80,80,0,0,1-80,80H72A56,56,0,1,1,85.92,97.74l0,.1A80,80,0,0,1,240,128Z" opacity="0.2"></path>
    <path d="M160,40A88.09,88.09,0,0,0,81.29,88.67,64,64,0,1,0,72,216h88a88,88,0,0,0,0-176Zm0,160H72a48,48,0,0,1,0-96c1.1,0,2.2,0,3.29.11A88,88,0,0,0,72,128a8,8,0,0,0,16,0,72,72,0,1,1,72,72Z"></path>
  </symbol>
  <symbol xmlns="http://www.w3.org/2000/svg" fill="#3390f9" viewBox="0 0 256 256" id="cloud-fog">
    <path d="M224,92a68,68,0,0,1-68,68H76A44,44,0,1,1,90.2,74.34v.11A68.06,68.06,0,0,1,224,92Z" opacity="0.2"></path>
    <path d="M120,200H72a8,8,0,0,1,0-16h48a8,8,0,0,1,0,16Zm64-16H160a8,8,0,0,0,0,16h24a8,8,0,0,0,0-16Zm-24,32H104a8,8,0,0,0,0,16h56a8,8,0,0,0,0-16ZM232,92a76.08,76.08,0,0,1-76,76H76A52,52,0,0,1,76,64a53.26,53.26,0,0,1,8.92.76A76.08,76.08,0,0,1,232,92Zm-16,0A60.06,60.06,0,0,0,96,88.46a8,8,0,0,1-16-.92q.21-3.66.77-7.23A38.11,38.11,0,0,0,76,80a36,36,0,0,0,0,72h80A60.07,60.07,0,0,0,216,92Z"></path>
  </symbol>
  <symbol xmlns="http://www.w3.org/2000/svg" fill="#3390f9" viewBox="0 0 256 256" id="cloud-lightning">
    <path d="M224,92a68,68,0,0,1-68,68H76A44,44,0,1,1,90.2,74.34v.11A68.06,68.06,0,0,1,224,92Z" opacity="0.2"></path>
    <path d="M156,16A76.2,76.2,0,0,0,84.92,64.76,53.26,53.26,0,0,0,76,64a52,52,0,0,0,0,104h37.87L97.14,195.88A8,8,0,0,0,104,208h25.87l-16.73,27.88a8,8,0,0,0,13.72,8.24l24-40A8,8,0,0,0,144,192H118.13l14.4-24H156a76,76,0,0,0,0-152Zm0,136H76a36,36,0,0,1,0-72,38.11,38.11,0,0,1,4.78.31q-.56,3.57-.77,7.23a8,8,0,0,0,16,.92A60.06,60.06,0,1,1,156,152Z"></path>
  </symbol>
  <symbol xmlns="http://www.w3.org/2000/svg" fill="#3390f9" viewBox="0 0 256 256" id="cloud-moon">
    <path d="M98.31,130.38ZM94.38,17.62h0A64.06,64.06,0,0,1,17.62,94.38h0A64.12,64.12,0,0,0,55,138.93h0a44.08,44.08,0,0,1,43.33-8.54,68.13,68.13,0,0,1,45.47-47.32l.15,0c0-1,.07-2,.07-3A64,64,0,0,0,94.38,17.62Z" opacity="0.2"></path>
    <path d="M164,72a76.45,76.45,0,0,0-12.36,1A71.93,71.93,0,0,0,96.17,9.83a8,8,0,0,0-9.59,9.58A56.45,56.45,0,0,1,88,32,56.06,56.06,0,0,1,32,88a56.45,56.45,0,0,1-12.59-1.42,8,8,0,0,0-9.59,9.59,72.22,72.22,0,0,0,32.29,45.06A52,52,0,0,0,84,224h80a76,76,0,0,0,0-152ZM29.37,104c.87,0,1.75,0,2.63,0a72.08,72.08,0,0,0,72-72c0-.89,0-1.78,0-2.67a55.63,55.63,0,0,1,32,48,76.28,76.28,0,0,0-43,43.4A52,52,0,0,0,54,129.59,56.22,56.22,0,0,1,29.37,104ZM164,208H84a36,36,0,1,1,4.78-71.69c-.37,2.37-.63,4.79-.77,7.23a8,8,0,0,0,16,.92,58.91,58.91,0,0,1,1.88-11.81c0-.16.09-.32.12-.48A60.06,60.06,0,1,1,164,208Z"></path>
  </symbol>
  <symbol xmlns="http://www.w3.org/2000/svg" fill="#3390f9" viewBox="0 0 256 256" id="cloud-rain">
    <path d="M224,92a68,68,0,0,1-68,68H76A44,44,0,1,1,90.2,74.34v.11A68.06,68.06,0,0,1,224,92Z" opacity="0.2"></path>
    <path d="M158.66,196.44l-32,48a8,8,0,1,1-13.32-8.88l32-48a8,8,0,0,1,13.32,8.88ZM232,92a76.08,76.08,0,0,1-76,76H132.28l-29.62,44.44a8,8,0,1,1-13.32-8.88L113.05,168H76A52,52,0,0,1,76,64a53.26,53.26,0,0,1,8.92.76A76.08,76.08,0,0,1,232,92Zm-16,0A60.06,60.06,0,0,0,96,88.46a8,8,0,0,1-16-.92q.21-3.66.77-7.23A38.11,38.11,0,0,0,76,80a36,36,0,0,0,0,72h80A60.07,60.07,0,0,0,216,92Z"></path>
  </symbol>
  <symbol xmlns="http://www.w3.org/2000/svg" fill="#e6e6e6" viewBox="0 0 256 256" id="cloud-snow">
    <path d="M224,92a68,68,0,0,1-68,68H76A44,44,0,1,1,90.2,74.34v.11A68.06,68.06,0,0,1,224,92Z" opacity="0.2"></path>
    <path d="M88,196a12,12,0,1,1-12-12A12,12,0,0,1,88,196Zm28,4a12,12,0,1,0,12,12A12,12,0,0,0,116,200Zm48-16a12,12,0,1,0,12,12A12,12,0,0,0,164,184ZM68,224a12,12,0,1,0,12,12A12,12,0,0,0,68,224Zm88,0a12,12,0,1,0,12,12A12,12,0,0,0,156,224ZM232,92a76.08,76.08,0,0,1-76,76H76A52,52,0,0,1,76,64a53.26,53.26,0,0,1,8.92.76A76.08,76.08,0,0,1,232,92Zm-16,0A60.06,60.06,0,0,0,96,88.46a8,8,0,0,1-16-.92q.21-3.66.77-7.23A38.11,38.11,0,0,0,76,80a36,36,0,0,0,0,72h80A60.07,60.07,0,0,0,216,92Z"></path>
  </symbol>
  <symbol xmlns="http://www.w3.org/2000/svg" fill="#3390f9" viewBox="0 0 256 256" id="cloud-sun">
    <path d="M131.84,84.41v0a68.22,68.22,0,0,0-41.65,46v-.11a44.08,44.08,0,0,0-38.54,5h0a48,48,0,1,1,80.19-50.94Z" opacity="0.2"></path>
    <path d="M156,72a76.2,76.2,0,0,0-20.26,2.73,55.63,55.63,0,0,0-9.41-11.54l9.51-13.57a8,8,0,1,0-13.11-9.18L113.22,54A55.9,55.9,0,0,0,88,48c-.58,0-1.16,0-1.74,0L83.37,31.71a8,8,0,1,0-15.75,2.77L70.5,50.82A56.1,56.1,0,0,0,47.23,65.67L33.61,56.14a8,8,0,1,0-9.17,13.11L38,78.77A55.55,55.55,0,0,0,32,104c0,.57,0,1.15,0,1.72L15.71,108.6a8,8,0,0,0,1.38,15.88,8.24,8.24,0,0,0,1.39-.12l16.32-2.88a55.74,55.74,0,0,0,5.86,12.42A52,52,0,0,0,76,224h80a76,76,0,0,0,0-152ZM48,104a40,40,0,0,1,72.54-23.24,76.26,76.26,0,0,0-35.62,40,52.14,52.14,0,0,0-31,4.17A40,40,0,0,1,48,104ZM156,208H76a36,36,0,1,1,4.78-71.69c-.37,2.37-.63,4.79-.77,7.23a8,8,0,0,0,16,.92,58.91,58.91,0,0,1,1.88-11.81c0-.16.09-.32.12-.48A60.06,60.06,0,1,1,156,208Z"></path>
  </symbol>
  <symbol xmlns="http://www.w3.org/2000/svg" fill="#3390f9" viewBox="0 0 256 256" id="moon-stars">
    <path d="M210.69,158.18A88,88,0,1,1,97.82,45.31,96.08,96.08,0,0,0,192,160,96.78,96.78,0,0,0,210.69,158.18Z" opacity="0.2"></path>
    <path d="M240,96a8,8,0,0,1-8,8H216v16a8,8,0,0,1-16,0V104H184a8,8,0,0,1,0-16h16V72a8,8,0,0,1,16,0V88h16A8,8,0,0,1,240,96ZM144,56h8v8a8,8,0,0,0,16,0V56h8a8,8,0,0,0,0-16h-8V32a8,8,0,0,0-16,0v8h-8a8,8,0,0,0,0,16Zm72.77,97a8,8,0,0,1,1.43,8A96,96,0,1,1,95.07,37.8a8,8,0,0,1,10.6,9.06A88.07,88.07,0,0,0,209.14,150.33,8,8,0,0,1,216.77,153Zm-19.39,14.88c-1.79.09-3.59.14-5.38.14A104.11,104.11,0,0,1,88,64c0-1.79,0-3.59.14-5.38A80,80,0,1,0,197.38,167.86Z"></path>
  </symbol>
  <symbol xmlns="http://www.w3.org/2000/svg" viewBox="0 0 24 24" id="ruler">
    <path d="M6.34323 14.7278L3.5148 17.5563L7.05033 21.0918L20.4854 7.65678L16.9498 4.12124L14.8285 6.24257L16.2427 7.65678L14.8285 9.07099L13.4143 7.65678L11.293 9.7781L13.4143 11.8994L12.0001 13.3136L9.87876 11.1923L7.75744 13.3136L9.17165 14.7278L7.75744 16.1421L6.34323 14.7278ZM17.6569 1.99992L22.6067 6.94967C22.9972 7.3402 22.9972 7.97336 22.6067 8.36389L7.75744 23.2131C7.36692 23.6037 6.73375 23.6037 6.34323 23.2131L1.39348 18.2634C1.00295 17.8729 1.00295 17.2397 1.39348 16.8492L16.2427 1.99992C16.6332 1.6094 17.2664 1.6094 17.6569 1.99992Z"></path>
  </symbol>
  <symbol xmlns="http://www.w3.org/2000/svg" fill="#b0f060" viewBox="0 0 256 256" id="sun">
    <path d="M184,128a56,56,0,1,1-56-56A56,56,0,0,1,184,128Z" opacity="0.2"></path>
    <path d="M120,40V16a8,8,0,0,1,16,0V40a8,8,0,0,1-16,0Zm72,88a64,64,0,1,1-64-64A64.07,64.07,0,0,1,192,128Zm-16,0a48,48,0,1,0-48,48A48.05,48.05,0,0,0,176,128ZM58.34,69.66A8,8,0,0,0,69.66,58.34l-16-16A8,8,0,0,0,42.34,53.66Zm0,116.68-16,16a8,8,0,0,0,11.32,11.32l16-16a8,8,0,0,0-11.32-11.32ZM192,72a8,8,0,0,0,5.66-2.34l16-16a8,8,0,0,0-11.32-11.32l-16,16A8,8,0,0,0,192,72Zm5.66,114.34a8,8,0,0,0-11.32,11.32l16,16a8,8,0,0,0,11.32-11.32ZM48,128a8,8,0,0,0-8-8H16a8,8,0,0,0,0,16H40A8,8,0,0,0,48,128Zm80,80a8,8,0,0,0-8,8v24a8,8,0,0,0,16,0V216A8,8,0,0,0,128,208Zm112-88H216a8,8,0,0,0,0,16h24a8,8,0,0,0,0-16Z"></path>
  </symbol>
  <symbol xmlns="http://www.w3.org/2000/svg" viewBox="0 0 24 24" id="water-percent">
    <path d="M7.05025 8.04673L12 3.09698L16.9497 8.04673C19.6834 10.7804 19.6834 15.2126 16.9497 17.9462C14.2161 20.6799 9.78392 20.6799 7.05025 17.9462C4.31658 15.2126 4.31658 10.7804 7.05025 8.04673ZM18.364 6.63252L12 0.268555L5.63604 6.63252C2.12132 10.1472 2.12132 15.8457 5.63604 19.3604C9.15076 22.8752 14.8492 22.8752 18.364 19.3604C21.8787 15.8457 21.8787 10.1472 18.364 6.63252ZM16.2427 10.1714L14.8285 8.75718L7.7574 15.8282L9.17161 17.2425L16.2427 10.1714ZM8.11095 11.232C8.69674 11.8178 9.64648 11.8178 10.2323 11.232C10.8181 10.6463 10.8181 9.69652 10.2323 9.11073C9.64648 8.52494 8.69674 8.52494 8.11095 9.11073C7.52516 9.69652 7.52516 10.6463 8.11095 11.232ZM15.8891 16.8889C15.3033 17.4747 14.3536 17.4747 13.7678 16.8889C13.182 16.3031 13.182 15.3534 13.7678 14.7676C14.3536 14.1818 15.3033 14.1818 15.8891 14.7676C16.4749 15.3534 16.4749 16.3031 15.8891 16.8889Z"></path>
  </symbol>
  <symbol xmlns="http://www.w3.org/2000/svg" viewBox="0 0 24 24" id="windy">
    <path d="M10.5 17H4V15H10.5C12.433 15 14 16.567 14 18.5C14 20.433 12.433 22 10.5 22C8.99957 22 7.71966 21.0559 7.22196 19.7293L9.09513 19.0268C9.30843 19.5954 9.85696 20 10.5 20C11.3284 20 12 19.3284 12 18.5C12 17.6716 11.3284 17 10.5 17ZM5 11H18.5C20.433 11 22 12.567 22 14.5C22 16.433 20.433 18 18.5 18C16.9996 18 15.7197 17.0559 15.222 15.7293L17.0951 15.0268C17.3084 15.5954 17.857 16 18.5 16C19.3284 16 20 15.3284 20 14.5C20 13.6716 19.3284 13 18.5 13H5C3.34315 13 2 11.6569 2 10C2 8.34315 3.34315 7 5 7H13.5C14.3284 7 15 6.32843 15 5.5C15 4.67157 14.3284 4 13.5 4C12.857 4 12.3084 4.40463 12.0951 4.97317L10.222 4.27073C10.7197 2.94414 11.9996 2 13.5 2C15.433 2 17 3.567 17 5.5C17 7.433 15.433 9 13.5 9H5C4.44772 9 4 9.44772 4 10C4 10.5523 4.44772 11 5 11Z"></path>
  </symbol>
  <symbol xmlns="http://www.w3.org/2000/svg" viewBox="0 0 24 24" id="error-warning">
    <path d="M12 22C6.47715 22 2 17.5228 2 12C2 6.47715 6.47715 2 12 2C17.5228 2 22 6.47715 22 12C22 17.5228 17.5228 22 12 22ZM12 20C16.4183 20 20 16.4183 20 12C20 7.58172 16.4183 4 12 4C7.58172 4 4 7.58172 4 12C4 16.4183 7.58172 20 12 20ZM11 15H13V17H11V15ZM11 7H13V13H11V7Z"></path>
  </symbol>
  <symbol xmlns="http://www.w3.org/2000/svg" viewBox="0 0 24 24" id="search">
    <path d="M18.031 16.6168L22.3137 20.8995L20.8995 22.3137L16.6168 18.031C15.0769 19.263 13.124 20 11 20C6.032 20 2 15.968 2 11C2 6.032 6.032 2 11 2C15.968 2 20 6.032 20 11C20 13.124 19.263 15.0769 18.031 16.6168ZM16.0247 15.8748C17.2475 14.6146 18 12.8956 18 11C18 7.1325 14.8675 4 11 4C7.1325 4 4 7.1325 4 11C4 14.8675 7.1325 18 11 18C12.8956 18 14.6146 17.2475 15.8748 16.0247L16.0247 15.8748Z"></path>
  </symbol>
</svg>